{"glyphs":{"0":{"ha":771,"x_min":68,"x_max":703,"o":"m 386 -18 q 154 114 238 -18 q 68 513 68 253 q 154 908 68 772 q 386 1038 236 1038 q 617 907 535 1038 q 703 513 703 771 q 617 114 703 253 q 386 -18 535 -18 m 386 83 q 579 513 579 83 q 386 935 579 935 q 192 513 192 935 q 386 83 192 83 z "},"1":{"ha":771,"x_min":122,"x_max":681,"o":"m 122 106 l 349 106 l 349 865 l 168 865 l 168 946 q 379 1018 294 969 l 476 1018 l 476 106 l 681 106 l 681 0 l 122 0 l 122 106 z "},"2":{"ha":771,"x_min":56,"x_max":701,"o":"m 61 75 q 528 732 528 483 q 482 876 528 824 q 340 933 432 933 q 129 815 228 933 l 56 888 q 356 1038 194 1038 q 572 956 492 1038 q 651 736 651 874 q 253 100 651 478 q 419 110 376 110 l 701 110 l 701 0 l 61 0 l 61 75 z "},"3":{"ha":771,"x_min":40,"x_max":693,"o":"m 367 -18 q 40 121 168 -18 l 104 204 q 357 88 215 88 q 506 139 449 88 q 564 276 564 190 q 247 481 564 481 l 247 578 q 529 772 529 578 q 483 890 529 846 q 357 936 436 933 q 146 835 243 932 l 78 915 q 363 1038 210 1038 q 575 971 494 1038 q 658 782 658 901 q 476 536 658 604 l 476 531 q 631 443 571 508 q 693 272 693 372 q 597 58 693 139 q 367 -18 507 -18 z "},"4":{"ha":771,"x_min":28,"x_max":726,"o":"m 471 382 l 471 694 q 479 879 471 721 l 474 879 q 392 729 440 813 l 160 382 l 471 382 m 726 281 l 592 281 l 592 0 l 471 0 l 471 281 l 28 281 l 28 364 l 451 1018 l 592 1018 l 592 382 l 726 382 l 726 281 z "},"5":{"ha":771,"x_min":39,"x_max":696,"o":"m 363 -18 q 39 117 174 -18 l 101 200 q 351 88 214 88 q 504 151 443 88 q 568 328 568 219 q 511 499 568 436 q 357 560 454 560 q 188 500 278 560 l 119 542 l 151 1018 l 647 1018 l 647 910 l 263 910 l 238 615 q 389 656 310 656 q 606 578 524 656 q 696 332 696 492 q 594 74 696 171 q 363 -18 499 -18 z "},"6":{"ha":771,"x_min":78,"x_max":710,"o":"m 418 81 q 540 144 492 81 q 590 313 590 210 q 407 538 590 538 q 199 407 290 538 q 418 81 222 81 m 622 854 q 458 932 558 932 q 196 508 203 932 q 428 632 297 632 q 633 551 560 632 q 710 313 710 468 q 624 74 710 168 q 418 -18 540 -18 q 175 108 265 -18 q 78 486 78 242 q 192 911 78 767 q 454 1038 292 1038 q 692 933 594 1038 l 622 854 z "},"7":{"ha":771,"x_min":68,"x_max":706,"o":"m 275 0 q 561 910 299 542 l 68 910 l 68 1018 l 706 1018 l 706 942 q 472 506 536 724 q 407 0 419 324 l 275 0 z "},"8":{"ha":771,"x_min":63,"x_max":707,"o":"m 388 -18 q 154 58 247 -18 q 63 253 63 135 q 250 533 63 432 l 250 540 q 113 775 113 635 q 192 963 113 890 q 392 1033 271 1033 q 596 958 519 1033 q 671 765 671 885 q 535 519 671 625 l 535 513 q 707 246 707 413 q 619 58 707 133 q 388 -18 529 -18 m 457 553 q 563 758 563 646 q 517 888 563 836 q 389 940 468 940 q 274 894 318 940 q 228 775 228 849 q 297 636 228 693 q 457 553 346 597 m 390 76 q 532 125 478 76 q 586 249 586 172 q 506 401 586 340 q 317 494 456 439 q 178 264 178 406 q 239 129 178 183 q 390 76 299 76 z "},"9":{"ha":771,"x_min":61,"x_max":694,"o":"m 363 481 q 575 617 479 481 q 353 938 554 938 q 231 875 279 938 q 181 707 181 810 q 226 542 181 601 q 363 481 274 481 m 150 165 q 321 88 219 88 q 576 513 564 88 q 342 386 475 386 q 138 468 211 386 q 61 707 61 551 q 147 946 61 851 q 353 1038 231 1038 q 597 917 506 1038 q 694 553 694 788 q 582 113 694 263 q 325 -18 483 -18 q 81 86 181 -18 l 150 165 z "},"\"":{"ha":660,"x_min":125,"x_max":532,"o":"m 128 928 l 125 1071 l 258 1071 l 256 928 l 231 671 l 153 671 l 128 928 m 401 928 l 397 1071 l 532 1071 l 529 928 l 503 671 l 426 671 l 401 928 z "},"#":{"ha":771,"x_min":56,"x_max":724,"o":"m 178 317 l 56 317 l 56 406 l 189 406 l 218 636 l 86 636 l 86 724 l 228 724 l 264 1008 l 346 1008 l 311 724 l 517 724 l 554 1008 l 635 1008 l 600 724 l 724 724 l 724 636 l 590 636 l 561 406 l 693 406 l 693 317 l 550 317 l 513 0 l 429 0 l 467 317 l 261 317 l 222 0 l 140 0 l 178 317 m 478 406 l 507 636 l 300 636 l 272 406 l 478 406 z "},"%":{"ha":1279,"x_min":54,"x_max":1225,"o":"m 285 394 q 118 479 179 394 q 54 718 54 565 q 118 954 54 869 q 285 1038 179 1038 q 453 954 392 1038 q 517 718 517 869 q 453 479 517 565 q 285 394 392 394 m 285 474 q 383 535 347 474 q 421 718 421 600 q 285 960 421 960 q 188 900 224 960 q 150 718 150 836 q 188 535 150 600 q 285 474 224 474 m 876 1038 l 963 1038 l 400 -18 l 315 -18 l 876 1038 m 994 -18 q 826 67 889 -18 q 763 304 763 153 q 826 540 763 456 q 994 624 889 624 q 1163 540 1100 624 q 1225 304 1225 456 q 1163 67 1225 151 q 994 -18 1100 -18 m 994 60 q 1092 121 1056 60 q 1129 304 1129 186 q 1092 486 1129 422 q 994 546 1056 546 q 858 304 858 546 q 896 121 858 186 q 994 60 932 60 z "},"&":{"ha":944,"x_min":50,"x_max":921,"o":"m 174 271 q 232 135 174 188 q 375 83 289 83 q 569 165 474 83 q 301 469 410 306 q 174 271 174 367 m 293 799 q 342 618 293 718 q 515 833 515 735 q 418 946 515 946 q 326 904 361 946 q 293 799 293 863 m 886 -18 q 654 99 775 13 q 360 -18 526 -18 q 136 61 222 -18 q 50 264 50 140 q 250 558 50 419 q 183 796 183 689 q 249 968 183 900 q 418 1038 314 1038 q 565 981 511 1038 q 618 836 618 926 q 546 667 618 747 q 389 535 501 617 q 647 247 489 376 q 792 549 743 372 l 908 549 q 731 185 847 338 q 921 88 835 111 l 886 -18 z "},"'":{"ha":386,"x_min":125,"x_max":258,"o":"m 128 928 l 125 1071 l 258 1071 l 256 928 l 231 671 l 153 671 l 128 928 z "},"(":{"ha":469,"x_min":128,"x_max":411,"o":"m 332 -274 q 128 432 128 60 q 332 1136 128 806 l 411 1100 q 233 432 233 808 q 411 -236 233 54 l 332 -274 z "},")":{"ha":469,"x_min":60,"x_max":343,"o":"m 60 -236 q 238 432 238 57 q 60 1100 238 804 l 138 1136 q 343 432 343 807 q 138 -274 343 58 l 60 -236 z "},"*":{"ha":649,"x_min":89,"x_max":557,"o":"m 153 699 l 240 843 l 89 906 l 114 976 l 272 938 l 286 1106 l 361 1106 l 375 939 l 533 976 l 557 906 l 406 843 l 494 699 l 433 654 l 324 786 l 214 654 l 153 699 z "},"+":{"ha":771,"x_min":53,"x_max":718,"o":"m 335 465 l 53 465 l 53 560 l 335 560 l 335 863 l 436 863 l 436 560 l 718 560 l 718 465 l 436 465 l 436 161 l 335 161 l 335 465 z "},",":{"ha":386,"x_min":74,"x_max":307,"o":"m 74 -189 q 213 0 210 -129 q 197 -1 207 -1 q 132 21 158 -1 q 104 88 104 46 q 133 153 104 126 q 200 176 160 176 q 307 26 307 176 q 104 -264 307 -178 l 74 -189 z "},"-":{"ha":482,"x_min":64,"x_max":419,"o":"m 64 438 l 419 438 l 419 340 l 64 340 l 64 438 z "},".":{"ha":386,"x_min":101,"x_max":285,"o":"m 193 -18 q 129 8 154 -18 q 101 78 101 36 q 129 149 101 119 q 193 176 156 176 q 258 149 231 176 q 285 78 285 119 q 258 8 285 36 q 193 -18 232 -18 z "},"/":{"ha":544,"x_min":15,"x_max":524,"o":"m 432 1101 l 524 1101 l 108 -249 l 15 -249 l 432 1101 z "},":":{"ha":386,"x_min":101,"x_max":285,"o":"m 193 542 q 129 569 156 542 q 101 638 101 596 q 129 708 101 681 q 193 736 154 736 q 258 708 232 736 q 285 638 285 681 q 258 569 285 596 q 193 542 231 542 m 193 -18 q 129 8 154 -18 q 101 78 101 36 q 129 149 101 119 q 193 176 156 176 q 258 149 231 176 q 285 78 285 119 q 258 8 285 36 q 193 -18 232 -18 z "},";":{"ha":386,"x_min":74,"x_max":307,"o":"m 193 542 q 129 569 156 542 q 101 638 101 596 q 129 708 101 681 q 193 736 154 736 q 258 708 232 736 q 285 638 285 681 q 258 569 285 596 q 193 542 231 542 m 74 -189 q 213 0 210 -129 q 197 -1 207 -1 q 132 21 158 -1 q 104 88 104 46 q 133 153 104 126 q 200 176 160 176 q 307 26 307 176 q 104 -264 307 -178 l 74 -189 z "},"<":{"ha":771,"x_min":53,"x_max":718,"o":"m 53 464 l 53 565 l 718 826 l 718 717 l 182 518 l 182 513 l 718 314 l 718 203 l 53 464 z "},"=":{"ha":771,"x_min":53,"x_max":718,"o":"m 53 725 l 718 725 l 718 631 l 53 631 l 53 725 m 53 393 l 718 393 l 718 299 l 53 299 l 53 393 z "},">":{"ha":771,"x_min":53,"x_max":718,"o":"m 53 314 l 589 513 l 589 518 l 53 717 l 53 826 l 718 565 l 718 464 l 53 203 l 53 314 z "},"?":{"ha":658,"x_min":60,"x_max":585,"o":"m 247 307 q 342 583 229 440 q 461 803 461 735 q 424 910 461 868 q 311 953 382 953 q 132 864 210 953 l 60 931 q 325 1058 171 1058 q 514 992 443 1058 q 585 811 585 924 q 463 564 585 715 q 360 307 347 421 l 247 307 m 307 -18 q 243 8 268 -18 q 215 78 215 36 q 243 149 215 119 q 307 176 269 176 q 372 149 346 176 q 400 78 400 119 q 372 8 400 36 q 307 -18 346 -18 z "},"@":{"ha":1314,"x_min":78,"x_max":1235,"o":"m 625 -240 q 238 -97 388 -240 q 78 315 78 54 q 272 815 78 618 q 725 1003 457 1003 q 1097 861 958 1003 q 1235 489 1235 719 q 1132 181 1235 300 q 925 76 1042 76 q 765 194 779 76 l 761 194 q 572 88 672 88 q 440 144 490 88 q 386 308 386 206 q 467 550 386 442 q 685 668 556 668 q 808 592 767 668 l 811 592 l 829 656 l 913 656 l 851 346 q 936 164 808 164 q 1078 249 1017 164 q 1146 483 1146 340 q 1036 794 1146 678 q 715 918 921 918 q 340 754 499 918 q 172 319 172 582 q 304 -32 172 97 q 633 -156 431 -156 q 886 -86 767 -156 l 919 -161 q 625 -240 788 -240 m 597 175 q 740 267 664 175 l 785 514 q 685 579 744 579 q 540 492 599 579 q 488 315 488 411 q 597 175 488 175 z "},"A":{"ha":843,"x_min":4,"x_max":839,"o":"m 574 414 l 525 569 q 422 914 483 699 l 417 914 q 315 569 379 772 l 265 414 l 574 414 m 606 311 l 233 311 l 135 0 l 4 0 l 350 1018 l 493 1018 l 839 0 l 703 0 l 606 311 z "},"B":{"ha":913,"x_min":139,"x_max":850,"o":"m 139 1018 l 442 1018 q 792 769 792 1018 q 642 549 792 596 l 642 542 q 850 299 850 501 q 743 75 850 153 q 464 0 640 0 l 139 0 l 139 1018 m 419 585 q 665 753 665 585 q 425 917 665 917 l 268 917 l 268 585 l 419 585 m 446 103 q 724 303 724 103 q 446 486 724 486 l 268 486 l 268 103 l 446 103 z "},"C":{"ha":886,"x_min":81,"x_max":836,"o":"m 524 -18 q 207 121 329 -18 q 81 508 81 265 q 210 896 81 750 q 532 1038 335 1038 q 811 911 699 1038 l 742 828 q 533 925 651 925 q 300 814 388 925 q 213 513 213 701 q 299 207 213 319 q 529 94 383 94 q 765 208 660 94 l 836 128 q 524 -18 710 -18 z "},"D":{"ha":954,"x_min":139,"x_max":875,"o":"m 139 1018 l 394 1018 q 751 886 628 1018 q 875 513 875 756 q 753 136 875 269 q 400 0 629 0 l 139 0 l 139 1018 m 383 106 q 653 213 561 106 q 742 513 742 317 q 383 914 742 914 l 268 914 l 268 106 l 383 106 z "},"E":{"ha":817,"x_min":139,"x_max":742,"o":"m 139 1018 l 726 1018 l 726 910 l 268 910 l 268 590 l 654 590 l 654 481 l 268 481 l 268 110 l 742 110 l 742 0 l 139 0 l 139 1018 z "},"F":{"ha":767,"x_min":139,"x_max":726,"o":"m 139 1018 l 726 1018 l 726 910 l 268 910 l 268 565 l 657 565 l 657 457 l 268 457 l 268 0 l 139 0 l 139 1018 z "},"G":{"ha":957,"x_min":81,"x_max":854,"o":"m 539 -18 q 210 121 335 -18 q 81 508 81 264 q 213 896 81 751 q 547 1038 342 1038 q 840 911 722 1038 l 771 828 q 550 925 679 925 q 304 814 396 925 q 213 513 213 703 q 300 207 213 318 q 551 94 390 94 q 736 154 672 94 l 736 421 l 521 421 l 521 528 l 854 528 l 854 100 q 539 -18 740 -18 z "},"H":{"ha":1011,"x_min":139,"x_max":871,"o":"m 139 1018 l 268 1018 l 268 592 l 743 592 l 743 1018 l 871 1018 l 871 0 l 743 0 l 743 481 l 268 481 l 268 0 l 139 0 l 139 1018 z "},"I":{"ha":407,"x_min":139,"x_max":268,"o":"m 139 1018 l 268 1018 l 268 0 l 139 0 l 139 1018 z "},"J":{"ha":744,"x_min":49,"x_max":608,"o":"m 329 -18 q 49 143 140 -18 l 140 208 q 317 94 206 94 q 481 311 481 94 l 481 1018 l 608 1018 l 608 299 q 543 75 608 157 q 329 -18 471 -18 z "},"K":{"ha":897,"x_min":139,"x_max":892,"o":"m 139 1018 l 268 1018 l 268 507 l 272 507 l 697 1018 l 842 1018 l 524 631 l 892 0 l 747 0 l 443 531 l 268 322 l 268 0 l 139 0 l 139 1018 z "},"L":{"ha":753,"x_min":139,"x_max":713,"o":"m 139 1018 l 268 1018 l 268 110 l 713 110 l 713 0 l 139 0 l 139 1018 z "},"M":{"ha":1128,"x_min":139,"x_max":989,"o":"m 139 1018 l 294 1018 l 490 474 q 563 261 538 332 l 569 261 q 604 368 582 297 l 639 474 l 833 1018 l 989 1018 l 989 0 l 868 0 l 868 564 q 885 864 868 650 l 879 864 l 799 632 l 606 103 l 519 103 l 326 632 l 246 864 l 240 864 q 256 564 256 619 l 256 0 l 139 0 l 139 1018 z "},"N":{"ha":1003,"x_min":139,"x_max":864,"o":"m 139 1018 l 272 1018 l 643 376 l 751 167 l 758 167 q 742 489 742 414 l 742 1018 l 864 1018 l 864 0 l 732 0 l 361 643 l 251 853 l 246 853 q 261 535 261 571 l 261 0 l 139 0 l 139 1018 z "},"O":{"ha":1031,"x_min":81,"x_max":950,"o":"m 515 -18 q 203 125 321 -18 q 81 513 81 271 q 203 897 81 754 q 515 1038 321 1038 q 829 897 710 1038 q 950 513 950 754 q 829 125 950 271 q 515 -18 710 -18 m 515 94 q 735 208 653 94 q 818 513 818 322 q 735 815 818 703 q 515 925 653 925 q 296 815 376 925 q 213 513 213 703 q 296 208 213 322 q 515 94 378 94 z "},"P":{"ha":878,"x_min":139,"x_max":811,"o":"m 139 1018 l 429 1018 q 811 719 811 1018 q 707 481 811 563 q 436 404 610 404 l 268 404 l 268 0 l 139 0 l 139 1018 m 419 508 q 683 719 683 508 q 615 872 683 826 q 414 914 553 914 l 268 914 l 268 508 l 419 508 z "},"Q":{"ha":1031,"x_min":81,"x_max":972,"o":"m 213 513 q 296 203 213 318 q 515 88 378 88 q 735 203 653 88 q 818 513 818 318 q 735 815 818 703 q 515 925 653 925 q 296 815 376 925 q 213 513 213 703 m 972 -233 q 826 -256 911 -256 q 453 -14 551 -256 q 183 149 283 10 q 81 513 81 292 q 203 897 81 754 q 515 1038 321 1038 q 829 897 710 1038 q 950 513 950 754 q 851 154 950 296 q 590 -12 754 17 q 840 -149 660 -149 q 947 -133 899 -149 l 972 -233 z "},"R":{"ha":882,"x_min":139,"x_max":844,"o":"m 268 536 l 439 536 q 686 732 686 536 q 439 914 686 914 l 268 914 l 268 536 m 699 0 l 451 432 l 268 432 l 268 0 l 139 0 l 139 1018 l 458 1018 q 814 732 814 1018 q 583 446 814 501 l 844 0 l 699 0 z "},"S":{"ha":829,"x_min":65,"x_max":768,"o":"m 422 -18 q 65 133 210 -18 l 142 221 q 424 94 264 94 q 581 140 522 94 q 638 261 638 185 q 589 375 638 332 q 468 442 558 401 l 321 506 q 114 767 114 594 q 206 961 114 885 q 435 1038 296 1038 q 735 911 613 1038 l 667 829 q 435 925 564 925 q 296 885 349 925 q 244 775 244 843 q 299 665 244 710 q 413 606 331 640 l 558 543 q 768 271 768 451 q 675 67 768 147 q 422 -18 578 -18 z "},"T":{"ha":832,"x_min":43,"x_max":789,"o":"m 351 910 l 43 910 l 43 1018 l 789 1018 l 789 910 l 481 910 l 481 0 l 351 0 l 351 910 z "},"U":{"ha":1001,"x_min":135,"x_max":867,"o":"m 500 -18 q 135 421 135 -18 l 135 1018 l 264 1018 l 264 417 q 500 94 264 94 q 743 417 743 94 l 743 1018 l 867 1018 l 867 421 q 500 -18 867 -18 z "},"V":{"ha":799,"x_min":1,"x_max":799,"o":"m 1 1018 l 136 1018 l 301 467 l 350 299 q 400 131 378 199 l 406 131 q 456 299 426 196 q 504 467 489 417 l 668 1018 l 799 1018 l 475 0 l 326 0 l 1 1018 z "},"W":{"ha":1219,"x_min":35,"x_max":1182,"o":"m 35 1018 l 168 1018 l 306 300 l 335 135 l 340 135 q 414 464 364 244 l 554 1018 l 671 1018 l 814 464 q 886 135 843 339 l 893 135 l 951 464 l 1058 1018 l 1182 1018 l 971 0 l 817 0 l 663 614 l 613 846 l 607 846 l 556 614 l 404 0 l 251 0 l 35 1018 z "},"X":{"ha":796,"x_min":24,"x_max":772,"o":"m 321 526 l 43 1018 l 185 1018 l 361 689 q 404 610 386 642 l 410 610 l 482 758 l 618 1018 l 753 1018 l 475 519 l 772 0 l 631 0 l 393 439 l 388 439 q 306 275 344 349 l 158 0 l 24 0 l 321 526 z "},"Y":{"ha":738,"x_min":-1,"x_max":739,"o":"m 304 396 l -1 1018 l 136 1018 l 267 731 q 367 508 346 551 l 372 508 q 474 731 451 675 l 606 1018 l 739 1018 l 433 396 l 433 0 l 304 0 l 304 396 z "},"Z":{"ha":838,"x_min":69,"x_max":771,"o":"m 69 76 l 607 910 l 118 910 l 118 1018 l 765 1018 l 765 943 l 228 110 l 771 110 l 771 0 l 69 0 l 69 76 z "},"[":{"ha":469,"x_min":146,"x_max":422,"o":"m 146 1099 l 422 1099 l 422 1028 l 242 1028 l 242 -164 l 422 -164 l 422 -236 l 146 -236 l 146 1099 z "},"\\":{"ha":544,"x_min":21,"x_max":528,"o":"m 21 1101 l 113 1101 l 528 -249 l 436 -249 l 21 1101 z "},"]":{"ha":469,"x_min":47,"x_max":324,"o":"m 47 -164 l 228 -164 l 228 1028 l 47 1028 l 47 1099 l 324 1099 l 324 -236 l 47 -236 l 47 -164 z "},"a":{"ha":783,"x_min":81,"x_max":671,"o":"m 301 -18 q 143 38 204 -18 q 81 196 81 96 q 192 385 81 318 q 544 478 301 450 q 389 668 544 668 q 163 588 282 668 l 113 675 q 410 774 267 774 q 671 464 671 774 l 671 0 l 567 0 l 556 90 l 551 90 q 301 -18 421 -18 m 338 83 q 544 183 432 83 l 544 394 q 204 204 204 354 q 338 83 204 83 z "},"b":{"ha":858,"x_min":128,"x_max":788,"o":"m 460 -18 q 244 78 349 -18 l 240 78 l 229 0 l 128 0 l 128 1106 l 254 1106 l 254 803 l 250 667 q 486 774 372 774 q 710 668 631 774 q 788 390 788 567 q 689 89 788 203 q 460 -18 596 -18 m 439 88 q 594 167 535 88 q 656 388 656 250 q 457 667 656 667 q 254 563 365 667 l 254 167 q 439 88 344 88 z "},"c":{"ha":707,"x_min":71,"x_max":668,"o":"m 425 -18 q 174 86 271 -18 q 71 376 71 193 q 181 669 71 558 q 435 774 283 774 q 656 685 554 774 l 590 600 q 439 668 515 668 q 269 588 336 668 q 203 376 203 506 q 268 167 203 246 q 436 88 332 88 q 614 163 532 88 l 668 78 q 425 -18 564 -18 z "},"d":{"ha":861,"x_min":74,"x_max":732,"o":"m 385 -18 q 158 85 242 -18 q 74 376 74 190 q 172 667 74 554 q 400 774 265 774 q 613 685 506 774 l 606 815 l 606 1106 l 732 1106 l 732 0 l 629 0 l 617 89 l 614 89 q 385 -18 504 -18 m 413 88 q 606 192 513 88 l 606 588 q 422 667 517 667 q 268 588 329 667 q 204 378 204 506 q 258 164 204 240 q 413 88 313 88 z "},"e":{"ha":769,"x_min":71,"x_max":711,"o":"m 432 -18 q 176 86 276 -18 q 71 376 71 196 q 175 667 71 553 q 411 774 274 774 q 633 678 553 774 q 711 419 711 583 q 706 347 711 383 l 197 347 q 272 156 203 226 q 447 83 340 83 q 636 143 547 83 l 682 60 q 432 -18 561 -18 m 600 438 q 413 672 600 672 q 269 611 329 672 q 196 438 207 546 l 600 438 z "},"f":{"ha":451,"x_min":46,"x_max":494,"o":"m 467 1003 q 382 1022 424 1022 q 275 874 275 1022 l 275 754 l 435 754 l 435 651 l 275 651 l 275 0 l 149 0 l 149 651 l 46 651 l 46 747 l 149 754 l 149 875 q 368 1124 149 1124 q 494 1099 435 1124 l 467 1003 z "},"g":{"ha":782,"x_min":69,"x_max":763,"o":"m 382 -347 q 157 -294 240 -347 q 69 -144 69 -240 q 182 26 69 -46 l 182 32 q 113 156 113 72 q 197 296 113 235 l 197 301 q 99 504 99 381 q 183 701 99 625 q 382 774 264 774 q 488 754 435 774 l 750 754 l 750 657 l 596 657 q 657 501 657 599 q 576 310 657 383 q 382 239 500 239 q 269 265 322 239 q 221 175 221 224 q 353 93 221 93 l 500 93 q 763 -86 763 93 q 660 -269 763 -194 q 382 -347 551 -347 m 382 325 q 494 374 449 325 q 542 504 542 424 q 496 633 542 585 q 382 681 450 681 q 268 635 313 681 q 221 504 221 585 q 268 374 221 424 q 382 325 314 325 m 400 -261 q 575 -212 504 -261 q 640 -106 640 -168 q 486 -12 640 -12 l 356 -12 q 258 0 308 -12 q 181 -128 181 -56 q 239 -225 181 -189 q 400 -261 297 -261 z "},"h":{"ha":843,"x_min":128,"x_max":731,"o":"m 128 1106 l 254 1106 l 254 803 l 250 647 q 500 774 376 774 q 731 478 731 774 l 731 0 l 604 0 l 604 461 q 461 663 604 663 q 254 547 369 663 l 254 0 l 128 0 l 128 1106 z "},"i":{"ha":382,"x_min":104,"x_max":279,"o":"m 128 754 l 254 754 l 254 0 l 128 0 l 128 754 m 192 910 q 129 933 154 910 q 104 992 104 957 q 192 1074 104 1074 q 279 992 279 1074 q 254 933 279 957 q 192 910 229 910 z "},"j":{"ha":382,"x_min":-61,"x_max":281,"o":"m 50 -337 q -61 -318 -8 -337 l -36 -221 q 35 -235 3 -235 q 129 -86 129 -235 l 129 754 l 256 754 l 256 -86 q 50 -337 256 -337 m 193 910 q 131 933 156 910 q 106 992 106 957 q 193 1074 106 1074 q 256 1051 231 1074 q 281 992 281 1029 q 256 933 281 957 q 193 910 229 910 z "},"k":{"ha":767,"x_min":128,"x_max":753,"o":"m 128 1106 l 253 1106 l 253 356 l 256 356 l 579 754 l 719 754 l 467 451 l 753 0 l 615 0 l 394 364 l 253 199 l 253 0 l 128 0 l 128 1106 z "},"l":{"ha":396,"x_min":128,"x_max":335,"o":"m 261 -18 q 128 150 128 -18 l 128 1106 l 254 1106 l 254 142 q 290 88 254 88 q 317 90 303 88 l 335 -7 q 261 -18 306 -18 z "},"m":{"ha":1286,"x_min":128,"x_max":1168,"o":"m 128 754 l 232 754 l 243 644 l 247 644 q 482 774 364 774 q 690 629 640 774 q 939 774 822 774 q 1168 478 1168 774 l 1168 0 l 1042 0 l 1042 461 q 901 663 1042 663 q 711 547 817 663 l 711 0 l 585 0 l 585 461 q 444 663 585 663 q 254 547 357 663 l 254 0 l 128 0 l 128 754 z "},"n":{"ha":849,"x_min":128,"x_max":731,"o":"m 128 754 l 232 754 l 243 646 l 247 646 q 500 774 378 774 q 731 478 731 774 l 731 0 l 604 0 l 604 461 q 461 663 604 663 q 254 547 369 663 l 254 0 l 128 0 l 128 754 z "},"o":{"ha":842,"x_min":71,"x_max":771,"o":"m 421 -18 q 176 86 275 -18 q 71 376 71 196 q 176 669 71 558 q 421 774 275 774 q 665 669 567 774 q 771 376 771 558 q 665 86 771 196 q 421 -18 567 -18 m 421 88 q 579 167 519 88 q 640 376 640 246 q 579 588 640 507 q 421 668 519 668 q 263 588 324 668 q 203 376 203 507 q 263 167 203 246 q 421 88 322 88 z "},"p":{"ha":861,"x_min":128,"x_max":788,"o":"m 128 754 l 232 754 l 243 668 l 247 668 q 488 774 376 774 q 711 668 631 774 q 788 389 788 567 q 689 89 788 203 q 460 -18 596 -18 q 251 69 358 -18 l 254 -62 l 254 -318 l 128 -318 l 128 754 m 439 88 q 594 167 535 88 q 656 388 656 250 q 457 667 656 667 q 254 563 367 667 l 254 167 q 439 88 347 88 z "},"q":{"ha":861,"x_min":74,"x_max":732,"o":"m 606 -50 l 613 88 q 385 -18 504 -18 q 158 85 242 -18 q 74 376 74 190 q 172 667 74 554 q 400 774 265 774 q 615 682 515 774 l 619 682 l 632 754 l 732 754 l 732 -318 l 606 -318 l 606 -50 m 413 88 q 606 192 513 88 l 606 588 q 422 667 517 667 q 268 588 329 667 q 204 378 204 506 q 258 164 204 240 q 413 88 313 88 z "},"r":{"ha":539,"x_min":128,"x_max":542,"o":"m 128 754 l 232 754 l 243 617 l 247 617 q 461 774 333 774 q 542 757 510 774 l 518 646 q 444 658 486 658 q 254 485 321 658 l 254 0 l 128 0 l 128 754 z "},"s":{"ha":650,"x_min":43,"x_max":600,"o":"m 325 -18 q 43 86 169 -18 l 106 169 q 329 81 215 81 q 442 115 401 81 q 478 199 478 147 q 306 342 478 275 q 154 418 201 381 q 81 560 81 475 q 149 711 81 653 q 340 774 221 774 q 575 689 465 774 l 514 607 q 340 674 424 674 q 236 642 274 674 q 203 565 203 613 q 254 485 203 518 q 369 435 281 468 q 526 358 483 392 q 600 206 600 300 q 529 49 600 110 q 325 -18 454 -18 z "},"t":{"ha":524,"x_min":38,"x_max":504,"o":"m 365 -18 q 150 233 150 -18 l 150 651 l 38 651 l 38 747 l 156 754 l 171 965 l 276 965 l 276 754 l 481 754 l 481 651 l 276 651 l 276 231 q 393 85 276 85 q 479 104 429 85 l 504 10 q 365 -18 418 -18 z "},"u":{"ha":843,"x_min":118,"x_max":717,"o":"m 347 -18 q 118 276 118 -18 l 118 754 l 244 754 l 244 292 q 278 139 244 186 q 386 92 311 92 q 590 219 488 92 l 590 754 l 717 754 l 717 0 l 611 0 l 601 118 l 597 118 q 347 -18 479 -18 z "},"v":{"ha":724,"x_min":18,"x_max":706,"o":"m 18 754 l 150 754 l 292 325 l 363 103 l 368 103 l 438 325 l 581 754 l 706 754 l 438 0 l 290 0 l 18 754 z "},"w":{"ha":1114,"x_min":38,"x_max":1076,"o":"m 38 754 l 167 754 l 279 318 l 324 107 l 331 107 q 382 318 369 275 l 499 754 l 622 754 l 740 318 l 793 107 l 799 107 l 846 318 l 957 754 l 1076 754 l 874 0 l 721 0 l 611 407 l 560 624 l 553 624 q 501 404 519 474 l 396 0 l 247 0 l 38 754 z "},"x":{"ha":692,"x_min":21,"x_max":671,"o":"m 269 393 l 40 754 l 176 754 l 353 463 l 358 463 l 519 754 l 651 754 l 422 381 l 671 0 l 532 0 l 421 176 q 340 311 386 240 l 333 311 l 154 0 l 21 0 l 269 393 z "},"y":{"ha":724,"x_min":18,"x_max":706,"o":"m 140 -325 q 51 -310 89 -325 l 76 -208 q 133 -221 111 -221 q 304 -58 251 -221 l 321 -1 l 18 754 l 150 754 l 304 335 q 376 124 357 178 l 383 124 l 447 335 l 582 754 l 706 754 l 421 -62 q 140 -325 328 -325 z "},"z":{"ha":658,"x_min":49,"x_max":619,"o":"m 49 68 l 446 651 l 92 651 l 92 754 l 606 754 l 606 686 l 208 103 l 619 103 l 619 0 l 49 0 l 49 68 z "},"{":{"ha":469,"x_min":53,"x_max":422,"o":"m 354 -236 q 217 -193 258 -236 q 172 -29 172 -146 q 179 124 172 28 q 186 269 186 218 q 53 392 186 390 l 53 471 q 186 592 186 472 q 179 739 186 643 q 172 892 172 835 q 217 1056 172 1008 q 354 1099 258 1099 l 422 1099 l 422 1028 l 382 1028 q 299 994 321 1028 q 276 885 276 963 q 281 749 276 839 q 285 603 285 658 q 192 435 285 460 l 192 429 q 285 260 285 403 q 281 115 285 206 q 276 -22 276 24 q 299 -131 276 -100 q 382 -164 321 -164 l 422 -164 l 422 -236 l 354 -236 z "},"|":{"ha":374,"x_min":143,"x_max":232,"o":"m 143 1164 l 232 1164 l 232 -387 l 143 -387 l 143 1164 z "},"}":{"ha":469,"x_min":47,"x_max":417,"o":"m 47 -164 l 88 -164 q 172 -131 149 -164 q 193 -22 193 -100 q 190 115 193 24 q 186 260 186 206 q 278 429 186 403 l 278 435 q 186 603 186 460 q 190 749 186 658 q 193 885 193 839 q 172 994 193 963 q 88 1028 149 1028 l 47 1028 l 47 1099 l 117 1099 q 253 1056 213 1099 q 297 892 297 1008 q 292 739 297 835 q 285 592 285 643 q 417 471 285 472 l 417 392 q 285 269 285 390 q 292 124 285 218 q 297 -29 297 28 q 253 -193 297 -146 q 117 -236 213 -236 l 47 -236 l 47 -164 z "},"~":{"ha":771,"x_min":56,"x_max":715,"o":"m 522 399 q 371 465 456 399 q 246 531 285 531 q 126 436 178 531 l 56 486 q 250 625 138 625 q 400 560 315 625 q 525 494 486 494 q 643 589 594 494 l 715 538 q 522 399 633 399 z "},"…":{"ha":1389,"x_min":140,"x_max":1249,"o":"m 140 528 q 167 593 140 567 q 232 619 193 619 q 297 593 271 619 q 324 528 324 567 q 297 463 324 489 q 232 436 271 436 q 167 463 193 436 q 140 528 140 489 m 603 528 q 629 593 603 567 q 694 619 656 619 q 760 593 733 619 q 786 528 786 567 q 760 463 786 489 q 694 436 733 436 q 629 463 656 436 q 603 528 603 489 m 1065 528 q 1092 593 1065 567 q 1157 619 1118 619 q 1222 593 1196 619 q 1249 528 1249 567 q 1222 463 1249 489 q 1157 436 1196 436 q 1092 463 1118 436 q 1065 528 1065 489 z "},"一":{"ha":1389,"x_min":67,"x_max":1328,"o":"m 1328 597 l 1328 485 l 67 485 l 67 597 l 1328 597 z "},"丁":{"ha":1389,"x_min":89,"x_max":1300,"o":"m 1300 929 l 793 929 l 793 61 q 711 -74 793 -49 q 389 -94 647 -94 q 339 22 372 -26 q 631 19 535 15 q 676 63 676 21 l 676 929 l 89 929 l 89 1035 l 1300 1035 l 1300 929 z "},"七":{"ha":1389,"x_min":74,"x_max":1319,"o":"m 1054 44 q 1143 94 1121 44 q 1174 297 1163 139 q 1278 249 1215 267 q 1224 11 1264 69 q 1057 -57 1179 -57 l 694 -57 q 519 -15 565 -57 q 472 150 472 28 l 472 571 l 90 510 l 74 613 l 472 676 l 472 1138 l 581 1138 l 581 693 l 1303 810 l 1319 706 l 581 589 l 581 149 q 603 65 581 85 q 699 44 625 44 l 1054 44 z "},"万":{"ha":1389,"x_min":51,"x_max":1299,"o":"m 572 957 q 556 674 567 788 l 1172 674 q 1171 624 1172 638 q 1069 -47 1138 26 q 951 -97 1029 -92 q 707 -92 871 -104 q 671 10 704 -37 q 913 -1 775 -1 q 978 17 958 -1 q 1063 574 1036 69 l 543 574 q 126 -110 471 82 q 51 -29 97 -61 q 399 408 307 107 q 464 957 456 593 l 90 957 l 90 1057 l 1299 1057 l 1299 957 l 572 957 z "},"丈":{"ha":1389,"x_min":93,"x_max":1319,"o":"m 894 793 q 719 192 874 378 q 1319 -10 938 33 q 1258 -107 1278 -54 q 646 115 868 -53 q 157 -97 478 -29 q 99 -7 142 -53 q 563 186 411 56 q 286 704 378 368 l 383 728 q 636 260 460 428 q 785 793 768 422 l 93 793 l 93 893 l 789 893 q 790 1142 790 971 l 901 1142 q 899 893 901 1051 l 1299 893 l 1299 793 l 894 793 z "},"三":{"ha":1389,"x_min":96,"x_max":1292,"o":"m 1217 1028 l 1217 925 l 175 925 l 175 1028 l 1217 1028 m 1108 578 l 1108 474 l 264 474 l 264 578 l 1108 578 m 1292 99 l 1292 -6 l 96 -6 l 96 99 l 1292 99 z "},"上":{"ha":1389,"x_min":76,"x_max":1314,"o":"m 1314 63 l 1314 -40 l 76 -40 l 76 63 l 594 63 l 594 1140 l 703 1140 l 703 715 l 1219 715 l 1219 613 l 703 613 l 703 63 l 1314 63 z "},"下":{"ha":1389,"x_min":82,"x_max":1308,"o":"m 722 957 l 722 710 l 740 731 q 1233 443 1050 582 l 1161 350 q 722 626 1017 468 l 722 -104 l 613 -104 l 613 957 l 82 957 l 82 1060 l 1308 1060 l 1308 957 l 722 957 z "},"不":{"ha":1389,"x_min":67,"x_max":1326,"o":"m 847 961 q 749 808 814 904 l 749 -103 l 639 -103 l 639 669 q 136 265 411 410 q 67 356 117 299 q 715 961 488 567 l 101 961 l 101 1064 l 1288 1064 l 1288 961 l 847 961 m 853 729 q 1326 364 1176 519 l 1244 285 q 776 663 1078 464 l 853 729 z "},"与":{"ha":1389,"x_min":85,"x_max":1232,"o":"m 943 232 l 85 232 l 85 332 l 943 332 l 943 232 m 1232 624 q 1228 574 1231 588 q 1088 -40 1176 44 q 958 -89 1044 -85 q 711 -83 863 -94 q 672 18 706 -26 q 928 8 781 8 q 999 25 982 8 q 1118 526 1074 82 l 318 526 l 232 528 q 364 1132 301 772 l 468 1121 l 439 971 l 1211 971 l 1211 872 l 419 872 l 364 624 l 1232 624 z "},"丐":{"ha":1389,"x_min":103,"x_max":1292,"o":"m 743 964 l 743 754 l 1210 754 l 1210 657 l 743 657 l 743 440 l 1275 440 q 1269 392 1272 407 q 1149 -64 1226 4 q 1014 -108 1107 -104 q 754 -101 903 -111 q 714 -1 750 -49 q 989 -12 844 -12 q 1064 1 1047 -12 q 1158 340 1121 43 l 190 340 q 253 806 226 525 l 358 799 q 315 440 338 585 l 633 440 l 633 964 l 103 964 l 103 1063 l 1292 1063 l 1292 964 l 743 964 z "},"丑":{"ha":1389,"x_min":71,"x_max":1321,"o":"m 563 479 q 517 35 535 175 l 963 35 q 994 479 982 221 l 563 479 m 601 971 q 571 581 592 826 l 1001 581 q 1018 971 1011 763 l 601 971 m 1321 35 l 1321 -67 l 71 -67 l 71 35 l 410 35 q 458 479 438 261 l 190 479 l 190 581 l 468 581 q 496 971 488 789 l 160 971 l 160 1072 l 1126 1072 q 1071 35 1104 422 l 1321 35 z "},"专":{"ha":1389,"x_min":83,"x_max":1285,"o":"m 542 644 l 490 492 l 1089 492 l 1107 497 l 1185 450 q 817 89 1026 286 q 1043 -19 969 25 l 981 -108 q 360 150 747 36 l 418 225 q 714 128 543 190 q 988 394 889 293 l 343 394 q 433 644 375 474 l 83 644 l 83 744 l 465 744 q 518 908 496 836 l 194 908 l 194 1007 l 547 1007 q 589 1160 579 1118 l 699 1160 q 653 1007 676 1079 l 1185 1007 l 1185 908 l 625 908 q 574 744 613 871 l 1285 744 l 1285 644 l 542 644 z "},"且":{"ha":1389,"x_min":79,"x_max":1311,"o":"m 399 54 l 1003 54 l 1003 299 l 399 299 l 399 54 m 399 981 l 399 742 l 1003 742 l 1003 981 l 399 981 m 1003 644 l 399 644 l 399 399 l 1003 399 l 1003 644 m 1311 54 l 1311 -47 l 79 -47 l 79 54 l 297 54 l 297 1081 l 1108 1081 l 1108 54 l 1311 54 z "},"世":{"ha":1389,"x_min":75,"x_max":1315,"o":"m 738 717 l 738 374 l 1003 374 l 1003 717 l 738 717 m 636 278 l 636 717 l 383 717 l 383 85 l 1276 85 l 1276 -17 l 276 -17 l 276 717 l 75 717 l 75 817 l 276 817 l 276 1124 l 383 1124 l 383 817 l 636 817 l 636 1156 l 738 1156 l 738 817 l 1003 817 l 1003 1139 l 1108 1139 l 1108 817 l 1315 817 l 1315 717 l 1108 717 l 1108 278 l 636 278 z "},"丘":{"ha":1389,"x_min":74,"x_max":1317,"o":"m 397 68 l 910 68 l 910 560 l 397 560 l 397 68 m 1317 68 l 1317 -33 l 74 -33 l 74 68 l 293 68 l 293 1007 q 1085 1121 842 1035 l 1147 1032 q 397 917 906 949 l 397 661 l 1247 661 l 1247 560 l 1014 560 l 1014 68 l 1317 68 z "},"丙":{"ha":1389,"x_min":99,"x_max":1290,"o":"m 743 761 l 1242 761 l 1242 31 q 1179 -83 1242 -62 q 926 -101 1128 -101 q 889 1 917 -49 q 1107 0 1021 -4 q 1140 31 1140 1 l 1140 663 l 739 663 q 718 551 732 607 q 1092 235 979 360 l 1018 157 q 686 457 913 279 q 357 129 599 257 q 281 208 331 169 q 629 663 596 360 l 253 663 l 253 -106 l 150 -106 l 150 761 l 633 761 l 633 967 l 99 967 l 99 1068 l 1290 1068 l 1290 967 l 743 967 l 743 761 z "},"业":{"ha":1389,"x_min":89,"x_max":1303,"o":"m 1275 796 q 1036 318 1154 508 l 951 364 q 1182 842 1097 603 l 1275 796 m 307 329 q 118 817 256 518 l 214 846 q 410 368 350 561 l 307 329 m 1303 68 l 1303 -33 l 89 -33 l 89 68 l 475 68 l 475 1144 l 578 1144 l 578 68 l 813 68 l 813 1143 l 915 1143 l 915 68 l 1303 68 z "},"丛":{"ha":1389,"x_min":82,"x_max":1311,"o":"m 1006 1138 q 978 850 994 968 q 1311 206 1076 382 q 1236 114 1265 167 q 939 629 1042 278 q 643 94 854 281 q 557 175 608 138 q 808 564 729 310 q 896 1144 875 776 l 1006 1138 m 624 343 q 436 646 564 472 q 182 106 367 294 q 94 183 144 149 q 383 1149 350 422 l 492 1142 q 460 782 482 956 q 704 418 626 576 l 624 343 m 82 42 l 1310 42 l 1310 -64 l 82 -64 l 82 42 z "},"东":{"ha":1389,"x_min":104,"x_max":1301,"o":"m 463 336 q 192 -50 361 110 q 104 18 163 -21 q 361 363 272 158 l 463 336 m 808 474 l 808 35 q 753 -74 808 -51 q 540 -94 703 -94 q 501 11 533 -44 q 678 10 629 7 q 706 36 706 11 l 706 474 l 400 474 q 251 453 271 474 q 213 560 232 519 q 317 668 247 568 q 447 881 367 736 l 113 881 l 113 979 l 499 979 q 586 1169 542 1060 l 693 1124 q 624 979 658 1044 l 1267 979 l 1267 881 l 571 881 q 378 574 479 714 l 706 574 l 706 776 l 808 776 l 808 574 l 1210 574 l 1208 474 l 808 474 m 1007 365 q 1301 18 1211 169 l 1208 -32 q 922 322 1117 128 l 1007 365 z "},"丝":{"ha":1389,"x_min":76,"x_max":1308,"o":"m 1267 343 q 1258 250 1258 300 q 732 208 783 224 q 700 303 715 267 q 824 404 736 313 q 986 596 878 456 q 719 568 750 582 q 686 664 704 626 q 772 751 717 671 q 988 1158 896 919 l 1083 1119 q 828 679 967 867 l 1054 688 q 1189 894 1117 774 l 1279 846 q 864 324 1094 551 l 1267 343 m 658 338 q 651 246 650 276 q 171 200 207 217 q 135 296 154 260 q 257 401 172 304 q 407 588 307 451 q 153 560 190 574 q 119 656 138 618 q 204 744 150 663 q 414 1156 322 906 l 511 1117 q 260 671 396 860 l 471 679 q 607 903 550 793 l 700 856 q 299 318 517 549 l 658 338 m 1308 71 l 1308 -25 l 76 -25 l 76 71 l 1308 71 z "},"丢":{"ha":1389,"x_min":86,"x_max":1301,"o":"m 1301 432 l 613 432 l 660 413 q 368 76 511 213 l 1035 124 q 881 317 943 244 l 975 356 q 1274 -54 1185 128 l 1172 -100 q 1094 36 1147 -47 q 207 -50 254 -31 l 207 -49 q 174 54 194 3 q 276 126 207 60 q 538 432 394 225 l 86 432 l 86 529 l 642 529 l 642 715 l 200 715 l 200 814 l 642 814 l 642 985 q 188 961 442 968 q 161 1057 183 1008 q 1128 1154 829 1079 l 1206 1064 q 744 994 1019 1019 l 744 814 l 1188 814 l 1188 715 l 744 715 l 744 529 l 1301 529 l 1301 432 z "},"两":{"ha":1389,"x_min":88,"x_max":1303,"o":"m 817 965 l 565 965 l 565 775 l 817 775 l 817 965 m 918 965 l 918 775 l 1246 775 l 1246 25 q 1183 -89 1246 -68 q 928 -107 1132 -107 q 890 -3 917 -49 q 1110 -6 1022 -10 q 1144 28 1144 -4 l 1144 678 l 917 678 q 903 540 911 601 q 1128 242 1065 354 l 1065 163 q 878 428 1006 272 q 689 90 826 228 q 615 163 656 136 q 815 678 800 335 l 564 678 q 550 536 558 599 q 693 339 654 411 l 632 257 q 524 421 596 329 q 336 90 472 225 q 265 163 308 132 q 463 678 447 335 l 247 678 l 247 -107 l 146 -107 l 146 775 l 464 775 l 464 965 l 88 965 l 88 1065 l 1303 1065 l 1303 965 l 918 965 z "},"严":{"ha":1389,"x_min":46,"x_max":1296,"o":"m 599 632 l 786 632 l 786 993 l 599 993 l 599 632 m 1296 540 l 263 540 l 263 404 q 125 -107 263 68 q 46 -36 88 -60 q 161 406 161 113 l 161 632 l 497 632 l 497 993 l 150 993 l 150 1083 l 1253 1083 l 1253 993 l 888 993 l 888 632 l 1296 632 l 1296 540 m 325 663 q 207 918 296 788 l 294 950 q 418 696 388 821 l 325 663 m 949 690 q 1083 954 1033 819 l 1189 919 q 1032 661 1096 750 l 949 690 z "},"丧":{"ha":1389,"x_min":81,"x_max":1329,"o":"m 1228 376 q 928 176 1093 268 q 1329 -8 1089 39 q 1265 -99 1294 -44 q 625 460 793 15 l 411 460 l 411 38 l 744 110 q 739 13 736 53 q 279 -107 314 -86 q 236 -12 268 -54 q 304 81 304 15 l 304 460 l 81 460 l 81 556 l 640 556 l 640 913 l 131 913 l 131 1007 l 640 1007 l 640 1163 l 742 1163 l 742 1007 l 1264 1007 l 1264 913 l 742 913 l 742 556 l 1313 556 l 1313 460 l 725 460 q 865 236 781 329 q 1147 435 1031 332 l 1228 376 m 331 874 q 488 642 443 738 l 393 597 q 243 836 350 701 l 331 874 m 867 626 q 1033 878 967 746 l 1136 838 q 946 590 1019 669 l 867 626 z "},"个":{"ha":1389,"x_min":54,"x_max":1340,"o":"m 640 754 l 746 754 l 746 -106 l 640 -106 l 640 754 m 793 1119 q 756 1058 761 1065 q 1340 614 983 788 q 1265 522 1292 578 q 696 978 931 696 q 131 524 471 689 q 54 617 100 578 q 703 1163 488 804 l 793 1119 z "},"丫":{"ha":1389,"x_min":206,"x_max":1199,"o":"m 282 1139 q 644 828 531 961 l 561 754 q 206 1076 442 901 l 282 1139 m 1199 1090 q 749 665 979 867 l 749 -106 l 640 -106 l 640 707 q 1094 1133 846 883 l 1199 1090 z "},"中":{"ha":1389,"x_min":139,"x_max":1249,"o":"m 1143 446 l 1143 814 l 744 814 l 744 446 l 1143 446 m 638 446 l 638 814 l 240 814 l 240 446 l 638 446 m 1249 915 l 1249 265 l 1143 265 l 1143 344 l 744 344 l 744 -106 l 638 -106 l 638 344 l 240 344 l 240 258 l 139 258 l 139 915 l 638 915 l 638 1163 l 744 1163 l 744 915 l 1249 915 z "},"丰":{"ha":1389,"x_min":79,"x_max":1313,"o":"m 1313 228 l 747 228 l 747 -103 l 640 -103 l 640 228 l 79 228 l 79 329 l 640 329 l 640 553 l 199 553 l 199 651 l 640 651 l 640 857 l 131 857 l 131 958 l 640 958 l 640 1161 l 747 1161 l 747 958 l 1257 958 l 1257 857 l 747 857 l 747 651 l 1193 651 l 1193 553 l 747 553 l 747 329 l 1313 329 l 1313 228 z "},"串":{"ha":1389,"x_min":150,"x_max":1246,"o":"m 1136 215 l 1136 415 l 744 415 l 744 215 l 1136 215 m 636 215 l 636 415 l 254 415 l 254 215 l 636 215 m 636 718 l 636 910 l 308 910 l 308 718 l 636 718 m 744 910 l 744 718 l 1075 718 l 1075 910 l 744 910 m 1246 511 l 1246 67 l 1136 67 l 1136 122 l 744 122 l 744 -106 l 636 -106 l 636 122 l 254 122 l 254 64 l 150 64 l 150 511 l 636 511 l 636 626 l 204 626 l 204 1001 l 636 1001 l 636 1161 l 744 1161 l 744 1001 l 1185 1001 l 1185 626 l 744 626 l 744 511 l 1246 511 z "},"临":{"ha":1389,"x_min":122,"x_max":1315,"o":"m 122 994 l 219 994 l 219 76 l 122 76 l 122 994 m 351 1143 l 453 1143 l 453 -96 l 351 -96 l 351 1143 m 693 426 l 693 64 l 888 64 l 888 426 l 693 426 m 1175 426 l 983 426 l 983 64 l 1175 64 l 1175 426 m 593 525 l 1279 525 l 1279 -100 l 1175 -100 l 1175 -32 l 693 -32 l 693 -106 l 593 -106 l 593 525 m 1043 575 q 807 789 953 674 l 875 850 q 1113 649 1039 725 l 1043 575 m 1315 1000 l 1315 900 l 743 900 q 574 624 665 729 q 485 681 533 657 q 731 1168 647 851 l 832 1149 q 785 1000 813 1079 l 1315 1000 z "},"丸":{"ha":1389,"x_min":53,"x_max":1331,"o":"m 1188 17 q 1222 64 1214 17 q 1233 267 1231 108 q 1331 221 1275 233 q 1297 -18 1324 43 q 1197 -83 1271 -83 l 1064 -83 q 963 -51 989 -83 q 935 75 935 -18 l 935 764 l 619 764 q 563 429 603 569 q 806 236 722 319 l 726 153 q 528 324 658 224 q 129 -110 411 35 q 53 -29 104 -67 q 438 389 329 104 q 185 547 292 489 l 256 619 q 471 492 324 583 q 513 764 503 624 l 124 764 l 124 865 l 519 865 q 524 1157 524 963 l 631 1157 q 625 865 631 994 l 1039 865 l 1039 75 q 1046 28 1039 38 q 1079 17 1053 17 l 1188 17 z "},"丹":{"ha":1389,"x_min":53,"x_max":1313,"o":"m 592 922 q 865 681 763 800 l 788 615 q 519 864 699 725 l 592 922 m 1021 558 l 1021 994 l 381 994 l 381 622 q 379 558 381 581 l 1021 558 m 1313 460 l 1125 460 l 1125 31 q 1057 -90 1125 -67 q 778 -107 1003 -107 q 739 -7 767 -51 q 982 -8 888 -12 q 1021 31 1021 -7 l 1021 460 l 374 460 q 129 -110 342 81 q 53 -36 97 -65 q 272 460 243 136 l 79 460 l 79 558 l 276 558 q 278 624 278 581 l 278 1089 l 1125 1089 l 1125 558 l 1313 558 l 1313 460 z "},"为":{"ha":1389,"x_min":81,"x_max":1247,"o":"m 374 874 q 229 1083 331 967 l 318 1122 q 468 919 415 1015 l 374 874 m 1247 829 l 1246 775 q 1151 -36 1217 42 q 1036 -90 1110 -85 q 817 -87 960 -97 q 781 19 811 -32 q 996 10 872 10 q 1056 31 1036 10 q 1138 726 1111 86 l 661 726 q 161 -87 596 201 q 81 -12 133 -46 q 556 726 492 256 l 119 726 l 119 829 l 567 829 q 572 996 572 907 l 572 1158 l 675 1158 l 675 994 q 671 829 675 917 l 1247 829 m 881 243 q 693 515 824 363 l 778 557 q 971 293 913 410 l 881 243 z "},"主":{"ha":1389,"x_min":83,"x_max":1311,"o":"m 1311 40 l 1311 -61 l 83 -61 l 83 40 l 639 40 l 639 381 l 211 381 l 211 481 l 639 481 l 639 785 l 147 785 l 147 886 l 757 886 q 521 1099 668 990 l 604 1157 q 858 933 774 1035 l 793 886 l 1242 886 l 1242 785 l 749 785 l 749 481 l 1185 481 l 1185 381 l 749 381 l 749 40 l 1311 40 z "},"丽":{"ha":1389,"x_min":79,"x_max":1311,"o":"m 629 21 q 583 -79 629 -58 q 411 -97 542 -100 q 382 1 407 -57 q 506 0 472 -3 q 528 22 528 0 l 528 742 l 251 742 l 251 -106 l 154 -106 l 154 836 l 629 836 l 629 21 m 413 274 q 281 554 375 386 l 361 583 q 497 311 451 431 l 413 274 m 1246 18 q 1200 -82 1246 -60 q 1019 -100 1164 -100 q 989 -3 1011 -49 q 1121 -4 1019 -4 q 1144 18 1144 -4 l 1144 742 l 849 742 l 849 -106 l 751 -106 l 751 836 l 1246 836 l 1246 18 m 1025 267 q 886 539 983 368 l 963 571 q 1106 304 1058 418 l 1025 267 m 1311 1078 l 1311 978 l 79 978 l 79 1078 l 1311 1078 z "},"举":{"ha":1389,"x_min":47,"x_max":1347,"o":"m 676 914 q 553 1132 639 1017 l 639 1169 q 768 956 729 1051 l 676 914 m 746 263 l 1267 263 l 1267 164 l 746 164 l 746 -108 l 643 -108 l 643 164 l 133 164 l 133 263 l 643 263 l 643 432 l 328 432 l 328 529 l 643 529 l 643 699 l 746 699 l 746 529 l 1072 529 l 1072 432 l 746 432 l 746 263 m 979 796 q 1347 503 1122 594 q 1278 419 1304 467 q 874 796 1024 540 l 524 796 q 114 408 382 532 q 47 488 86 454 q 418 796 285 585 l 82 796 l 82 890 l 363 890 q 222 1089 317 982 l 310 1131 q 460 928 413 1024 l 386 890 l 883 890 q 1054 1144 989 1017 l 1163 1108 q 997 890 1076 982 l 1310 890 l 1310 796 l 979 796 z "},"乃":{"ha":1389,"x_min":46,"x_max":1238,"o":"m 1238 581 q 1236 529 1238 544 q 1150 -22 1210 38 q 1028 -72 1111 -65 q 783 -68 957 -78 q 740 39 776 -10 q 989 28 861 28 q 1054 44 1036 28 q 1124 479 1103 88 l 746 479 q 885 967 815 678 l 467 967 l 467 925 q 126 -107 467 239 q 46 -25 92 -61 q 363 925 363 293 l 363 967 l 139 967 l 139 1067 l 1022 1067 q 897 581 965 818 l 1238 581 z "},"久":{"ha":1389,"x_min":53,"x_max":1338,"o":"m 949 910 q 822 556 903 722 q 1338 -14 981 136 q 1264 -104 1301 -42 q 760 443 940 49 q 147 -110 533 67 q 68 -19 114 -53 q 814 835 639 224 l 451 835 q 144 425 317 579 q 53 500 106 464 q 471 1161 331 724 l 579 1136 q 501 938 547 1038 l 856 938 l 875 943 l 949 910 z "},"么":{"ha":1389,"x_min":90,"x_max":1310,"o":"m 722 1107 q 169 499 494 749 q 90 574 131 542 q 615 1146 424 813 l 722 1107 m 1213 -90 q 1133 57 1179 -18 q 190 -33 224 -21 q 146 72 175 19 q 332 207 197 83 q 918 872 622 449 l 1024 822 q 360 94 707 393 l 1072 151 q 881 413 975 294 l 972 458 q 1310 -36 1204 178 l 1213 -90 z "},"义":{"ha":1389,"x_min":56,"x_max":1332,"o":"m 711 797 q 575 1133 679 919 l 664 1167 q 806 836 768 958 l 711 797 m 1203 1026 q 774 301 1044 576 q 1332 -12 1021 82 q 1261 -106 1290 -49 q 696 226 939 0 q 113 -106 457 15 q 56 -17 90 -60 q 624 299 392 94 q 207 972 360 574 l 301 1001 q 700 372 443 629 q 1097 1060 961 635 l 1203 1026 z "},"之":{"ha":1389,"x_min":74,"x_max":1332,"o":"m 724 889 q 579 1122 682 979 l 668 1168 q 818 943 778 1029 l 724 889 m 1203 842 q 440 125 921 422 q 476 100 463 108 q 832 35 579 35 q 1332 60 1092 35 q 1301 -51 1304 0 q 828 -67 1075 -67 q 456 8 574 -67 q 325 89 329 89 q 150 -83 272 89 l 74 11 q 326 186 235 186 q 344 183 333 186 q 1026 788 757 422 l 144 788 l 144 888 l 1103 888 l 1125 894 l 1203 842 z "},"乌":{"ha":1389,"x_min":85,"x_max":1274,"o":"m 1049 181 l 85 181 l 85 274 l 1049 274 l 1049 181 m 1274 475 q 1193 -53 1246 4 q 1089 -97 1158 -93 q 885 -94 1007 -103 q 851 3 879 -37 q 1051 -6 954 -6 q 1107 10 1090 -6 q 1171 428 1150 51 l 269 428 l 269 1019 l 539 1019 q 601 1169 585 1113 l 710 1153 q 640 1019 664 1058 l 1143 1019 l 1139 972 q 1072 661 1117 707 q 978 628 1042 631 q 799 632 893 625 q 775 719 796 678 q 939 711 860 711 q 988 724 974 711 q 1031 925 1014 754 l 369 925 l 369 524 l 1274 524 l 1274 475 z "},"乍":{"ha":1389,"x_min":61,"x_max":1304,"o":"m 663 825 l 663 622 l 1225 622 l 1225 524 l 663 524 l 663 313 l 1244 313 l 1244 211 l 663 211 l 663 -107 l 556 -107 l 556 825 l 385 825 q 156 525 278 647 q 61 590 118 557 q 432 1165 294 800 l 538 1138 q 442 926 501 1043 l 1304 926 l 1304 825 l 663 825 z "},"乎":{"ha":1389,"x_min":81,"x_max":1313,"o":"m 1313 406 l 761 406 l 761 33 q 686 -89 761 -67 q 400 -108 631 -108 q 354 -3 383 -50 q 611 -6 432 -6 q 653 35 653 -4 l 653 406 l 81 406 l 81 510 l 653 510 l 653 969 q 194 943 435 950 q 169 1036 190 981 q 1135 1142 829 1061 l 1189 1049 q 761 981 1011 1004 l 761 510 l 1313 510 l 1313 406 m 324 899 q 458 599 425 726 l 364 561 q 233 868 333 686 l 324 899 m 933 599 q 1083 924 1026 754 l 1193 886 q 1017 564 1074 650 l 933 599 z "},"乏":{"ha":1389,"x_min":71,"x_max":1339,"o":"m 1236 1050 q 188 940 867 960 q 163 1033 183 979 q 1167 1136 850 1058 l 1236 1050 m 674 703 q 547 906 622 797 l 636 949 q 767 754 722 829 l 674 703 m 1206 636 q 471 96 932 308 q 836 25 576 25 q 1339 50 1096 25 q 1307 -61 1310 -3 q 831 -76 1032 -76 q 444 7 564 -76 q 311 99 307 99 q 151 -93 268 99 l 71 8 q 314 197 225 197 q 389 160 344 197 q 1018 583 757 315 l 171 583 l 171 685 l 1108 685 l 1131 690 l 1206 636 z "},"乐":{"ha":1389,"x_min":60,"x_max":1329,"o":"m 431 354 q 143 -19 307 144 q 60 47 113 11 q 331 388 226 197 l 431 354 m 775 507 l 775 28 q 715 -83 775 -62 q 481 -103 663 -106 q 444 0 469 -49 q 638 -1 585 -4 q 671 29 671 0 l 671 507 l 346 507 q 183 489 203 507 q 149 585 174 529 q 192 674 171 593 q 242 1056 240 844 q 1151 1146 874 1072 l 1211 1056 q 343 965 897 978 q 281 610 324 768 l 671 610 l 671 886 l 775 886 l 775 610 l 1281 610 l 1281 507 l 775 507 m 1049 386 q 1329 35 1243 175 l 1233 -15 q 960 344 1142 146 l 1049 386 z "},"乒":{"ha":1389,"x_min":75,"x_max":1317,"o":"m 594 179 q 171 -97 408 18 q 99 -22 136 -51 q 501 239 343 89 l 594 179 m 418 369 l 889 369 l 889 692 l 418 692 l 418 369 m 1317 369 l 1317 271 l 75 271 l 75 369 l 314 369 l 314 1074 q 1114 1157 850 1101 l 1168 1063 q 418 985 872 1007 l 418 789 l 1239 789 l 1239 692 l 992 692 l 992 369 l 1317 369 z "},"乓":{"ha":1389,"x_min":75,"x_max":1317,"o":"m 893 229 q 1297 -31 1150 86 l 1215 -104 q 815 165 1064 21 l 893 229 m 418 369 l 889 369 l 889 692 l 418 692 l 418 369 m 1317 369 l 1317 271 l 75 271 l 75 369 l 314 369 l 314 1074 q 1114 1157 850 1101 l 1168 1063 q 418 985 872 1007 l 418 789 l 1239 789 l 1239 692 l 992 692 l 992 369 l 1317 369 z "},"乔":{"ha":1389,"x_min":47,"x_max":1340,"o":"m 415 522 l 518 522 l 518 365 q 469 115 518 214 q 222 -108 401 -24 q 143 -32 194 -65 q 371 160 308 43 q 415 368 415 242 l 415 522 m 856 524 l 960 524 l 960 -106 l 856 -106 l 856 524 m 921 721 q 1340 443 1072 524 q 1269 356 1301 408 q 806 721 967 463 l 579 721 q 118 346 417 476 q 47 432 85 401 q 453 721 303 531 l 81 721 l 81 821 l 521 821 q 597 988 565 894 q 178 969 403 974 q 154 1057 175 1015 q 1125 1140 819 1074 l 1200 1058 q 714 996 1022 1019 q 639 821 686 914 l 1310 821 l 1310 721 l 921 721 z "},"乖":{"ha":1389,"x_min":74,"x_max":1325,"o":"m 390 711 l 489 711 l 489 149 l 390 149 l 390 268 q 119 168 258 218 l 74 263 l 390 357 l 390 496 l 104 496 l 104 588 l 390 588 l 390 711 m 744 771 l 744 -107 l 639 -107 l 639 771 l 86 771 l 86 867 l 639 867 l 639 1004 q 192 983 422 990 q 168 1069 190 1017 q 1115 1153 819 1092 l 1186 1068 q 744 1013 1017 1036 l 744 867 l 1306 867 l 1306 771 l 744 771 m 1188 247 q 1224 272 1215 247 q 1236 392 1233 299 q 1325 351 1269 365 q 1290 196 1317 236 q 1197 156 1264 156 l 1026 156 q 918 183 946 156 q 890 290 890 211 l 890 710 l 990 710 l 990 535 q 1215 661 1128 596 l 1289 586 q 990 446 1168 511 l 990 290 q 999 256 990 263 q 1040 247 1008 247 l 1188 247 z "},"乘":{"ha":1389,"x_min":53,"x_max":1333,"o":"m 988 740 l 988 599 q 1185 686 1104 643 l 1247 610 q 988 514 1122 556 l 988 401 q 996 372 988 378 q 1033 365 1004 365 l 1171 365 q 1203 383 1196 365 q 1213 468 1211 401 q 1300 433 1246 442 q 1265 308 1290 342 q 1182 276 1240 276 l 1022 276 q 918 303 944 276 q 892 401 892 328 l 892 740 l 988 740 m 92 389 q 397 435 151 396 l 397 557 l 132 557 l 132 642 l 397 642 l 397 738 l 493 738 l 493 289 l 397 289 l 397 353 l 113 300 l 92 389 m 746 460 q 1333 22 940 138 q 1265 -64 1300 -10 q 746 321 954 44 l 746 -104 l 640 -104 l 640 314 q 119 -58 433 47 q 53 28 88 -3 q 640 458 444 139 l 640 778 l 93 778 l 93 872 l 640 872 l 640 1000 q 206 979 424 983 q 182 1067 201 1019 q 1124 1154 813 1089 l 1171 1064 q 746 1008 1013 1032 l 746 872 l 1293 872 l 1293 778 l 746 778 l 746 460 z "},"乙":{"ha":1389,"x_min":129,"x_max":1299,"o":"m 1060 54 q 1160 108 1135 54 q 1193 340 1186 164 q 1299 301 1236 315 q 1232 18 1285 90 q 1050 -50 1182 -50 l 426 -50 q 129 142 129 -50 q 236 358 129 235 q 879 943 393 540 l 138 943 l 138 1047 l 1025 1047 l 1050 1054 l 1122 1003 q 1101 988 1115 993 q 364 349 550 539 q 239 150 239 218 q 415 54 239 54 l 1060 54 z "},"九":{"ha":1389,"x_min":65,"x_max":1328,"o":"m 1178 25 q 1218 69 1208 25 q 1232 256 1228 110 q 1328 210 1267 228 q 1293 -12 1321 44 q 1186 -74 1264 -74 l 1029 -74 q 917 -40 946 -74 q 888 86 888 -7 l 888 749 l 579 749 q 147 -108 528 125 q 65 -28 117 -61 q 469 749 426 178 l 107 749 l 107 850 l 476 850 q 481 1157 481 953 l 592 1157 q 585 850 592 979 l 993 850 l 993 86 q 1001 36 993 47 q 1042 25 1011 25 l 1178 25 z "},"乞":{"ha":1389,"x_min":57,"x_max":1299,"o":"m 371 883 q 147 624 257 719 q 57 699 94 674 q 403 1164 279 871 l 508 1132 q 433 985 481 1064 l 1286 985 l 1286 883 l 371 883 m 1090 22 q 1171 58 1150 22 q 1197 221 1192 96 q 1299 186 1244 196 q 1240 -31 1285 22 q 1082 -79 1199 -79 l 465 -79 q 211 76 211 -79 q 294 233 211 151 q 797 594 419 357 l 282 594 l 282 694 l 974 694 l 997 699 l 1072 646 q 1049 629 1054 632 q 318 86 318 186 q 453 24 318 24 l 1090 22 z "},"也":{"ha":1389,"x_min":47,"x_max":1317,"o":"m 1053 17 q 1179 64 1147 17 q 1221 261 1207 108 q 1317 219 1258 235 q 1253 -12 1300 46 q 1054 -78 1200 -78 l 568 -78 q 358 -33 413 -78 q 301 140 301 11 l 301 574 l 75 503 l 47 596 l 301 674 l 301 1068 l 401 1068 l 401 704 l 689 793 l 689 1160 l 790 1160 l 790 824 l 1113 924 l 1142 946 l 1214 914 l 1208 894 q 1164 386 1201 492 q 1053 282 1129 293 q 890 275 992 272 q 864 371 883 338 q 1003 367 913 367 q 1075 432 1054 367 q 1107 824 1103 511 l 790 725 l 790 189 l 689 189 l 689 693 l 401 604 l 401 138 q 432 40 401 64 q 564 17 464 17 l 1053 17 z "},"习":{"ha":1389,"x_min":147,"x_max":1229,"o":"m 994 365 q 185 85 981 361 l 147 189 q 975 463 444 278 l 994 365 m 394 847 q 763 569 651 672 l 689 490 q 325 781 576 603 l 394 847 m 1229 1003 q 1157 -26 1217 54 q 1042 -92 1118 -86 q 819 -90 976 -99 q 786 8 819 -39 q 1006 1 883 1 q 1061 24 1044 1 q 1125 961 1114 81 l 169 961 l 169 1061 l 1229 1061 l 1229 1003 z "},"乡":{"ha":1389,"x_min":106,"x_max":1233,"o":"m 1233 596 q 821 125 1100 296 q 161 -101 572 -26 q 106 3 149 -57 q 986 403 733 99 q 213 325 279 347 q 178 428 203 376 q 382 514 238 436 q 714 718 500 572 q 258 668 306 686 q 224 774 244 721 q 344 838 263 778 q 696 1157 517 949 l 792 1097 q 429 786 607 908 l 847 813 q 1019 953 963 903 l 1113 885 q 475 460 808 632 l 1057 501 q 1124 633 1099 572 l 1233 596 z "},"书":{"ha":1389,"x_min":89,"x_max":1317,"o":"m 1253 854 q 994 1051 1165 939 l 1056 1118 q 1317 932 1224 1014 l 1253 854 m 686 549 l 1007 549 l 1007 819 l 686 819 l 686 549 m 1308 549 q 1304 500 1307 515 q 1222 72 1276 128 q 1114 31 1185 35 q 903 33 1049 26 q 869 132 900 85 q 1078 124 957 124 q 1136 138 1119 124 q 1199 450 1175 172 l 686 450 l 686 -106 l 583 -106 l 583 450 l 89 450 l 89 549 l 583 549 l 583 819 l 181 819 l 181 919 l 583 919 l 583 1157 l 686 1157 l 686 919 l 1108 919 l 1108 549 l 1308 549 z "},"买":{"ha":1389,"x_min":79,"x_max":1297,"o":"m 1036 774 q 1142 972 1094 864 l 160 972 l 160 1071 l 1176 1071 l 1176 1072 l 1196 1072 l 1213 1078 l 1288 1047 q 1121 732 1197 840 l 1036 774 m 579 668 q 310 822 482 749 l 365 892 q 638 747 531 828 l 579 668 m 425 475 q 158 622 332 550 l 214 692 q 483 553 390 622 l 425 475 m 792 242 q 1288 -24 1099 110 l 1222 -103 q 739 169 1033 38 l 792 242 m 1297 419 l 1297 322 l 753 322 q 556 54 694 154 q 133 -110 407 -54 q 79 -22 117 -65 q 646 322 529 60 l 99 322 l 99 419 l 679 419 q 721 888 711 550 l 824 888 q 782 419 814 563 l 1297 419 z "},"乱":{"ha":1389,"x_min":60,"x_max":1331,"o":"m 625 357 l 229 357 l 229 74 l 625 74 l 625 357 m 476 776 l 782 776 l 782 682 l 476 682 l 476 450 l 726 450 l 726 -71 l 625 -71 l 625 -19 l 229 -19 l 229 -79 l 132 -79 l 132 450 l 375 450 l 375 682 l 60 682 l 60 776 l 375 776 l 375 986 q 111 953 253 967 q 82 1036 103 999 q 675 1150 490 1082 l 754 1072 q 476 1004 644 1033 l 476 776 m 1171 8 q 1221 61 1208 8 q 1238 268 1232 107 q 1331 222 1278 235 q 1294 -18 1322 43 q 1179 -86 1263 -86 l 997 -86 q 879 -50 910 -86 q 847 92 847 -12 l 847 1146 l 949 1146 l 949 90 q 960 24 949 39 q 1008 8 971 8 l 1171 8 z "},"乳":{"ha":1389,"x_min":68,"x_max":1329,"o":"m 781 286 l 493 253 l 493 4 q 443 -90 493 -69 q 247 -106 403 -106 q 215 -14 242 -75 q 368 -15 326 -18 q 393 7 393 -14 l 393 243 q 79 208 413 246 l 68 307 l 393 338 l 393 428 q 583 593 483 488 l 143 593 l 143 682 l 664 682 l 688 689 l 756 636 q 493 394 647 507 l 493 347 l 779 378 l 781 286 m 239 690 q 139 928 213 783 l 222 961 q 328 728 288 846 l 239 690 m 432 982 q 511 747 490 831 l 422 715 q 347 957 403 803 l 432 982 m 547 732 q 682 1019 628 863 l 781 981 q 629 700 685 783 l 547 732 m 794 1082 q 129 993 572 1018 q 101 1078 125 1028 q 724 1164 531 1106 l 794 1082 m 1176 22 q 1222 74 1211 22 q 1238 281 1233 121 q 1329 235 1281 247 q 1294 -3 1322 58 q 1183 -69 1264 -69 l 1013 -69 q 897 -33 928 -69 q 868 103 868 1 l 868 1125 l 969 1125 l 969 101 q 981 36 969 51 q 1025 22 990 22 l 1176 22 z "},"乾":{"ha":1389,"x_min":67,"x_max":1336,"o":"m 836 854 q 722 679 778 746 q 638 739 693 707 q 853 1156 776 893 l 950 1131 q 883 953 913 1017 l 1317 953 l 1317 854 l 836 854 m 207 410 l 532 410 l 532 543 l 207 543 l 207 410 m 207 611 l 532 611 l 532 742 l 207 742 l 207 611 m 419 200 l 661 200 l 661 115 l 419 115 l 419 -94 l 319 -94 l 319 115 l 67 115 l 67 200 l 319 200 l 319 328 l 114 328 l 114 824 l 317 824 l 317 949 l 78 949 l 78 1033 l 317 1033 l 317 1163 l 418 1163 l 418 1033 l 660 1033 l 660 949 l 418 949 l 418 824 l 628 824 l 628 328 l 419 328 l 419 200 m 1185 14 q 1232 47 1221 14 q 1247 207 1244 83 q 1336 174 1294 179 q 1294 -39 1326 13 q 1183 -85 1265 -85 l 894 -85 q 715 43 715 -85 q 1053 569 715 161 l 744 569 l 744 665 l 1147 665 l 1169 667 l 1238 640 q 1225 618 1236 636 q 817 57 817 138 q 894 14 817 14 l 1185 14 z "},"了":{"ha":1389,"x_min":139,"x_max":1236,"o":"m 1236 1001 q 753 629 1039 783 l 753 29 q 681 -87 753 -67 q 396 -106 624 -106 q 354 -3 386 -57 q 608 -4 510 -8 q 646 29 646 -3 l 646 681 q 1032 953 850 781 l 139 953 l 139 1054 l 1131 1054 l 1156 1061 l 1236 1001 z "},"予":{"ha":1389,"x_min":79,"x_max":1319,"o":"m 1319 615 q 1071 278 1181 388 l 988 331 q 1150 547 1072 422 l 756 547 l 756 24 q 690 -85 756 -64 q 440 -101 638 -101 q 401 -1 432 -65 q 618 -3 532 -7 q 651 25 651 -1 l 651 547 l 79 547 l 79 646 l 799 646 q 399 831 622 735 l 451 907 q 703 801 586 853 q 967 992 849 885 l 210 992 l 210 1088 l 1067 1088 l 1090 1093 l 1165 1036 q 804 754 1014 885 q 954 682 889 717 l 931 646 l 1217 646 l 1238 654 l 1319 615 z "},"争":{"ha":1389,"x_min":64,"x_max":1331,"o":"m 1043 464 l 738 464 l 738 303 l 1043 303 l 1043 464 m 738 558 l 1043 558 l 1043 710 l 738 710 l 738 558 m 467 957 q 314 803 396 872 l 726 803 q 858 957 790 861 l 467 957 m 1331 464 l 1144 464 l 1144 208 l 738 208 l 738 24 q 672 -87 738 -65 q 424 -104 619 -107 q 383 -6 417 -75 q 599 -7 543 -10 q 633 25 633 -6 l 633 208 l 200 208 l 200 303 l 633 303 l 633 464 l 64 464 l 64 558 l 633 558 l 633 710 l 256 710 l 256 757 l 186 707 q 108 778 153 750 q 492 1164 361 932 l 603 1144 q 539 1047 583 1110 l 928 1047 l 944 1053 l 1018 1003 q 853 803 957 904 l 1144 803 l 1144 558 l 1331 558 l 1331 464 z "},"事":{"ha":1389,"x_min":71,"x_max":1321,"o":"m 1075 288 l 742 288 l 742 183 l 1075 183 l 1075 288 m 742 369 l 1075 369 l 1075 467 l 742 467 l 742 369 m 639 713 l 639 813 l 340 813 l 340 713 l 639 713 m 742 813 l 742 713 l 1053 713 l 1053 813 l 742 813 m 1321 288 l 1178 288 l 1178 42 l 1075 42 l 1075 104 l 742 104 l 742 8 q 681 -94 742 -72 q 450 -111 633 -111 q 414 -24 442 -71 q 604 -25 456 -25 q 639 8 639 -24 l 639 104 l 190 104 l 190 183 l 639 183 l 639 288 l 71 288 l 71 369 l 639 369 l 639 467 l 203 467 l 203 543 l 639 543 l 639 640 l 242 640 l 242 885 l 639 885 l 639 965 l 97 965 l 97 1050 l 639 1050 l 639 1161 l 742 1161 l 742 1050 l 1294 1050 l 1294 965 l 742 965 l 742 885 l 1156 885 l 1156 640 l 742 640 l 742 543 l 1178 543 l 1178 369 l 1321 369 l 1321 288 z "},"二":{"ha":1389,"x_min":83,"x_max":1307,"o":"m 1190 963 l 1190 853 l 200 853 l 200 963 l 1190 963 m 1307 144 l 1307 32 l 83 32 l 83 144 l 1307 144 z "},"于":{"ha":1389,"x_min":81,"x_max":1310,"o":"m 1310 510 l 761 510 l 761 44 q 689 -81 761 -57 q 407 -100 633 -100 q 363 7 394 -50 q 614 6 544 3 q 654 44 654 7 l 654 510 l 81 510 l 81 611 l 654 611 l 654 961 l 176 961 l 176 1063 l 1213 1063 l 1213 961 l 761 961 l 761 611 l 1310 611 l 1310 510 z "},"亏":{"ha":1389,"x_min":81,"x_max":1304,"o":"m 1197 985 l 189 985 l 189 1082 l 1197 1082 l 1197 985 m 524 657 q 467 408 488 490 l 1153 408 l 1149 361 q 1054 -65 1115 -7 q 925 -108 1014 -104 q 663 -103 826 -114 q 621 -4 658 -50 q 896 -15 751 -15 q 967 -3 949 -15 q 1040 313 1013 32 l 344 313 l 344 314 l 329 314 q 408 657 372 454 l 81 657 l 81 754 l 1304 754 l 1304 657 l 524 657 z "},"云":{"ha":1389,"x_min":82,"x_max":1308,"o":"m 1165 946 l 233 946 l 233 1050 l 1165 1050 l 1165 946 m 654 557 q 339 81 504 278 l 1035 133 q 861 386 964 244 l 953 435 q 1276 -51 1183 128 l 1181 -110 q 1096 39 1133 -21 q 200 -56 251 -35 q 161 58 181 13 q 267 161 196 68 q 511 557 374 283 l 82 557 l 82 661 l 1308 661 l 1308 557 l 654 557 z "},"互":{"ha":1389,"x_min":78,"x_max":1317,"o":"m 918 365 q 954 663 929 442 l 474 663 q 413 365 435 464 l 918 365 m 1317 44 l 1317 -57 l 78 -57 l 78 44 l 872 44 l 906 268 l 275 268 q 422 982 353 561 l 124 982 l 124 1082 l 1275 1082 l 1275 982 l 532 982 q 492 760 518 897 l 975 760 l 994 765 l 1071 756 q 979 44 1047 508 l 1317 44 z "},"五":{"ha":1389,"x_min":83,"x_max":1310,"o":"m 615 525 q 533 71 574 263 l 921 71 q 964 525 944 296 l 615 525 m 1310 71 l 1310 -31 l 83 -31 l 83 71 l 421 71 q 506 525 457 233 l 247 525 l 247 626 l 522 626 q 567 925 547 782 l 171 925 l 171 1026 l 1210 1026 l 1210 925 l 676 925 q 631 626 644 710 l 981 626 l 999 632 l 1078 624 q 1028 71 1061 357 l 1310 71 z "},"井":{"ha":1389,"x_min":90,"x_max":1301,"o":"m 890 446 l 890 775 l 507 775 l 507 619 q 500 446 507 517 l 890 446 m 1301 343 l 996 343 l 996 -106 l 890 -106 l 890 343 l 488 343 q 192 -119 436 43 q 104 -44 150 -72 q 376 343 326 97 l 90 343 l 90 446 l 393 446 q 400 621 400 517 l 400 775 l 133 775 l 133 876 l 400 876 l 400 1156 l 507 1156 l 507 876 l 890 876 l 890 1157 l 996 1157 l 996 876 l 1269 876 l 1269 775 l 996 775 l 996 446 l 1301 446 l 1301 343 z "},"亚":{"ha":1389,"x_min":68,"x_max":1321,"o":"m 574 75 l 797 75 l 797 976 l 574 976 l 574 75 m 1321 75 l 1321 -25 l 68 -25 l 68 75 l 464 75 l 464 976 l 106 976 l 106 1078 l 1289 1078 l 1289 976 l 907 976 l 907 75 l 1321 75 m 211 779 q 404 322 343 511 l 307 282 q 121 747 254 468 l 211 779 m 950 324 q 1160 778 1079 543 l 1258 744 q 1040 289 1158 492 l 950 324 z "},"些":{"ha":1389,"x_min":63,"x_max":1322,"o":"m 928 463 q 796 494 831 463 q 763 618 763 526 l 763 1161 l 865 1161 l 865 886 q 1174 1026 1068 958 l 1256 947 q 865 794 1113 869 l 865 618 q 878 572 865 582 q 939 561 892 561 l 1156 561 q 1210 593 1197 561 q 1226 742 1221 625 q 1322 699 1261 715 q 1281 511 1311 558 q 1164 463 1249 463 l 928 463 m 238 331 l 1168 331 l 1168 232 l 238 232 l 238 331 m 700 503 q 75 422 331 453 l 63 522 l 154 532 l 154 1010 l 250 1010 l 250 543 l 372 558 l 372 1161 l 474 1161 l 474 924 l 689 924 l 689 829 l 474 829 l 474 571 l 699 596 l 700 503 m 83 29 l 1307 29 l 1307 -72 l 83 -72 l 83 29 z "},"亡":{"ha":1389,"x_min":82,"x_max":1307,"o":"m 388 769 l 388 79 l 1225 79 l 1225 -24 l 281 -24 l 281 769 l 82 769 l 82 871 l 700 871 q 590 1129 672 983 l 694 1164 q 814 907 783 1014 l 710 871 l 1307 871 l 1307 769 l 388 769 z "},"亢":{"ha":1389,"x_min":60,"x_max":1336,"o":"m 693 918 q 597 1144 669 1003 l 697 1179 q 801 956 769 1054 l 693 918 m 1300 808 l 96 808 l 96 907 l 1300 907 l 1300 808 m 1151 11 q 1215 21 1194 11 q 1244 69 1239 31 q 1253 261 1250 117 q 1336 217 1283 232 q 1318 4 1333 51 q 1258 -67 1303 -47 q 1151 -82 1222 -82 l 1035 -82 q 921 -58 961 -82 q 876 85 876 -31 l 876 561 l 506 561 l 506 463 q 124 -115 506 61 q 60 -29 99 -62 q 401 465 401 126 l 401 660 l 982 660 l 982 82 q 1001 18 982 26 q 1056 11 1019 11 l 1151 11 z "},"交":{"ha":1389,"x_min":69,"x_max":1325,"o":"m 1289 869 l 97 869 l 97 971 l 674 971 q 582 1142 649 1033 l 678 1175 q 781 996 749 1075 l 718 971 l 1289 971 l 1289 869 m 938 829 q 1294 529 1182 663 l 1210 463 q 858 769 1094 608 l 938 829 m 543 788 q 182 467 403 610 q 103 544 143 513 q 444 826 318 667 l 543 788 m 1008 564 q 776 213 924 354 q 1325 -4 994 47 q 1261 -97 1288 -42 q 699 146 915 -31 q 132 -110 492 -18 q 69 -17 110 -60 q 624 214 417 56 q 399 557 485 349 l 490 585 q 699 278 561 407 q 903 593 836 408 l 1008 564 z "},"亥":{"ha":1389,"x_min":85,"x_max":1310,"o":"m 1200 542 q 893 226 1082 369 q 1282 -26 1149 82 l 1190 -100 q 803 165 1057 15 q 147 -106 525 -14 q 85 -10 122 -49 q 1104 596 817 158 l 1200 542 m 1310 982 l 1310 882 l 660 882 q 440 638 550 751 l 818 657 q 925 785 879 718 l 1019 738 q 189 189 760 361 q 125 283 168 239 q 703 556 464 374 q 257 513 303 528 q 229 619 251 569 q 322 663 288 632 q 526 882 376 708 l 85 882 l 85 982 l 675 982 q 592 1139 644 1050 l 693 1169 q 796 990 764 1072 l 771 982 l 1310 982 z "},"亦":{"ha":1389,"x_min":85,"x_max":1307,"o":"m 697 925 q 583 1138 656 1029 l 681 1169 q 799 964 769 1042 l 697 925 m 938 821 l 938 28 q 878 -85 938 -62 q 639 -104 825 -104 q 603 0 628 -49 q 801 -1 749 -4 q 833 29 833 0 l 833 821 l 601 821 l 601 661 q 546 267 601 425 q 251 -114 464 38 q 174 -37 221 -71 q 449 308 374 100 q 499 661 499 449 l 499 821 l 89 821 l 89 922 l 1301 922 l 1301 821 l 938 821 m 372 654 q 175 221 303 386 q 85 279 138 253 q 268 674 206 419 l 372 654 m 1093 675 q 1307 229 1250 432 l 1210 186 q 1004 639 1157 393 l 1093 675 z "},"产":{"ha":1389,"x_min":56,"x_max":1285,"o":"m 1249 896 l 157 896 l 157 994 l 676 994 q 592 1135 643 1069 l 693 1164 q 797 997 768 1071 l 790 994 l 1249 994 l 1249 896 m 485 647 q 368 847 451 733 l 457 883 q 579 689 538 783 l 485 647 m 1285 543 l 283 543 l 283 451 q 140 -117 283 82 q 56 -44 96 -68 q 178 454 178 124 l 178 643 l 842 643 q 954 876 911 758 l 1065 840 q 946 643 1000 725 l 1285 643 l 1285 543 z "},"亩":{"ha":1389,"x_min":89,"x_max":1299,"o":"m 293 629 l 293 403 l 643 403 l 643 629 l 293 629 m 1089 629 l 744 629 l 744 403 l 1089 403 l 1089 629 m 1089 68 l 1089 307 l 744 307 l 744 68 l 1089 68 m 293 68 l 643 68 l 643 307 l 293 307 l 293 68 m 192 728 l 1193 728 l 1193 -101 l 1089 -101 l 1089 -31 l 293 -31 l 293 -106 l 192 -106 l 192 728 m 1299 972 l 1299 872 l 89 872 l 89 972 l 675 972 q 583 1138 640 1046 l 681 1169 q 788 982 756 1063 l 764 972 l 1299 972 z "},"享":{"ha":1389,"x_min":81,"x_max":1310,"o":"m 1293 951 l 93 951 l 93 1042 l 650 1042 q 601 1151 626 1104 l 704 1172 q 765 1042 739 1113 l 1293 1042 l 1293 951 m 369 661 l 1022 661 l 1022 786 l 369 786 l 369 661 m 268 585 l 268 863 l 1129 863 l 1129 585 l 268 585 m 1310 160 l 746 160 l 746 -1 q 681 -97 746 -76 q 429 -110 633 -110 q 394 -24 424 -82 q 606 -25 550 -28 q 639 1 639 -24 l 639 160 l 81 160 l 81 250 l 639 250 l 639 333 q 921 417 794 367 l 210 417 l 210 501 l 1085 501 l 1107 507 l 1176 449 q 746 286 1003 349 l 746 250 l 1310 250 l 1310 160 z "},"京":{"ha":1389,"x_min":78,"x_max":1297,"o":"m 429 249 q 154 -62 315 71 q 78 1 114 -25 q 331 283 247 138 l 429 249 m 367 464 l 1031 464 l 1031 686 l 367 686 l 367 464 m 753 372 l 753 13 q 692 -93 753 -71 q 443 -108 642 -111 q 408 -10 435 -65 q 614 -11 560 -14 q 646 15 646 -11 l 646 372 l 265 372 l 265 776 l 1138 776 l 1138 372 l 753 372 m 1033 285 q 1293 -7 1214 106 l 1203 -68 q 949 233 1111 74 l 1033 285 m 1297 989 l 1297 888 l 94 888 l 94 989 l 663 989 q 578 1140 618 1079 l 675 1171 q 783 989 740 1081 l 1297 989 z "},"亭":{"ha":1389,"x_min":88,"x_max":1304,"o":"m 276 339 l 1121 339 l 1121 253 l 774 253 l 774 14 q 708 -87 774 -68 q 447 -103 658 -103 q 413 -8 439 -62 q 631 -10 551 -14 q 664 17 664 -8 l 664 253 l 276 253 l 276 339 m 106 521 l 1288 521 l 1288 274 l 1190 274 l 1190 439 l 199 439 l 199 274 l 106 274 l 106 521 m 1011 801 l 379 801 l 379 685 l 1011 685 l 1011 801 m 1118 875 l 1118 610 l 278 610 l 278 875 l 1118 875 m 1304 1044 l 1304 956 l 88 956 l 88 1044 l 661 1044 q 593 1142 625 1103 l 692 1169 q 781 1044 746 1106 l 1304 1044 z "},"亮":{"ha":1389,"x_min":85,"x_max":1299,"o":"m 1153 6 q 1190 32 1182 6 q 1203 157 1200 60 q 1297 118 1240 129 q 1261 -43 1289 -1 q 1165 -83 1235 -83 l 999 -83 q 883 -56 913 -83 q 854 46 854 -31 l 854 247 l 524 247 q 426 15 504 90 q 142 -107 343 -67 q 85 -21 125 -57 q 357 92 289 14 q 424 335 417 160 l 961 335 l 961 46 q 971 13 961 19 q 1014 6 981 6 l 1153 6 m 113 511 l 1274 511 l 1274 283 l 1172 283 l 1172 428 l 211 428 l 211 282 l 113 282 l 113 511 m 1008 792 l 385 792 l 385 672 l 1008 672 l 1008 792 m 1115 865 l 1115 599 l 283 599 l 283 865 l 1115 865 m 1299 1032 l 1299 943 l 88 943 l 88 1032 l 667 1032 q 606 1147 642 1090 l 707 1171 q 783 1032 757 1100 l 1299 1032 z "},"亲":{"ha":1389,"x_min":103,"x_max":1288,"o":"m 1221 901 l 188 901 l 188 990 l 656 990 q 585 1138 614 1088 l 685 1161 q 771 990 740 1076 l 1221 990 l 1221 901 m 475 254 q 214 -54 376 76 q 129 10 176 -17 q 375 285 294 126 l 475 254 m 975 289 q 1238 8 1158 128 l 1147 -51 q 890 238 1063 83 l 975 289 m 750 574 l 750 429 l 1265 429 l 1265 336 l 750 336 l 750 14 q 696 -87 750 -65 q 488 -104 651 -104 q 454 -8 479 -57 q 619 -10 575 -12 q 646 15 646 -10 l 646 336 l 133 336 l 133 429 l 646 429 l 646 574 l 103 574 l 103 665 l 443 665 q 351 864 411 769 l 444 888 q 546 679 522 767 l 504 665 l 826 665 q 932 886 901 801 l 1038 864 q 932 665 963 717 l 1288 665 l 1288 574 l 750 574 z "},"人":{"ha":1389,"x_min":64,"x_max":1335,"o":"m 750 1157 q 740 956 746 1028 q 1335 -8 833 214 q 1260 -96 1285 -50 q 697 668 844 99 q 147 -101 572 125 q 64 -21 121 -60 q 565 599 433 165 q 636 1157 629 811 l 750 1157 z "},"亿":{"ha":1389,"x_min":49,"x_max":1297,"o":"m 489 1128 q 357 850 435 989 l 357 -104 l 257 -104 l 257 690 q 107 506 183 583 q 49 608 79 569 q 392 1158 264 819 l 489 1128 m 1106 54 q 1179 106 1161 54 q 1203 333 1197 158 q 1297 299 1246 308 q 1246 18 1285 85 q 1101 -44 1208 -44 l 753 -44 q 515 118 515 -44 q 594 319 515 197 q 1075 919 713 501 l 543 919 l 543 1018 l 1179 1018 l 1204 1022 l 1269 986 q 1254 969 1265 981 q 617 129 617 251 q 746 56 617 56 l 1106 54 z "},"什":{"ha":1389,"x_min":56,"x_max":1321,"o":"m 503 1126 q 367 843 444 978 l 367 -104 l 265 -104 l 265 682 q 114 496 189 575 q 56 597 86 556 q 406 1157 279 817 l 503 1126 m 1321 583 l 947 583 l 947 -107 l 843 -107 l 843 583 l 456 583 l 456 685 l 843 685 l 843 1147 l 947 1147 l 947 685 l 1321 685 l 1321 583 z "},"仁":{"ha":1389,"x_min":54,"x_max":1318,"o":"m 1258 821 l 540 821 l 540 928 l 1258 928 l 1258 821 m 513 1126 q 364 821 447 963 l 364 -104 l 263 -104 l 263 664 q 118 493 201 579 q 54 594 92 550 q 411 1158 286 814 l 513 1126 m 1318 101 l 1318 -6 l 463 -6 l 463 101 l 1318 101 z "},"仅":{"ha":1389,"x_min":40,"x_max":1343,"o":"m 513 1121 q 364 824 447 961 l 364 -104 l 263 -104 l 263 671 q 104 486 185 563 q 40 589 72 551 q 411 1153 278 804 l 513 1121 m 656 913 q 892 336 732 565 q 1146 913 1072 571 l 656 913 m 1263 992 q 956 254 1188 546 q 1343 -17 1115 65 q 1276 -100 1303 -50 q 889 178 1051 -10 q 478 -106 718 -6 q 417 -21 454 -56 q 825 258 649 65 q 557 908 649 507 l 576 913 l 507 913 l 507 1010 l 1178 1010 l 1196 1015 l 1263 992 z "},"仆":{"ha":1389,"x_min":47,"x_max":1317,"o":"m 506 1125 q 367 829 447 974 l 367 -106 l 263 -106 l 263 660 q 108 469 194 563 q 47 576 78 538 q 404 1157 276 800 l 506 1125 m 751 1144 l 860 1144 l 860 -103 l 751 -103 l 751 1144 m 942 785 q 1317 442 1222 543 l 1240 356 q 869 713 1156 456 l 942 785 z "},"仇":{"ha":1389,"x_min":53,"x_max":1335,"o":"m 471 1129 q 335 829 426 1003 l 335 -107 l 233 -107 l 233 661 q 113 507 182 586 q 53 608 88 561 q 374 1158 257 819 l 471 1129 m 1194 7 q 1226 14 1217 7 q 1244 57 1240 24 q 1250 225 1250 113 q 1335 179 1286 193 q 1319 -6 1332 40 q 1278 -71 1308 -49 q 1201 -87 1250 -87 l 1124 -87 q 1039 -61 1069 -87 q 1007 88 1007 -31 l 1007 739 l 775 739 q 693 249 757 435 q 443 -111 614 18 q 367 -36 415 -65 q 674 739 642 164 l 435 739 l 435 839 l 676 839 q 679 1160 679 942 l 782 1160 q 778 839 782 942 l 1110 839 l 1110 81 q 1121 14 1110 24 q 1147 7 1132 7 l 1194 7 z "},"今":{"ha":1389,"x_min":53,"x_max":1335,"o":"m 1108 489 l 1188 450 q 746 -111 1029 233 l 640 -62 q 1001 379 776 93 l 226 379 l 226 482 l 1090 482 l 1108 489 m 806 510 q 543 738 725 597 l 613 800 q 879 582 804 663 l 806 510 m 785 1124 l 758 1085 q 1335 667 988 819 q 1254 575 1300 640 q 699 1008 944 731 q 132 567 469 735 q 53 656 96 622 q 688 1171 474 849 l 785 1124 z "},"介":{"ha":1389,"x_min":47,"x_max":1351,"o":"m 389 617 l 494 617 l 494 439 q 444 153 494 264 q 186 -108 374 -7 q 103 -33 157 -68 q 343 196 276 57 q 389 440 389 292 l 389 617 m 906 618 l 1011 618 l 1011 -110 l 906 -110 l 906 618 m 775 1114 l 753 1078 q 1351 674 969 785 q 1278 579 1319 647 q 694 1000 926 701 q 110 563 460 700 q 47 660 82 621 q 421 867 242 724 q 693 1169 599 1007 l 775 1114 z "},"仍":{"ha":1389,"x_min":39,"x_max":1274,"o":"m 417 1126 q 308 851 374 988 l 308 -107 l 210 -107 l 210 667 q 96 503 151 571 q 39 608 76 554 q 322 1154 218 815 l 417 1126 m 1274 665 q 1272 618 1274 631 q 1181 -47 1240 19 q 1076 -96 1144 -90 q 871 -93 1011 -103 q 838 7 868 -37 q 1036 -1 924 -1 q 1093 17 1075 -1 q 1171 571 1144 67 l 907 571 q 992 967 954 747 l 717 967 q 664 379 708 596 q 426 -111 596 57 q 346 -42 389 -65 q 567 415 506 110 q 613 967 607 614 l 451 967 l 451 1063 l 1108 1063 q 1028 665 1069 851 l 1274 665 z "},"从":{"ha":1389,"x_min":61,"x_max":1325,"o":"m 632 228 q 424 558 560 376 q 161 -104 353 126 q 61 -33 135 -76 q 367 1129 328 249 l 478 1125 q 443 693 465 881 q 710 301 621 482 l 632 228 m 1007 1126 q 960 672 989 853 q 1325 3 1065 179 q 1250 -89 1279 -40 q 919 464 1033 79 q 615 -100 828 97 q 515 -28 585 -69 q 797 440 708 133 q 896 1132 871 689 l 1007 1126 z "},"仑":{"ha":1389,"x_min":61,"x_max":1340,"o":"m 958 39 q 1050 78 1028 39 q 1081 244 1071 114 q 1179 204 1122 214 q 1125 -4 1165 46 q 961 -58 1083 -58 l 575 -58 q 394 -25 442 -58 q 346 113 346 11 l 346 669 l 447 669 l 447 390 q 974 625 804 501 l 1067 549 q 447 292 856 410 l 447 113 q 471 53 447 67 q 576 39 496 39 l 958 39 m 790 1122 q 760 1079 794 1129 q 1340 679 985 804 q 1263 586 1296 639 q 701 1007 939 724 q 132 582 478 738 q 61 671 101 635 q 697 1165 488 839 l 790 1122 z "},"仓":{"ha":1389,"x_min":50,"x_max":1342,"o":"m 786 1121 q 754 1074 769 1094 q 1342 647 963 824 q 1272 560 1293 607 q 699 997 913 744 q 346 671 553 815 l 1057 671 l 1056 624 q 1003 256 1040 300 q 908 217 969 221 q 718 219 849 213 q 693 311 715 268 q 865 303 783 303 q 915 317 901 303 q 950 574 939 344 l 428 574 l 428 110 q 454 46 428 61 q 567 31 479 31 l 965 31 q 1065 69 1042 31 q 1096 240 1088 107 q 1200 197 1139 210 q 1142 -15 1185 36 q 968 -71 1096 -71 l 565 -71 q 374 -35 422 -71 q 322 108 322 1 l 322 654 q 124 540 219 588 q 50 629 92 594 q 689 1164 481 818 l 786 1121 z "},"仔":{"ha":1389,"x_min":51,"x_max":1328,"o":"m 471 1131 q 325 814 410 967 l 325 -107 l 226 -107 l 226 656 q 110 510 171 578 q 51 610 82 569 q 374 1161 257 826 l 471 1131 m 1328 464 l 936 464 l 936 31 q 872 -83 936 -62 q 619 -101 821 -101 q 583 3 608 -46 q 801 0 757 -3 q 833 32 833 1 l 833 464 l 436 464 l 436 564 l 833 564 l 833 764 q 1110 967 988 847 l 522 967 l 522 1064 l 1203 1064 l 1224 1069 l 1294 1018 q 936 719 1156 856 l 936 564 l 1328 564 l 1328 464 z "},"他":{"ha":1389,"x_min":31,"x_max":1333,"o":"m 468 1128 q 328 835 410 978 l 328 -104 l 226 -104 l 226 676 q 89 508 163 586 q 31 606 56 575 q 374 1157 250 819 l 468 1128 m 1126 6 q 1210 44 1189 6 q 1238 207 1228 81 q 1333 164 1281 176 q 1282 -33 1319 15 q 1131 -87 1242 -87 l 768 -87 q 600 -49 644 -87 q 554 103 554 -10 l 554 554 l 419 501 l 379 592 l 554 660 l 554 1025 l 656 1025 l 656 700 l 858 779 l 858 1160 l 957 1160 l 957 817 l 1174 900 l 1204 926 l 1275 897 l 1271 879 q 1254 371 1271 449 q 1171 269 1240 288 q 1031 260 1122 257 q 1006 357 1025 318 q 1111 354 1043 354 q 1158 396 1149 354 q 1174 796 1171 440 l 957 711 l 957 201 l 858 201 l 858 672 l 656 592 l 656 103 q 676 25 656 43 q 771 6 699 6 l 1126 6 z "},"仗":{"ha":1389,"x_min":33,"x_max":1343,"o":"m 511 1121 q 364 831 449 971 l 364 -104 l 263 -104 l 263 678 q 96 488 176 563 q 33 589 75 540 q 411 1153 276 807 l 511 1121 m 1019 764 q 882 208 1019 415 q 1343 -17 1051 40 q 1278 -110 1300 -61 q 818 126 996 -43 q 486 -110 697 -10 q 414 -25 461 -67 q 746 208 626 71 q 542 653 611 381 l 636 672 q 808 292 694 443 q 917 764 917 468 l 917 771 l 456 771 l 456 869 l 917 869 l 917 1156 l 1019 1156 l 1019 869 l 1326 869 l 1326 771 l 1019 771 l 1019 764 z "},"付":{"ha":1389,"x_min":58,"x_max":1319,"o":"m 513 1121 q 365 818 446 953 l 365 -103 l 263 -103 l 263 658 q 122 490 200 569 q 58 592 88 557 q 411 1153 283 806 l 513 1121 m 1319 751 l 1144 751 l 1144 35 q 1071 -90 1144 -68 q 774 -107 1010 -110 q 733 -6 764 -61 q 997 -8 911 -12 q 1040 35 1040 -4 l 1040 751 l 481 751 l 481 854 l 1040 854 l 1040 1146 l 1144 1146 l 1144 854 l 1319 854 l 1319 751 m 769 218 q 568 564 710 342 l 657 606 q 865 269 800 393 l 769 218 z "},"仙":{"ha":1389,"x_min":49,"x_max":1269,"o":"m 469 1131 q 332 829 407 965 l 332 -106 l 233 -106 l 233 668 q 107 508 174 581 q 49 608 86 560 q 372 1160 254 822 l 469 1131 m 1269 847 l 1269 -104 l 1168 -104 l 1168 -19 l 503 -19 l 503 842 l 604 842 l 604 78 l 831 78 l 831 1139 l 933 1139 l 933 78 l 1168 78 l 1168 847 l 1269 847 z "},"代":{"ha":1389,"x_min":35,"x_max":1349,"o":"m 1213 854 q 989 1082 1139 957 l 1064 1132 q 1293 910 1214 1014 l 1213 854 m 533 1115 q 385 835 479 985 l 385 -104 l 281 -104 l 281 686 q 94 482 193 572 q 35 582 71 535 q 436 1146 294 803 l 533 1115 m 900 646 q 1186 15 978 35 q 1263 254 1242 11 q 1349 200 1293 226 q 1190 -106 1308 -112 q 799 632 886 -83 l 465 590 l 451 688 l 788 729 q 761 1140 768 951 l 864 1140 q 890 743 871 917 l 1306 796 l 1319 699 l 900 646 z "},"令":{"ha":1389,"x_min":54,"x_max":1346,"o":"m 1183 483 q 797 93 1021 311 q 951 -28 883 32 l 872 -114 q 428 211 722 32 l 501 285 q 713 151 561 251 q 988 425 851 285 l 236 425 l 236 525 l 1090 525 l 1108 531 l 1183 483 m 767 560 q 557 774 701 656 l 631 832 q 844 626 782 713 l 767 560 m 801 1117 q 764 1069 776 1086 q 1346 690 1003 822 q 1269 597 1308 657 q 700 999 947 746 q 128 594 464 750 q 54 681 94 644 q 707 1167 488 864 l 801 1117 z "},"以":{"ha":1389,"x_min":143,"x_max":1336,"o":"m 729 656 q 521 986 663 808 l 608 1032 q 822 710 756 856 l 729 656 m 658 381 q 685 283 664 344 q 200 32 247 74 q 143 117 186 69 q 226 242 226 164 l 226 1054 l 336 1054 l 336 231 l 658 381 m 1247 -103 q 967 228 1160 38 q 560 -115 833 10 q 483 -26 529 -68 q 924 376 799 99 q 1056 1107 1029 610 l 1164 1101 q 1015 319 1132 572 q 1336 -36 1238 107 l 1247 -103 z "},"仪":{"ha":1389,"x_min":31,"x_max":1338,"o":"m 906 804 q 751 1089 863 925 l 833 1129 q 993 854 949 971 l 906 804 m 471 1126 q 328 829 413 978 l 328 -103 l 229 -103 l 229 676 q 89 506 171 592 q 31 606 63 568 q 374 1157 250 819 l 471 1126 m 1264 1064 q 942 247 1165 522 q 1338 -18 1097 68 q 1264 -108 1290 -60 q 868 165 1033 -17 q 442 -107 700 -4 q 379 -28 421 -69 q 806 243 642 71 q 508 1047 601 524 l 607 1060 q 878 325 685 593 q 1163 1082 1078 583 l 1264 1064 z "},"们":{"ha":1389,"x_min":54,"x_max":1275,"o":"m 411 1128 q 306 832 372 989 l 306 -106 l 206 -106 l 206 631 q 110 485 160 550 q 54 589 89 543 q 317 1154 215 796 l 411 1128 m 472 883 l 572 883 l 572 -107 l 472 -107 l 472 883 m 610 1161 q 775 896 726 1003 l 690 847 q 529 1118 639 969 l 610 1161 m 1275 25 q 1219 -85 1275 -61 q 999 -103 1175 -103 q 965 -4 992 -56 q 1143 -6 1074 -10 q 1174 26 1174 -4 l 1174 1017 l 799 1017 l 799 1111 l 1275 1111 l 1275 25 z "},"仰":{"ha":1389,"x_min":46,"x_max":1279,"o":"m 431 1135 q 322 857 382 986 l 322 -107 l 222 -107 l 222 669 q 100 494 168 578 q 46 599 81 538 q 336 1163 231 815 l 431 1135 m 851 1056 q 571 958 724 1000 l 571 254 l 790 329 q 801 244 793 286 q 472 101 507 131 q 422 176 456 143 q 476 289 476 214 l 476 1014 q 779 1132 665 1067 l 851 1056 m 1279 247 q 1231 144 1279 168 q 1042 126 1192 126 q 1008 225 1038 167 q 1156 224 1043 224 q 1179 249 1179 224 l 1179 917 l 953 917 l 953 -107 l 854 -107 l 854 1008 l 1279 1008 l 1279 247 z "},"仲":{"ha":1389,"x_min":50,"x_max":1294,"o":"m 464 1131 q 331 829 410 981 l 331 -104 l 232 -104 l 232 668 q 110 510 172 579 q 50 610 82 567 q 368 1160 251 819 l 464 1131 m 1193 440 l 1193 781 l 922 781 l 922 440 l 1193 440 m 821 440 l 821 781 l 558 781 l 558 440 l 821 440 m 1294 876 l 1294 264 l 1193 264 l 1193 343 l 922 343 l 922 -104 l 821 -104 l 821 343 l 558 343 l 558 256 l 460 256 l 460 876 l 821 876 l 821 1147 l 922 1147 l 922 876 l 1294 876 z "},"件":{"ha":1389,"x_min":50,"x_max":1317,"o":"m 472 1126 q 335 826 408 961 l 335 -104 l 236 -104 l 236 667 q 108 504 185 590 q 50 606 89 556 q 375 1157 257 822 l 472 1126 m 1317 372 l 940 372 l 940 -107 l 838 -107 l 838 372 l 442 372 l 442 474 l 838 474 l 838 778 l 619 778 q 519 567 574 650 q 431 619 485 593 q 601 1093 546 779 l 699 1072 q 653 879 679 971 l 838 879 l 838 1144 l 940 1144 l 940 879 l 1257 879 l 1257 778 l 940 778 l 940 474 l 1317 474 l 1317 372 z "},"价":{"ha":1389,"x_min":58,"x_max":1343,"o":"m 472 1132 q 338 832 421 986 l 338 -106 l 236 -106 l 236 663 q 118 510 182 581 q 58 610 82 579 q 375 1161 261 824 l 472 1132 m 611 624 l 714 624 l 714 435 q 471 -117 714 67 q 396 -44 439 -72 q 611 436 611 106 l 611 624 m 1003 626 l 1107 626 l 1107 -103 l 1003 -103 l 1003 626 m 938 1146 l 908 1083 q 1343 664 1072 807 q 1271 583 1300 631 q 858 992 1032 722 q 424 564 696 725 q 360 644 401 608 q 828 1165 697 835 l 938 1146 z "},"任":{"ha":1389,"x_min":35,"x_max":1328,"o":"m 511 1131 q 364 836 446 972 l 364 -107 l 263 -107 l 263 683 q 99 496 183 576 q 35 599 78 551 q 411 1161 274 811 l 511 1131 m 936 472 l 936 46 l 1307 46 l 1307 -54 l 476 -54 l 476 46 l 833 46 l 833 472 l 424 472 l 424 572 l 833 572 l 833 939 q 501 890 669 910 q 469 978 496 921 q 1196 1128 954 1040 l 1272 1042 q 936 957 1131 996 l 936 572 l 1328 572 l 1328 472 l 936 472 z "},"份":{"ha":1389,"x_min":53,"x_max":1346,"o":"m 461 1129 q 331 829 414 988 l 331 -107 l 229 -107 l 229 660 q 111 504 179 585 q 53 606 92 556 q 364 1157 249 817 l 461 1129 m 1179 622 q 1178 574 1179 588 q 1097 -50 1151 14 q 1006 -96 1065 -89 q 844 -94 943 -101 q 817 1 842 -39 q 963 -6 894 -6 q 1010 13 994 -6 q 1075 525 1053 61 l 831 525 q 494 -108 774 64 q 424 -32 467 -69 q 728 525 685 111 l 551 525 l 551 614 q 460 524 507 563 q 396 614 436 574 q 701 1125 610 782 l 801 1104 q 558 622 718 811 l 1179 622 m 1044 1133 q 1346 622 1125 799 q 1275 536 1293 583 q 953 1117 1040 735 l 1044 1133 z "},"仿":{"ha":1389,"x_min":50,"x_max":1328,"o":"m 876 924 q 813 1136 857 1008 l 914 1158 q 983 953 963 1031 l 876 924 m 472 1131 q 332 824 414 974 l 332 -104 l 232 -104 l 232 663 q 111 507 176 582 q 50 610 90 554 q 372 1160 256 821 l 472 1131 m 796 818 q 785 615 790 685 l 1228 615 l 1228 568 q 1147 -47 1200 14 q 1047 -93 1115 -86 q 860 -92 1007 -97 q 829 4 857 -40 q 1003 -3 924 -3 q 1056 15 1040 -3 q 1121 518 1100 60 l 775 518 q 469 -108 722 72 q 393 -37 438 -64 q 635 329 568 83 q 688 818 679 497 l 451 818 l 451 918 l 1328 918 l 1328 818 l 796 818 z "},"企":{"ha":1389,"x_min":51,"x_max":1344,"o":"m 760 29 l 1290 29 l 1290 -65 l 115 -65 l 115 29 l 290 29 l 290 542 l 392 542 l 392 29 l 653 29 l 653 785 l 760 785 l 760 467 l 1161 467 l 1161 374 l 760 374 l 760 29 m 785 1131 l 753 1086 q 1344 671 967 836 q 1278 583 1297 626 q 697 1014 913 761 q 122 585 467 738 q 51 671 97 626 q 692 1175 481 843 l 785 1131 z "},"伊":{"ha":1389,"x_min":31,"x_max":1328,"o":"m 483 1128 q 342 842 422 978 l 342 -106 l 243 -106 l 243 693 q 89 510 175 596 q 31 611 64 571 q 386 1158 260 826 l 483 1128 m 1125 647 l 849 647 l 849 578 q 840 417 849 482 l 1125 417 l 1125 647 m 849 743 l 1125 743 l 1125 969 l 849 969 l 849 743 m 1328 647 l 1225 647 l 1225 249 l 1125 249 l 1125 321 l 824 321 q 471 -110 760 32 q 403 -31 444 -67 q 721 321 660 82 l 483 321 l 483 417 l 739 417 q 747 578 747 483 l 747 647 l 406 647 l 406 743 l 747 743 l 747 969 l 503 969 l 503 1067 l 1225 1067 l 1225 743 l 1328 743 l 1328 647 z "},"伍":{"ha":1389,"x_min":38,"x_max":1329,"o":"m 475 1131 q 343 846 422 989 l 343 -107 l 243 -107 l 243 683 q 93 497 171 579 q 38 599 76 544 q 379 1158 253 814 l 475 1131 m 807 522 q 724 49 768 265 l 1044 49 q 1092 522 1071 272 l 807 522 m 1329 49 l 1329 -49 l 417 -49 l 417 49 l 618 49 q 706 522 650 192 l 490 522 l 490 619 l 719 619 q 768 954 746 790 l 476 954 l 476 1051 l 1285 1051 l 1285 954 l 874 954 l 824 619 l 1108 619 l 1125 625 l 1201 618 q 1146 49 1188 400 l 1329 49 z "},"伏":{"ha":1389,"x_min":44,"x_max":1333,"o":"m 1175 828 q 1010 1074 1122 938 l 1088 1119 q 1258 881 1201 982 l 1175 828 m 485 1129 q 347 839 426 978 l 347 -106 l 246 -106 l 246 676 q 103 501 175 576 q 44 606 81 560 q 386 1160 263 819 l 485 1129 m 921 653 q 1333 -17 1031 149 q 1257 -106 1288 -53 q 871 475 994 56 q 499 -106 793 119 q 414 -39 471 -75 q 794 653 749 214 l 438 653 l 438 754 l 801 754 q 803 839 803 783 l 803 1160 l 906 1160 l 906 839 q 904 754 906 783 l 1313 754 l 1313 653 l 921 653 z "},"伐":{"ha":1389,"x_min":57,"x_max":1331,"o":"m 1158 882 q 925 1083 1086 956 l 990 1139 q 1226 947 1143 1026 l 1158 882 m 510 1125 q 365 831 451 975 l 365 -103 l 263 -103 l 263 671 q 118 500 201 586 q 57 599 88 563 q 411 1156 285 815 l 510 1125 m 1250 622 q 968 249 1143 415 q 1174 -3 1060 -3 q 1240 242 1226 -3 q 1331 188 1285 203 q 1281 -46 1317 17 q 1165 -107 1246 -107 q 882 174 996 -107 q 497 -57 710 36 q 428 31 468 -6 q 847 275 674 126 q 763 692 793 447 l 424 656 l 414 753 l 753 786 q 733 1146 735 969 l 839 1146 q 856 797 839 964 l 1289 842 l 1297 746 l 867 701 q 935 356 890 507 q 1151 658 1069 493 l 1250 622 z "},"休":{"ha":1389,"x_min":33,"x_max":1356,"o":"m 513 1121 q 361 824 449 965 l 361 -104 l 260 -104 l 260 675 q 96 492 181 571 q 33 596 78 539 q 410 1153 281 810 l 513 1121 m 978 710 q 1356 151 1129 335 q 1278 68 1304 111 q 918 626 1072 260 l 918 -107 l 817 -107 l 817 597 q 456 63 667 247 q 378 142 411 115 q 763 710 615 329 l 426 710 l 426 810 l 817 810 l 817 1143 l 918 1143 l 918 810 l 1319 810 l 1319 710 l 978 710 z "},"众":{"ha":1389,"x_min":71,"x_max":1329,"o":"m 639 122 q 426 338 569 214 q 163 -97 343 56 q 74 -33 131 -64 q 386 667 331 163 l 490 656 q 453 438 476 540 q 711 196 631 299 l 639 122 m 989 647 q 963 468 978 550 q 1314 -4 1065 124 q 1242 -93 1278 -36 q 924 308 1038 26 q 661 -107 840 38 q 574 -42 633 -76 q 885 660 836 147 l 989 647 m 786 1129 q 749 1063 769 1094 q 1329 672 950 772 q 1257 582 1294 642 q 699 985 911 692 q 143 572 499 708 q 71 667 113 632 q 686 1169 518 815 l 786 1129 z "},"优":{"ha":1389,"x_min":57,"x_max":1318,"o":"m 1154 865 q 968 1075 1094 957 l 1040 1126 q 1231 922 1167 1011 l 1154 865 m 478 1129 q 332 813 419 972 l 332 -106 l 233 -106 l 233 654 q 117 507 179 576 q 57 608 92 561 q 381 1158 263 824 l 478 1129 m 814 736 q 461 -100 769 125 q 385 -25 433 -58 q 713 736 672 176 l 407 736 l 407 835 l 719 835 q 725 1144 725 972 l 826 1144 q 819 835 826 964 l 1315 835 l 1315 736 l 814 736 m 1174 26 q 1214 65 1204 26 q 1226 240 1224 104 q 1318 196 1260 214 q 1283 -14 1311 39 q 1182 -68 1257 -68 l 1021 -68 q 911 -37 940 -68 q 883 78 883 -7 l 883 628 l 985 628 l 985 78 q 993 36 985 46 q 1033 26 1003 26 l 1174 26 z "},"伙":{"ha":1389,"x_min":53,"x_max":1342,"o":"m 1321 874 q 1158 485 1231 622 l 1068 515 q 1210 906 1158 703 l 1321 874 m 454 500 q 558 899 532 638 l 657 885 q 554 460 631 614 l 454 500 m 481 1128 q 346 840 429 988 l 346 -104 l 242 -104 l 242 671 q 113 511 182 588 q 53 614 76 582 q 382 1160 264 825 l 481 1128 m 932 1150 q 918 619 932 775 q 1047 217 954 364 q 1342 -8 1150 53 q 1274 -101 1299 -46 q 876 363 978 10 q 476 -104 786 32 q 406 -21 449 -57 q 778 403 700 104 q 824 1150 824 579 l 932 1150 z "},"会":{"ha":1389,"x_min":64,"x_max":1333,"o":"m 129 468 l 1269 468 l 1269 368 l 664 368 q 381 53 518 175 l 1011 100 q 850 267 936 188 l 938 314 q 1253 -49 1154 118 l 1161 -106 q 1085 8 1128 -49 q 222 -76 271 -58 q 188 31 197 6 q 290 103 222 38 q 524 368 389 185 l 129 368 l 129 468 m 799 1118 q 758 1063 781 1094 q 1333 704 996 819 q 1261 613 1293 669 q 699 993 946 740 q 386 733 568 850 l 1028 733 l 1028 638 l 368 638 l 368 722 q 139 599 256 651 q 64 686 107 650 q 700 1161 511 878 l 799 1118 z "},"伞":{"ha":1389,"x_min":47,"x_max":1347,"o":"m 744 310 l 1311 310 l 1311 210 l 744 210 l 744 -107 l 640 -107 l 640 210 l 74 210 l 74 310 l 640 310 l 640 819 l 744 819 l 744 310 m 367 701 q 517 418 479 542 l 425 375 q 281 664 389 501 l 367 701 m 1121 664 q 944 374 1015 472 l 865 410 q 1021 701 956 540 l 1121 664 m 794 1124 l 754 1076 q 1347 763 976 888 q 1279 672 1301 722 q 689 1013 926 806 q 117 663 458 796 q 47 753 86 718 q 713 1169 493 907 l 794 1124 z "},"伟":{"ha":1389,"x_min":60,"x_max":1308,"o":"m 479 1128 q 340 822 422 975 l 340 -108 l 240 -108 l 240 660 q 118 504 189 585 q 60 604 90 567 q 382 1157 267 822 l 479 1128 m 1308 471 l 1306 428 q 1242 44 1283 89 q 1169 10 1217 14 q 1051 8 1132 4 q 1026 99 1046 64 q 1126 94 1071 94 q 1164 107 1151 94 q 1207 374 1190 142 l 903 374 l 903 -106 l 804 -106 l 804 374 l 425 374 l 425 471 l 804 471 l 804 631 l 501 631 l 501 726 l 804 726 l 804 881 l 467 881 l 467 978 l 804 978 l 804 1161 l 903 1161 l 903 978 l 1274 978 l 1274 881 l 903 881 l 903 726 l 1233 726 l 1233 631 l 903 631 l 903 471 l 1308 471 z "},"传":{"ha":1389,"x_min":29,"x_max":1319,"o":"m 469 1126 q 326 828 408 974 l 326 -104 l 225 -104 l 225 671 q 89 506 167 588 q 29 606 58 569 q 372 1157 249 819 l 469 1126 m 763 644 l 713 479 l 1157 479 l 1174 486 l 1244 440 q 939 96 1135 313 q 1090 -31 1036 24 l 1014 -107 q 651 176 883 31 l 726 239 q 860 153 801 193 q 1065 382 976 279 l 572 382 q 657 644 610 483 l 408 644 l 408 740 l 686 740 l 732 906 l 488 906 l 488 1001 l 758 1001 l 778 1079 q 796 1154 790 1128 l 899 1140 q 861 1001 875 1047 l 1257 1001 l 1257 906 l 836 906 q 789 740 806 794 l 1319 740 l 1319 644 l 763 644 z "},"伤":{"ha":1389,"x_min":32,"x_max":1288,"o":"m 474 1129 q 325 821 407 961 l 325 -104 l 226 -104 l 226 669 q 92 506 156 572 q 32 608 71 557 q 375 1160 251 822 l 474 1129 m 1256 590 q 1254 543 1256 558 q 1189 -33 1238 26 q 1092 -78 1158 -71 q 893 -76 1032 -83 q 861 19 890 -24 q 1050 11 960 11 q 1103 29 1088 11 q 1154 494 1139 68 l 856 494 q 482 -111 796 53 q 415 -33 458 -68 q 756 494 700 108 l 479 494 l 479 590 l 767 590 q 779 793 774 658 l 881 793 q 867 590 876 681 l 1256 590 m 1288 957 l 1288 858 l 653 858 q 500 654 585 742 q 417 718 478 679 q 676 1158 586 875 l 775 1136 q 704 957 744 1039 l 1288 957 z "},"伦":{"ha":1389,"x_min":46,"x_max":1349,"o":"m 464 1132 q 325 826 407 979 l 325 -104 l 226 -104 l 226 665 q 104 508 171 581 q 46 610 78 565 q 367 1160 251 824 l 464 1132 m 1071 13 q 1142 49 1125 13 q 1165 204 1158 82 q 1258 164 1199 179 q 1214 -31 1247 18 q 1076 -81 1176 -81 l 772 -81 q 615 -47 656 -81 q 575 81 575 -15 l 575 654 l 676 654 l 676 363 q 1094 589 932 476 l 1161 501 q 676 261 944 369 l 676 81 q 694 26 676 39 q 778 13 714 13 l 1071 13 m 950 1149 l 914 1081 q 1349 671 1088 814 q 1276 590 1311 642 q 860 996 1051 731 q 429 574 688 735 q 361 651 404 621 q 840 1169 696 851 l 950 1149 z "},"伪":{"ha":1389,"x_min":39,"x_max":1279,"o":"m 608 844 q 478 1038 568 931 l 564 1078 q 700 892 656 979 l 608 844 m 479 1126 q 336 833 424 983 l 336 -104 l 238 -104 l 238 679 q 99 511 171 586 q 39 611 69 575 q 379 1157 254 822 l 479 1126 m 1279 803 l 1278 751 q 1190 -36 1250 39 q 1086 -87 1154 -82 q 885 -86 1035 -94 q 851 14 876 -25 q 1042 7 935 7 q 1097 28 1081 7 q 1172 701 1147 82 l 846 701 q 449 -99 781 138 q 371 -26 422 -58 q 744 701 682 183 l 440 701 l 440 803 l 754 803 q 767 1150 764 907 l 871 1150 q 857 803 868 924 l 1279 803 m 997 249 q 831 493 949 354 l 914 540 q 1088 301 1033 406 l 997 249 z "},"伯":{"ha":1389,"x_min":51,"x_max":1219,"o":"m 485 1135 q 343 788 433 965 l 343 -108 l 242 -108 l 242 618 q 115 464 186 538 q 51 554 85 519 q 386 1158 272 771 l 485 1135 m 1115 64 l 1115 392 l 611 392 l 611 64 l 1115 64 m 611 814 l 611 493 l 1115 493 l 1115 814 l 611 814 m 1219 911 l 1219 -93 l 1115 -93 l 1115 -39 l 611 -39 l 611 -103 l 510 -103 l 510 911 l 735 911 q 808 1163 776 1024 l 928 1143 q 840 911 882 1010 l 1219 911 z "},"估":{"ha":1389,"x_min":31,"x_max":1329,"o":"m 471 1126 q 325 822 410 971 l 325 -104 l 226 -104 l 226 672 q 89 504 169 589 q 31 606 67 563 q 374 1157 249 817 l 471 1126 m 1140 379 l 633 379 l 633 51 l 1140 51 l 1140 379 m 935 758 l 935 476 l 1244 476 l 1244 -101 l 1140 -101 l 1140 -47 l 633 -47 l 633 -107 l 532 -107 l 532 476 l 831 476 l 831 758 l 453 758 l 453 858 l 831 858 l 831 1163 l 935 1163 l 935 858 l 1329 858 l 1329 758 l 935 758 z "},"伴":{"ha":1389,"x_min":50,"x_max":1311,"o":"m 1211 1054 q 1053 738 1136 875 q 965 782 1019 760 q 1118 1081 1043 897 l 1211 1054 m 646 736 q 468 1039 593 854 l 550 1078 q 732 785 675 904 l 646 736 m 422 1128 q 319 853 382 994 l 319 -107 l 221 -107 l 221 657 q 106 486 164 558 q 50 590 79 550 q 328 1154 229 811 l 422 1128 m 1311 296 l 900 296 l 900 -106 l 797 -106 l 797 296 l 399 296 l 399 392 l 797 392 l 797 601 l 456 601 l 456 699 l 797 699 l 797 1163 l 900 1163 l 900 699 l 1254 699 l 1254 601 l 900 601 l 900 392 l 1311 392 l 1311 296 z "},"伶":{"ha":1389,"x_min":31,"x_max":1318,"o":"m 469 1126 q 326 828 411 978 l 326 -104 l 225 -104 l 225 669 q 89 504 161 578 q 31 606 67 563 q 372 1157 251 821 l 469 1126 m 1217 472 q 896 83 1103 279 q 1047 -37 978 25 l 974 -108 q 597 181 843 17 l 667 242 q 738 194 682 231 q 814 142 785 163 q 1061 418 943 254 l 506 418 l 506 514 l 1125 514 l 1143 519 l 1217 472 m 815 771 q 960 613 903 690 l 876 558 q 735 729 829 631 l 815 771 m 924 1132 l 899 1083 q 1318 672 1057 822 q 1244 589 1267 624 q 849 1001 1022 736 q 432 583 688 750 q 360 657 406 622 q 826 1163 679 856 l 924 1132 z "},"伸":{"ha":1389,"x_min":53,"x_max":1271,"o":"m 493 1128 q 350 831 440 988 l 350 -104 l 250 -104 l 250 674 q 111 504 179 575 q 53 606 82 571 q 396 1157 268 817 l 493 1128 m 1172 378 l 1172 585 l 935 585 l 935 378 l 1172 378 m 831 378 l 831 585 l 601 585 l 601 378 l 831 378 m 601 881 l 601 679 l 831 679 l 831 881 l 601 881 m 935 881 l 935 679 l 1172 679 l 1172 881 l 935 881 m 1271 976 l 1271 214 l 1172 214 l 1172 282 l 935 282 l 935 -107 l 831 -107 l 831 282 l 601 282 l 601 207 l 506 207 l 506 976 l 831 976 l 831 1161 l 935 1161 l 935 976 l 1271 976 z "},"伺":{"ha":1389,"x_min":31,"x_max":1278,"o":"m 464 1126 q 325 831 410 982 l 325 -103 l 225 -103 l 225 674 q 88 504 164 586 q 31 606 67 558 q 369 1157 247 821 l 464 1126 m 1078 763 l 463 763 l 463 854 l 1078 854 l 1078 763 m 614 536 l 614 267 l 899 267 l 899 536 l 614 536 m 614 176 l 614 81 l 518 81 l 518 626 l 994 626 l 994 176 l 614 176 m 1278 31 q 1215 -86 1278 -64 q 961 -106 1165 -106 q 926 -1 953 -49 q 1140 -3 1081 -6 q 1175 32 1175 -1 l 1175 993 l 479 993 l 479 1088 l 1278 1088 l 1278 31 z "},"似":{"ha":1389,"x_min":31,"x_max":1338,"o":"m 850 569 q 681 1003 807 758 l 764 1035 q 943 606 900 793 l 850 569 m 422 1126 q 314 856 379 992 l 314 -106 l 215 -106 l 215 671 q 85 486 161 579 q 31 590 64 542 q 328 1154 221 811 l 422 1126 m 856 392 q 885 303 864 358 q 511 25 547 68 q 456 117 486 79 q 504 235 504 156 l 504 1067 l 606 1067 l 606 226 l 856 392 m 1242 -62 q 1093 317 1201 82 q 813 -99 1003 53 q 729 -21 781 -58 q 1019 426 936 126 q 1099 1124 1085 660 l 1203 1122 q 1131 454 1183 679 q 1338 -14 1290 154 l 1242 -62 z "},"佃":{"ha":1389,"x_min":29,"x_max":1268,"o":"m 467 1126 q 321 822 406 971 l 321 -104 l 222 -104 l 222 671 q 86 507 156 579 q 29 606 63 565 q 371 1157 247 821 l 467 1126 m 1167 78 l 1167 485 l 926 485 l 926 78 l 1167 78 m 596 78 l 825 78 l 825 485 l 596 485 l 596 78 m 596 981 l 596 585 l 825 585 l 825 981 l 596 981 m 1167 981 l 926 981 l 926 585 l 1167 585 l 1167 981 m 1268 1081 l 1268 -94 l 1167 -94 l 1167 -24 l 596 -24 l 596 -107 l 497 -107 l 497 1081 l 1268 1081 z "},"但":{"ha":1389,"x_min":43,"x_max":1336,"o":"m 1111 965 l 651 965 l 651 694 l 1111 694 l 1111 965 m 1111 599 l 651 599 l 651 321 l 1111 321 l 1111 599 m 1219 224 l 546 224 l 546 1063 l 1219 1063 l 1219 224 m 489 1125 q 344 828 425 965 l 344 -104 l 243 -104 l 243 671 q 103 501 183 586 q 43 607 74 568 q 389 1157 265 821 l 489 1125 m 1336 46 l 1336 -51 l 429 -51 l 429 46 l 1336 46 z "},"位":{"ha":1389,"x_min":58,"x_max":1319,"o":"m 856 926 q 790 1147 838 1025 l 888 1172 q 957 957 944 1014 l 856 926 m 1263 811 l 514 811 l 514 911 l 1263 911 l 1263 811 m 699 114 q 604 706 679 371 l 697 726 q 800 143 771 418 l 699 114 m 497 1128 q 357 833 446 988 l 357 -104 l 254 -104 l 254 672 q 117 504 197 589 q 58 606 94 563 q 400 1157 279 821 l 497 1128 m 1319 50 l 1319 -50 l 456 -50 l 456 50 l 940 50 q 1072 738 1025 364 l 1179 718 q 1036 50 1115 343 l 1319 50 z "},"低":{"ha":1389,"x_min":36,"x_max":1339,"o":"m 468 1129 q 336 835 414 981 l 336 -104 l 236 -104 l 236 669 q 94 489 172 572 q 36 590 60 564 q 371 1157 251 813 l 468 1129 m 876 207 q 1004 -56 965 58 l 924 -85 q 801 183 892 21 l 876 207 m 929 632 q 906 986 915 771 q 621 938 757 956 l 621 632 l 929 632 m 1038 535 q 1210 26 1096 32 q 1264 226 1247 26 q 1339 174 1300 190 q 1210 -94 1303 -94 q 939 535 1007 -90 l 621 535 l 621 28 l 817 76 q 819 -8 814 29 q 504 -112 538 -89 q 467 -25 497 -69 q 524 58 524 -1 l 524 1011 l 525 1011 l 524 1013 q 1172 1158 958 1078 l 1260 1076 q 1003 1006 1154 1042 q 1026 632 1008 814 l 1317 632 l 1317 535 l 1038 535 z "},"住":{"ha":1389,"x_min":56,"x_max":1331,"o":"m 875 904 q 761 1133 844 1004 l 854 1168 q 975 943 943 1035 l 875 904 m 497 1126 q 356 829 447 992 l 356 -104 l 253 -104 l 253 668 q 115 503 192 582 q 56 606 90 564 q 399 1157 274 817 l 497 1126 m 1331 39 l 1331 -60 l 438 -60 l 438 39 l 839 39 l 839 390 l 519 390 l 519 488 l 839 488 l 839 793 l 474 793 l 474 892 l 1311 892 l 1311 793 l 942 793 l 942 488 l 1269 488 l 1269 390 l 942 390 l 942 39 l 1331 39 z "},"佐":{"ha":1389,"x_min":50,"x_max":1328,"o":"m 483 1136 q 340 800 418 950 l 340 -106 l 242 -106 l 242 633 q 114 468 182 542 q 50 558 81 528 q 385 1163 265 785 l 483 1136 m 1328 43 l 1328 -56 l 499 -56 l 499 43 l 883 43 l 883 425 l 621 425 l 621 468 q 421 186 535 300 q 344 263 378 238 q 642 781 535 438 l 439 781 l 439 879 l 669 879 q 725 1151 706 1021 l 826 1136 q 772 879 801 1000 l 1311 879 l 1311 781 l 744 781 q 646 521 699 633 l 1285 521 l 1285 425 l 985 425 l 985 43 l 1328 43 z "},"佑":{"ha":1389,"x_min":31,"x_max":1332,"o":"m 483 1131 q 342 846 425 988 l 342 -104 l 243 -104 l 243 696 q 89 514 174 599 q 31 615 65 569 q 386 1161 257 826 l 483 1131 m 735 419 l 735 82 l 1167 82 l 1167 419 l 735 419 m 821 792 q 711 515 775 642 l 1268 515 l 1268 -89 l 1167 -89 l 1167 -15 l 735 -15 l 735 -101 l 635 -101 l 635 383 q 438 163 543 244 q 369 240 392 219 q 714 792 599 425 l 422 792 l 422 892 l 743 892 q 797 1158 776 1025 l 903 1142 q 849 892 881 1013 l 1332 892 l 1332 792 l 821 792 z "},"体":{"ha":1389,"x_min":49,"x_max":1347,"o":"m 449 1128 q 325 835 401 986 l 325 -104 l 226 -104 l 226 664 q 108 504 171 578 q 49 606 79 565 q 353 1157 240 817 l 449 1128 m 972 783 q 1347 200 1111 390 q 1269 118 1301 167 q 906 726 1047 321 l 906 244 l 1129 244 l 1129 150 l 906 150 l 906 -99 l 806 -99 l 806 150 l 579 150 l 579 244 l 806 244 l 806 717 q 438 115 657 317 q 363 193 400 164 q 743 783 597 381 l 417 783 l 417 883 l 806 883 l 806 1157 l 906 1157 l 906 883 l 1319 883 l 1319 783 l 972 783 z "},"何":{"ha":1389,"x_min":58,"x_max":1332,"o":"m 469 1131 q 346 851 414 981 l 346 -104 l 244 -104 l 244 682 q 115 514 190 596 q 58 614 93 567 q 374 1161 260 829 l 469 1131 m 611 642 l 611 349 l 850 349 l 850 642 l 611 642 m 611 257 l 611 161 l 513 161 l 513 733 l 946 733 l 946 257 l 611 257 m 1332 928 l 1231 928 l 1231 36 q 1163 -85 1231 -61 q 885 -104 1103 -104 q 847 1 878 -57 q 1090 0 997 -4 q 1129 36 1129 1 l 1129 928 l 472 928 l 472 1028 l 1332 1028 l 1332 928 z "},"佘":{"ha":1389,"x_min":43,"x_max":1356,"o":"m 465 292 q 183 -29 356 111 q 99 36 140 10 q 367 321 263 150 l 465 292 m 744 396 l 744 4 q 690 -92 744 -72 q 481 -108 644 -108 q 444 -17 472 -61 q 614 -17 581 -19 q 642 7 642 -17 l 642 396 l 158 396 l 158 489 l 1231 489 l 1231 396 l 744 396 m 1007 724 l 1007 632 l 389 632 l 389 724 l 1007 724 m 989 325 q 1276 18 1179 156 l 1186 -33 q 906 281 1092 107 l 989 325 m 779 1132 q 756 1097 772 1119 q 1356 685 968 850 q 1288 597 1314 650 q 699 1025 921 768 q 111 585 460 742 q 43 671 86 625 q 699 1174 478 849 l 779 1132 z "},"余":{"ha":1389,"x_min":42,"x_max":1351,"o":"m 478 250 q 164 -56 349 75 q 83 14 113 -4 q 382 285 265 128 l 478 250 m 981 290 q 1281 10 1179 136 l 1192 -53 q 897 239 1104 68 l 981 290 m 779 1131 l 754 1100 q 1351 710 969 865 q 1283 621 1304 668 q 694 1032 915 788 q 342 739 550 875 l 1053 739 l 1053 644 l 754 644 l 754 469 l 1264 469 l 1264 372 l 754 372 l 754 18 q 694 -89 754 -67 q 474 -107 642 -110 q 432 -8 465 -60 q 617 -10 475 -10 q 647 18 647 -8 l 647 372 l 138 372 l 138 469 l 647 469 l 647 644 l 336 644 l 336 735 q 111 607 214 656 q 42 692 74 663 q 699 1175 469 876 l 779 1131 z "},"佛":{"ha":1389,"x_min":28,"x_max":1308,"o":"m 467 1128 q 325 831 408 974 l 325 -104 l 226 -104 l 226 676 q 86 504 171 596 q 28 606 57 571 q 371 1157 243 817 l 467 1128 m 924 414 l 924 596 l 765 596 l 765 521 q 763 414 765 483 l 924 414 m 668 414 q 672 521 672 467 l 672 596 l 539 596 q 508 414 518 465 l 668 414 m 765 686 l 924 686 l 924 868 l 765 868 l 765 686 m 1017 868 l 1017 686 l 1175 686 l 1175 868 l 1017 868 m 1308 414 q 1307 374 1308 389 q 1267 46 1297 82 q 1199 13 1243 18 q 1075 13 1157 8 q 1051 100 1069 67 q 1154 94 1097 94 q 1189 106 1178 94 q 1214 324 1207 128 l 1017 324 l 1017 -106 l 924 -106 l 924 324 l 753 324 q 450 -111 711 25 q 385 -42 425 -76 q 657 324 614 79 l 397 324 q 461 686 432 465 l 672 686 l 672 868 l 436 868 l 436 957 l 672 957 l 672 1146 l 765 1146 l 765 957 l 924 957 l 924 1146 l 1017 1146 l 1017 957 l 1268 957 l 1268 596 l 1017 596 l 1017 414 l 1308 414 z "},"作":{"ha":1389,"x_min":56,"x_max":1331,"o":"m 497 1125 q 356 828 446 986 l 356 -104 l 253 -104 l 253 668 q 115 503 192 582 q 56 606 89 568 q 399 1157 274 817 l 497 1125 m 903 832 l 903 633 l 1299 633 l 1299 538 l 903 538 l 903 328 l 1318 328 l 1318 231 l 903 231 l 903 -106 l 799 -106 l 799 832 l 703 832 q 506 543 611 661 q 425 613 472 579 q 731 1144 619 814 l 829 1118 q 753 931 800 1035 l 1331 931 l 1331 832 l 903 832 z "},"你":{"ha":1389,"x_min":28,"x_max":1326,"o":"m 468 1128 q 325 831 408 976 l 325 -103 l 226 -103 l 226 676 q 86 504 171 596 q 28 606 57 571 q 371 1157 243 817 l 468 1128 m 725 551 q 522 79 653 257 q 433 136 497 100 q 624 571 558 288 l 725 551 m 950 800 l 950 19 q 901 -86 950 -64 q 718 -107 858 -107 q 682 -3 710 -60 q 825 -4 715 -4 q 849 19 849 -4 l 849 800 l 638 800 q 503 561 578 658 q 421 626 464 597 q 649 1156 572 817 l 750 1133 q 676 896 718 1013 l 1239 896 l 1256 900 l 1326 883 q 1265 589 1297 718 l 1179 606 q 1211 800 1204 753 l 950 800 m 1142 582 q 1315 118 1275 335 l 1217 85 q 1051 551 1179 299 l 1142 582 z "},"佣":{"ha":1389,"x_min":28,"x_max":1288,"o":"m 468 1126 q 325 829 408 975 l 325 -104 l 226 -104 l 226 676 q 86 504 171 596 q 28 606 57 571 q 371 1157 249 821 l 468 1126 m 1189 418 l 1189 643 l 938 643 l 938 418 l 1189 418 m 839 418 l 839 643 l 603 643 l 603 560 q 599 418 603 493 l 839 418 m 603 963 l 603 735 l 839 735 l 839 963 l 603 963 m 1189 963 l 938 963 l 938 735 l 1189 735 l 1189 963 m 1288 18 q 1239 -86 1288 -61 q 1047 -104 1199 -104 q 1015 -7 1039 -56 q 1164 -8 1122 -11 q 1189 19 1189 -8 l 1189 326 l 938 326 l 938 -92 l 839 -92 l 839 326 l 590 326 q 439 -111 557 43 q 361 -46 404 -67 q 504 560 504 143 l 504 1056 l 1288 1056 l 1288 18 z "},"佩":{"ha":1389,"x_min":44,"x_max":1336,"o":"m 396 1129 q 300 850 358 992 l 300 -104 l 207 -104 l 207 657 q 99 489 151 560 q 44 593 79 546 q 304 1154 213 803 l 396 1129 m 596 865 l 1056 865 l 1056 781 l 875 781 l 875 633 l 1044 633 l 1044 161 q 1017 94 1044 110 q 921 79 994 79 q 894 149 914 115 l 963 149 q 975 161 975 149 l 975 568 l 865 568 l 865 -92 l 794 -92 l 794 568 l 679 568 l 679 76 l 610 76 l 610 633 l 785 633 l 785 781 l 596 781 l 596 865 m 1210 1092 q 1208 322 1204 508 q 1256 -7 1217 -7 q 1278 228 1278 -7 q 1336 165 1306 190 q 1313 -44 1329 8 q 1246 -103 1294 -103 q 1131 204 1153 -103 q 1119 1003 1121 340 l 538 1003 l 538 713 q 413 -107 538 168 q 338 -56 382 -74 q 450 713 450 197 l 450 1092 l 1210 1092 z "},"佳":{"ha":1389,"x_min":61,"x_max":1328,"o":"m 824 883 l 525 883 l 525 981 l 824 981 l 824 1163 l 926 1163 l 926 981 l 1238 981 l 1238 883 l 926 883 l 926 686 l 1300 686 l 1300 588 l 457 588 l 457 686 l 824 686 l 824 883 m 472 1129 q 338 825 419 982 l 338 -107 l 236 -107 l 236 657 q 119 504 186 582 q 61 606 97 554 q 375 1157 261 818 l 472 1129 m 1328 44 l 1328 -56 l 413 -56 l 413 44 l 824 44 l 824 276 l 496 276 l 496 374 l 824 374 l 824 533 l 926 533 l 926 374 l 1261 374 l 1261 276 l 926 276 l 926 44 l 1328 44 z "},"使":{"ha":1389,"x_min":32,"x_max":1344,"o":"m 485 1135 q 342 846 429 997 l 342 -112 l 243 -112 l 243 697 q 90 517 174 600 q 32 617 67 575 q 388 1165 258 831 l 485 1135 m 829 485 q 831 547 831 506 l 831 690 l 583 690 l 583 485 l 829 485 m 932 690 l 932 547 q 931 485 932 506 l 1188 485 l 1188 690 l 932 690 m 925 397 q 833 131 907 236 q 1344 -17 1033 21 q 1283 -110 1310 -51 q 772 58 976 -64 q 458 -111 661 -51 q 396 -26 432 -58 q 689 114 586 22 q 488 340 563 210 l 574 368 q 749 183 635 264 q 824 397 807 269 l 488 397 l 488 778 l 831 778 l 831 914 l 447 914 l 447 1008 l 831 1008 l 831 1157 l 932 1157 l 932 1008 l 1332 1008 l 1332 914 l 932 914 l 932 778 l 1286 778 l 1286 397 l 925 397 z "},"侄":{"ha":1389,"x_min":50,"x_max":1325,"o":"m 1206 544 q 1153 644 1174 608 q 489 585 533 603 q 451 686 481 629 q 538 729 508 699 q 739 988 588 772 l 479 988 l 479 1082 l 1299 1082 l 1299 988 l 858 988 q 651 706 738 814 l 1099 732 q 989 890 1039 826 l 1075 932 q 1299 592 1228 736 l 1206 544 m 463 1129 q 325 822 407 976 l 325 -104 l 224 -104 l 224 656 q 108 507 176 585 q 50 608 89 556 q 364 1160 253 825 l 463 1129 m 1325 39 l 1325 -57 l 418 -57 l 418 39 l 824 39 l 824 290 l 501 290 l 501 383 l 824 383 l 824 574 l 926 574 l 926 383 l 1261 383 l 1261 290 l 926 290 l 926 39 l 1325 39 z "},"侈":{"ha":1389,"x_min":36,"x_max":1310,"o":"m 742 943 q 485 769 626 843 q 417 840 460 806 q 815 1161 682 964 l 921 1139 q 832 1029 883 1085 l 1138 1029 l 1156 1033 l 1222 996 q 469 496 1038 633 q 417 576 447 546 q 772 700 613 619 q 633 796 682 769 l 714 847 q 860 750 789 806 q 1075 943 997 833 l 742 943 m 478 1128 q 333 822 413 958 l 333 -104 l 233 -104 l 233 665 q 93 492 174 579 q 36 597 71 550 q 379 1157 256 817 l 478 1128 m 1310 506 q 446 -112 1133 21 q 397 -26 432 -69 q 882 140 683 19 q 708 274 811 210 l 786 325 q 965 197 889 264 q 1172 446 1101 304 l 843 446 q 510 225 703 318 q 442 299 483 268 q 906 660 758 438 l 1014 638 q 933 536 968 575 l 1222 536 l 1242 540 l 1310 506 z "},"例":{"ha":1389,"x_min":50,"x_max":1278,"o":"m 392 1133 q 297 865 354 1004 l 297 -104 l 200 -104 l 200 668 q 101 522 149 581 q 50 626 85 576 q 299 1160 208 822 l 392 1133 m 415 1085 l 894 1085 l 894 988 l 660 988 q 611 779 642 882 l 789 779 l 806 782 l 865 767 q 463 -108 799 126 q 397 -29 439 -61 q 649 278 549 65 q 500 404 589 333 l 556 474 q 686 371 638 414 q 763 683 738 510 l 582 683 q 428 361 515 485 q 350 425 397 394 q 563 988 492 613 l 415 988 l 415 1085 m 1049 231 l 956 231 l 956 1001 l 1049 1001 l 1049 231 m 1278 1156 l 1278 33 q 1222 -76 1278 -53 q 1007 -96 1175 -96 q 974 6 1000 -50 q 1151 3 1054 3 q 1182 33 1182 4 l 1182 1156 l 1278 1156 z "},"侍":{"ha":1389,"x_min":32,"x_max":1329,"o":"m 472 1128 q 328 826 410 967 l 328 -104 l 228 -104 l 228 669 q 92 504 169 586 q 32 604 63 568 q 375 1157 251 821 l 472 1128 m 636 331 q 808 90 765 190 l 718 39 q 550 283 667 151 l 636 331 m 1126 617 l 1126 464 l 1319 464 l 1319 369 l 1126 369 l 1126 19 q 1068 -86 1126 -64 q 839 -104 1019 -104 q 804 -6 833 -68 q 993 -7 942 -10 q 1022 19 1022 -6 l 1022 369 l 440 369 l 440 464 l 1022 464 l 1022 617 l 421 617 l 421 713 l 822 713 l 822 889 l 507 889 l 507 983 l 822 983 l 822 1156 l 926 1156 l 926 983 l 1254 983 l 1254 889 l 926 889 l 926 713 l 1329 713 l 1329 617 l 1126 617 z "},"供":{"ha":1389,"x_min":35,"x_max":1329,"o":"m 474 1128 q 332 831 415 978 l 332 -104 l 231 -104 l 231 675 q 93 507 168 583 q 35 608 65 567 q 376 1158 250 817 l 474 1128 m 771 218 q 506 -103 664 32 q 424 -39 463 -60 q 672 249 581 82 l 771 218 m 1067 244 q 1314 -51 1229 92 l 1226 -108 q 986 199 1150 35 l 1067 244 m 744 428 l 1015 428 l 1015 767 l 744 767 l 744 428 m 1329 428 l 1329 326 l 432 326 l 432 428 l 644 428 l 644 767 l 465 767 l 465 867 l 644 867 l 644 1146 l 744 1146 l 744 867 l 1015 867 l 1015 1147 l 1115 1147 l 1115 867 l 1313 867 l 1313 767 l 1115 767 l 1115 428 l 1329 428 z "},"依":{"ha":1389,"x_min":51,"x_max":1344,"o":"m 856 907 q 760 1126 833 990 l 850 1156 q 953 943 925 1032 l 856 907 m 471 1132 q 325 814 413 975 l 325 -108 l 226 -108 l 226 656 q 110 508 174 582 q 51 610 88 556 q 374 1160 257 826 l 471 1132 m 1318 601 q 1028 374 1174 471 q 1344 17 1164 124 q 1268 -67 1307 -12 q 803 700 954 138 q 672 542 760 638 l 672 46 l 919 133 q 935 44 924 88 q 557 -111 593 -82 q 504 -33 540 -67 q 571 86 571 15 l 571 443 q 406 311 489 369 q 333 396 368 365 q 758 807 596 556 l 417 807 l 417 904 l 1307 904 l 1307 807 l 875 807 l 871 800 q 989 450 914 619 q 1243 672 1129 550 l 1318 601 z "},"侠":{"ha":1389,"x_min":49,"x_max":1339,"o":"m 463 1133 q 328 833 404 974 l 328 -110 l 228 -110 l 228 668 q 106 511 172 583 q 49 611 69 583 q 367 1161 250 826 l 463 1133 m 926 400 q 1339 -21 1043 76 q 1271 -106 1303 -51 q 868 300 997 -1 q 449 -110 769 32 q 378 -28 408 -51 q 793 400 724 111 l 415 400 l 415 496 l 810 496 q 817 661 817 565 l 817 867 l 461 867 l 461 964 l 817 964 l 817 1149 l 919 1149 l 919 964 l 1288 964 l 1288 867 l 919 867 l 919 660 q 911 496 919 563 l 1317 496 l 1317 400 l 926 400 m 597 819 q 697 571 672 681 l 604 536 q 511 790 588 642 l 597 819 m 1017 564 q 1128 819 1085 686 l 1228 783 q 1093 532 1125 581 l 1017 564 z "},"侣":{"ha":1389,"x_min":46,"x_max":1242,"o":"m 1092 1014 l 638 1014 l 638 731 l 1092 731 l 1092 1014 m 1193 638 l 540 638 l 540 1107 l 1193 1107 l 1193 638 m 438 1128 q 331 857 397 1003 l 331 -107 l 229 -107 l 229 669 q 100 486 169 568 q 46 590 78 539 q 343 1154 236 811 l 438 1128 m 1136 67 l 1136 379 l 582 379 l 582 67 l 1136 67 m 1242 474 l 1242 -94 l 1136 -94 l 1136 -28 l 582 -28 l 582 -103 l 481 -103 l 481 474 l 1242 474 z "},"侥":{"ha":1389,"x_min":49,"x_max":1335,"o":"m 688 986 q 660 1161 665 1074 l 761 1161 q 789 996 767 1078 l 1254 1042 l 1263 950 l 817 906 q 903 744 849 824 q 1126 901 1049 817 l 1218 864 q 960 676 1131 763 q 1160 576 1057 574 q 1203 607 1190 576 q 1219 713 1214 633 q 1303 672 1257 682 q 1258 521 1290 561 q 1157 482 1226 482 q 867 633 1000 482 q 486 517 690 561 q 424 603 454 571 q 810 704 629 638 q 715 896 747 799 l 419 867 l 410 958 l 688 986 m 457 1132 q 328 836 408 992 l 328 -104 l 229 -104 l 229 672 q 106 508 175 588 q 49 614 74 576 q 361 1160 244 822 l 457 1132 m 1197 -1 q 1232 24 1224 -1 q 1243 142 1240 50 q 1335 103 1274 118 q 1300 -49 1326 -10 q 1208 -87 1275 -87 l 1050 -87 q 940 -61 968 -87 q 913 38 913 -36 l 913 332 l 749 332 q 667 56 732 150 q 414 -110 590 -54 q 353 -26 392 -60 q 574 106 508 17 q 644 332 631 182 l 382 332 l 382 424 l 1299 424 l 1299 332 l 1018 332 l 1018 39 q 1026 7 1018 14 q 1064 -1 1035 -1 l 1197 -1 z "},"侦":{"ha":1389,"x_min":40,"x_max":1314,"o":"m 606 203 l 511 203 l 511 768 l 779 768 l 779 1158 l 881 1158 l 881 1042 l 1275 1042 l 1275 947 l 881 947 l 881 768 l 1218 768 l 1218 206 l 1119 206 l 1119 675 l 606 675 l 606 203 m 481 1131 q 339 833 428 989 l 339 -104 l 240 -104 l 240 679 q 99 507 181 594 q 40 608 74 568 q 383 1158 258 822 l 481 1131 m 810 582 l 908 582 l 908 390 q 835 133 908 239 q 469 -104 731 -14 q 408 -24 447 -57 q 749 178 656 53 q 810 392 810 263 l 810 582 m 968 179 q 1314 -29 1186 78 l 1253 -107 q 911 111 1131 4 l 968 179 z "},"侧":{"ha":1389,"x_min":42,"x_max":1278,"o":"m 492 214 l 408 214 l 408 1074 l 876 1074 l 876 217 l 790 217 l 790 996 l 492 996 l 492 214 m 375 1138 q 285 865 343 1022 l 285 -103 l 199 -103 l 199 672 q 96 499 143 567 q 42 596 79 547 q 285 1161 197 811 l 375 1138 m 681 432 q 421 -107 681 49 q 367 -46 404 -76 q 601 433 601 97 l 601 901 l 681 901 l 681 432 m 728 182 q 910 -43 850 51 l 843 -93 q 665 142 785 13 l 728 182 m 1071 204 l 988 204 l 988 1031 l 1071 1031 l 1071 204 m 1278 1150 l 1278 14 q 1232 -83 1278 -61 q 1050 -103 1192 -103 q 1022 -12 1043 -62 q 1164 -14 1089 -14 q 1190 14 1190 -12 l 1190 1150 l 1278 1150 z "},"侨":{"ha":1389,"x_min":31,"x_max":1343,"o":"m 464 1126 q 322 828 403 969 l 322 -106 l 226 -106 l 226 676 q 88 504 160 581 q 31 604 65 561 q 368 1156 247 821 l 464 1126 m 626 463 l 726 463 l 726 382 q 489 -114 726 63 q 414 -47 461 -75 q 626 385 626 106 l 626 463 m 982 461 l 1083 461 l 1083 -104 l 982 -104 l 982 461 m 1031 701 q 1343 446 1153 528 q 1275 368 1304 413 q 928 701 1056 481 l 788 701 q 418 358 664 479 q 356 442 397 400 q 675 701 557 529 l 410 701 l 410 794 l 726 794 q 792 981 765 872 q 522 961 640 967 q 494 1047 518 996 q 1156 1133 940 1075 l 1215 1047 q 896 992 1082 1011 q 832 794 871 882 l 1296 794 l 1296 701 l 1031 701 z "},"侮":{"ha":1389,"x_min":44,"x_max":1333,"o":"m 415 1126 q 314 854 365 972 l 314 -107 l 215 -107 l 215 660 q 99 486 165 571 q 44 590 78 542 q 321 1154 222 808 l 415 1126 m 618 911 q 468 679 547 772 q 381 735 421 717 q 615 1163 533 899 l 714 1138 q 661 1006 692 1075 l 1286 1006 l 1286 911 l 618 911 m 797 399 q 967 231 915 311 l 901 186 q 738 358 853 267 l 797 399 m 1103 186 q 1122 400 1110 240 l 621 400 q 590 186 611 319 l 1103 186 m 660 688 l 635 494 l 926 494 q 774 650 879 572 l 828 688 l 660 688 m 836 688 q 989 536 940 613 l 929 494 l 1128 494 l 1136 688 l 836 688 m 1218 400 q 1201 186 1210 272 l 1294 186 l 1294 94 l 1190 94 q 1143 -47 1174 -11 q 1047 -96 1111 -89 q 871 -94 975 -101 q 844 -6 868 -44 q 1007 -12 917 -12 q 1058 8 1043 -14 q 1090 94 1076 26 l 475 94 q 525 400 501 225 l 397 400 l 397 494 l 539 494 q 572 778 564 692 l 1236 778 l 1224 494 l 1333 494 l 1333 400 l 1218 400 z "},"侯":{"ha":1389,"x_min":60,"x_max":1335,"o":"m 971 840 q 996 1006 982 900 l 538 1006 l 538 1094 l 1017 1094 l 1033 1100 l 1106 1092 q 1069 840 1089 951 l 1310 840 l 1310 750 l 411 750 l 411 840 l 971 840 m 436 1128 q 326 838 397 994 l 326 -107 l 226 -107 l 226 644 q 117 482 178 558 q 60 586 82 554 q 342 1154 236 799 l 436 1128 m 915 244 q 1335 -17 1010 42 q 1278 -103 1299 -53 q 846 188 968 -37 q 447 -111 756 1 q 382 -35 421 -69 q 764 244 694 67 l 400 244 l 400 338 l 789 338 q 792 401 792 382 l 792 521 l 600 521 q 496 389 554 451 q 414 442 467 414 q 608 739 540 557 l 701 715 q 651 610 682 664 l 1231 610 l 1231 521 l 893 521 l 893 400 q 890 338 893 382 l 1300 338 l 1300 244 l 915 244 z "},"侵":{"ha":1389,"x_min":33,"x_max":1313,"o":"m 1210 674 l 528 674 l 528 751 l 1113 751 l 1113 853 l 568 853 l 568 932 l 1113 932 l 1113 1032 l 528 1032 l 528 1111 l 1210 1111 l 1210 674 m 474 1126 q 329 828 411 968 l 329 -104 l 231 -104 l 231 675 q 92 504 157 571 q 33 606 65 564 q 376 1156 249 817 l 474 1126 m 683 332 q 874 138 751 221 q 1067 332 1000 219 l 683 332 m 1196 392 q 957 88 1125 208 q 1301 -24 1107 8 q 1240 -108 1265 -56 q 871 31 1026 -65 q 461 -108 706 -62 q 414 -22 443 -58 q 789 89 635 13 q 588 324 661 189 l 611 332 l 551 332 l 551 415 l 1119 415 l 1138 419 l 1196 392 m 1313 586 l 1313 381 l 1221 381 l 1221 508 l 521 508 l 521 379 l 432 379 l 432 586 l 1313 586 z "},"便":{"ha":1389,"x_min":56,"x_max":1342,"o":"m 457 1128 q 325 821 399 961 l 325 -104 l 226 -104 l 226 653 q 115 504 181 582 q 56 606 90 560 q 360 1157 250 821 l 457 1128 m 832 431 q 833 504 833 454 l 833 574 l 592 574 l 592 431 l 832 431 m 592 650 l 833 650 l 833 793 l 592 793 l 592 650 m 935 793 l 935 650 l 1161 650 l 1161 793 l 935 793 m 1161 574 l 935 574 l 935 504 q 932 431 935 454 l 1161 431 l 1161 574 m 924 350 q 819 104 900 203 q 1342 -3 1021 19 q 1281 -99 1308 -39 q 746 33 956 -68 q 438 -111 633 -56 q 375 -26 406 -57 q 656 86 556 17 q 457 282 531 167 l 544 315 q 731 149 611 217 q 824 350 803 228 l 494 350 l 494 874 l 833 874 l 833 989 l 458 989 l 458 1082 l 1310 1082 l 1310 989 l 935 989 l 935 874 l 1263 874 l 1263 350 l 924 350 z "},"促":{"ha":1389,"x_min":31,"x_max":1336,"o":"m 422 1131 q 317 863 381 1000 l 317 -107 l 215 -107 l 215 674 q 85 489 164 582 q 31 593 63 542 q 328 1157 221 814 l 422 1131 m 628 721 l 1129 721 l 1129 1006 l 628 1006 l 628 721 m 931 35 q 1089 22 994 22 l 1336 22 q 1303 -75 1314 -19 l 1082 -75 q 796 -28 903 -75 q 592 171 667 29 q 436 -110 540 6 q 353 -47 403 -76 q 558 493 519 110 l 657 483 q 628 303 647 389 q 829 64 688 129 l 829 628 l 529 628 l 529 1099 l 1231 1099 l 1231 628 l 931 628 l 931 417 l 1256 417 l 1256 319 l 931 319 l 931 35 z "},"俄":{"ha":1389,"x_min":31,"x_max":1336,"o":"m 1225 815 q 1082 1078 1181 932 l 1160 1111 q 1306 854 1263 967 l 1225 815 m 422 1126 q 314 854 379 994 l 314 -107 l 215 -107 l 215 671 q 85 485 163 583 q 31 590 65 536 q 328 1154 221 811 l 422 1126 m 1279 550 q 1082 208 1201 360 q 1211 -10 1132 -10 q 1258 219 1253 -10 q 1336 167 1293 185 q 1296 -50 1325 8 q 1199 -108 1267 -108 q 1006 117 1074 -108 q 807 -57 917 21 q 738 17 783 -24 q 978 225 871 101 q 926 642 943 396 l 700 642 l 700 429 l 886 479 l 897 386 q 799 358 865 376 l 700 331 l 700 19 q 649 -85 700 -62 q 451 -104 603 -104 q 419 -7 444 -57 q 575 -7 542 -10 q 603 19 603 -7 l 603 304 l 392 246 l 363 346 q 603 406 468 368 l 603 642 l 374 642 l 374 733 l 603 733 l 603 954 q 403 907 533 935 q 372 988 399 940 q 813 1126 675 1058 l 889 1047 q 700 979 806 1011 l 700 733 l 922 733 q 911 1147 914 897 l 1013 1147 q 1019 733 1011 939 l 1306 733 l 1306 642 l 1024 642 q 1058 331 1038 456 q 1188 575 1135 442 l 1279 550 z "},"俊":{"ha":1389,"x_min":49,"x_max":1315,"o":"m 1008 788 q 1300 542 1206 643 l 1224 483 q 938 738 1124 597 l 1008 788 m 1189 763 q 1133 839 1169 794 q 489 775 535 793 q 457 869 472 836 q 540 921 485 872 q 758 1168 651 1010 l 857 1132 q 635 893 746 992 l 1065 922 q 944 1057 999 1001 l 1021 1101 q 1269 813 1186 936 l 1189 763 m 769 733 q 475 471 636 588 q 404 543 422 529 q 681 771 561 642 l 769 733 m 478 1131 q 338 831 415 969 l 338 -104 l 238 -104 l 238 672 q 107 508 175 583 q 49 610 88 560 q 381 1161 261 826 l 478 1131 m 675 357 q 861 165 743 249 q 1053 371 988 254 l 689 371 l 675 357 m 1193 428 q 950 111 1119 242 q 1315 -15 1118 19 q 1256 -101 1279 -51 q 864 54 1038 -56 q 425 -106 686 -53 q 372 -18 410 -64 q 779 115 601 19 q 613 293 676 197 q 482 183 538 222 q 410 254 443 229 q 742 594 626 394 l 833 561 q 761 457 799 507 l 1108 457 l 1126 461 l 1193 428 z "},"俏":{"ha":1389,"x_min":53,"x_max":1293,"o":"m 1293 1083 q 1136 824 1210 924 l 1047 861 q 1194 1124 1140 993 l 1293 1083 m 467 1129 q 329 819 411 972 l 329 -104 l 231 -104 l 231 658 q 111 504 182 586 q 53 606 94 546 q 371 1157 256 821 l 467 1129 m 628 817 q 489 1076 593 935 l 575 1117 q 721 863 685 976 l 628 817 m 1143 285 l 1143 433 l 625 433 l 625 285 l 1143 285 m 625 671 l 625 524 l 1143 524 l 1143 671 l 625 671 m 1244 24 q 1190 -82 1244 -58 q 974 -99 1149 -99 q 942 0 969 -58 q 1114 -3 1021 -3 q 1143 25 1143 -1 l 1143 196 l 625 196 l 625 -107 l 524 -107 l 524 768 l 838 768 l 838 1163 l 939 1163 l 939 768 l 1244 768 l 1244 24 z "},"俐":{"ha":1389,"x_min":46,"x_max":1276,"o":"m 421 1133 q 311 846 381 1001 l 311 -103 l 215 -103 l 215 663 q 101 494 163 572 q 46 600 79 551 q 326 1161 221 808 l 421 1133 m 693 615 q 893 364 774 526 l 835 279 q 693 488 797 340 l 693 -93 l 597 -93 l 597 449 q 390 88 499 213 q 336 181 374 124 q 588 643 492 350 l 375 643 l 375 736 l 597 736 l 597 963 q 411 926 500 940 q 381 1001 404 961 q 815 1118 679 1058 l 888 1043 q 693 983 799 1010 l 693 736 l 890 736 l 890 643 l 693 643 l 693 615 m 1042 206 l 953 206 l 953 1006 l 1042 1006 l 1042 206 m 1276 1144 l 1276 24 q 1224 -83 1276 -58 q 1021 -101 1179 -101 q 990 -4 1013 -51 q 1153 -7 1064 -7 q 1181 24 1181 -6 l 1181 1144 l 1276 1144 z "},"俗":{"ha":1389,"x_min":39,"x_max":1346,"o":"m 1218 772 q 933 1093 1128 901 l 1013 1147 q 1303 835 1217 953 l 1218 772 m 793 1113 q 503 750 674 907 q 418 814 472 781 q 696 1146 588 947 l 793 1113 m 460 1128 q 325 831 403 972 l 325 -106 l 226 -106 l 226 669 q 97 506 168 581 q 39 606 69 565 q 364 1157 246 822 l 460 1128 m 1165 414 q 846 750 971 551 q 540 414 726 551 l 1165 414 m 1075 43 l 1075 319 l 622 319 l 622 43 l 1075 43 m 915 885 l 894 842 q 1346 426 1049 581 q 1279 342 1300 390 q 1176 406 1228 371 l 1176 -99 l 1075 -99 l 1075 -51 l 622 -51 l 622 -108 l 524 -108 l 524 401 q 432 343 490 378 q 363 426 404 392 q 824 918 681 589 l 915 885 z "},"俘":{"ha":1389,"x_min":54,"x_max":1297,"o":"m 1271 1079 q 493 979 1007 1007 q 467 1064 488 1024 q 1204 1161 976 1097 l 1271 1079 m 1007 733 q 1144 1003 1092 865 l 1240 963 q 1088 699 1139 774 l 1007 733 m 838 715 q 764 947 817 811 l 853 974 q 931 749 907 840 l 838 715 m 610 700 q 510 919 583 786 l 594 951 q 697 738 668 825 l 610 700 m 449 1128 q 325 831 403 989 l 325 -104 l 225 -104 l 225 657 q 114 506 183 590 q 54 606 88 563 q 354 1157 240 815 l 449 1128 m 1297 263 l 924 263 l 924 1 q 876 -90 924 -69 q 700 -106 840 -106 q 668 -15 694 -72 q 800 -17 767 -19 q 824 3 824 -17 l 824 263 l 425 263 l 425 358 l 824 358 l 824 435 q 1018 588 918 492 l 518 588 l 518 682 l 1108 682 l 1131 688 l 1197 635 q 924 400 1078 501 l 924 358 l 1297 358 l 1297 263 z "},"保":{"ha":1389,"x_min":36,"x_max":1357,"o":"m 483 1129 q 342 840 418 968 l 342 -103 l 243 -103 l 243 689 q 94 511 178 597 q 36 611 60 579 q 386 1158 261 826 l 483 1129 m 626 750 l 1142 750 l 1142 1004 l 626 1004 l 626 750 m 992 392 q 1357 33 1144 149 q 1283 -49 1318 1 q 932 328 1085 79 l 932 -107 l 829 -107 l 829 324 q 458 -46 672 78 q 386 36 418 10 q 769 392 617 150 l 426 392 l 426 486 l 829 486 l 829 658 l 529 658 l 529 1097 l 1244 1097 l 1244 658 l 932 658 l 932 486 l 1321 486 l 1321 392 l 992 392 z "},"信":{"ha":1389,"x_min":50,"x_max":1313,"o":"m 849 942 q 753 1126 822 1013 l 840 1163 q 942 982 910 1063 l 849 942 m 451 1129 q 335 856 406 993 l 335 -111 l 239 -111 l 239 689 q 107 510 185 601 q 50 606 85 560 q 360 1157 244 815 l 451 1129 m 604 253 l 604 33 l 1125 33 l 1125 253 l 604 253 m 514 339 l 1217 339 l 1217 -103 l 1125 -103 l 1125 -53 l 604 -53 l 604 -107 l 514 -107 l 514 339 m 533 540 l 1203 540 l 1203 456 l 533 456 l 533 540 m 1203 650 l 533 650 l 533 735 l 1203 735 l 1203 650 m 1313 933 l 1313 846 l 433 846 l 433 933 l 1313 933 z "},"俩":{"ha":1389,"x_min":46,"x_max":1310,"o":"m 400 1129 q 310 871 368 1015 l 310 -107 l 214 -107 l 214 668 q 101 490 161 569 q 46 590 76 550 q 308 1154 215 807 l 400 1129 m 939 971 l 781 971 l 781 775 l 939 775 l 939 971 m 1025 971 l 1025 775 l 1269 775 l 1269 25 q 1222 -72 1269 -51 q 1033 -89 1182 -89 q 1003 3 1026 -49 q 1154 3 1121 0 q 1178 26 1178 3 l 1178 683 l 1025 683 q 1015 538 1022 603 q 1168 233 1124 361 l 1103 175 q 996 413 1071 272 q 851 99 956 224 q 788 161 824 135 q 939 683 933 326 l 779 683 q 767 522 776 607 q 867 347 840 411 l 810 286 q 746 415 785 350 q 601 107 704 235 q 536 172 576 144 q 689 683 679 336 l 535 683 l 535 -104 l 440 -104 l 440 775 l 690 775 l 690 971 l 413 971 l 413 1068 l 1310 1068 l 1310 971 l 1025 971 z "},"俭":{"ha":1389,"x_min":43,"x_max":1338,"o":"m 436 1131 q 314 831 385 975 l 314 -104 l 215 -104 l 215 653 q 97 489 160 564 q 43 594 82 533 q 342 1158 231 807 l 436 1131 m 569 731 q 396 606 488 661 q 333 689 365 658 q 807 1169 654 860 l 897 1138 l 885 1113 q 871 1086 875 1096 q 1338 714 1047 864 q 1285 622 1303 672 q 821 1007 1017 781 q 569 731 717 854 l 1113 731 l 1113 640 l 569 640 l 569 731 m 832 221 q 769 546 818 365 l 853 560 q 919 236 906 365 l 832 221 m 567 526 q 669 189 644 335 l 586 163 q 486 504 560 319 l 567 526 m 1229 514 q 1017 63 1114 233 l 1292 63 l 1292 -33 l 390 -33 l 390 63 l 922 63 q 1133 540 1046 276 l 1229 514 z "},"修":{"ha":1389,"x_min":33,"x_max":1344,"o":"m 425 1126 q 315 851 381 990 l 315 -107 l 215 -107 l 215 665 q 88 485 158 571 q 33 590 64 542 q 331 1154 224 810 l 425 1126 m 426 776 l 515 776 l 515 111 l 426 111 l 426 776 m 768 925 q 958 731 833 818 q 1156 925 1085 813 l 768 925 m 1285 985 q 1039 683 1206 800 q 1344 576 1169 613 q 1288 493 1308 540 q 957 628 1100 538 q 567 485 799 536 q 518 564 546 536 q 879 685 725 603 q 717 854 781 761 q 594 717 663 781 q 515 778 560 751 q 785 1163 694 928 l 879 1139 q 818 1011 850 1068 l 1208 1011 l 1225 1015 l 1285 985 m 1178 365 q 703 115 1024 199 q 649 182 678 157 q 1099 399 965 254 l 1178 365 m 1046 503 q 689 300 928 381 q 631 361 661 339 q 967 536 863 432 l 1046 503 m 1317 211 q 628 -103 1126 -15 q 574 -19 608 -58 q 1229 250 1050 47 l 1317 211 z "},"俯":{"ha":1389,"x_min":49,"x_max":1319,"o":"m 404 1128 q 304 846 367 992 l 304 -104 l 207 -104 l 207 650 q 104 490 161 567 q 49 590 76 554 q 313 1154 221 810 l 404 1128 m 822 875 q 756 669 794 767 l 756 -101 l 667 -101 l 667 486 q 593 378 632 426 q 550 456 578 411 q 735 896 679 618 l 822 875 m 1199 689 l 1317 689 l 1317 601 l 1199 601 l 1199 10 q 1153 -85 1199 -64 q 975 -101 1115 -101 q 946 -12 968 -60 q 1083 -14 978 -14 q 1108 10 1108 -12 l 1108 601 l 818 601 l 818 689 l 1108 689 l 1108 882 l 1199 882 l 1199 689 m 978 186 q 846 474 938 304 l 918 507 q 1054 225 1017 332 l 978 186 m 1319 1018 l 1319 926 l 528 926 l 528 569 q 425 -101 528 115 q 344 -50 389 -65 q 435 569 435 146 l 435 1018 l 846 1018 q 789 1149 824 1075 l 879 1172 q 949 1018 925 1083 l 1319 1018 z "},"俱":{"ha":1389,"x_min":31,"x_max":1324,"o":"m 642 307 l 1093 307 l 1093 433 l 642 433 l 642 307 m 642 1024 l 642 906 l 1093 906 l 1093 1024 l 642 1024 m 642 632 l 642 508 l 1093 508 l 1093 632 l 642 632 m 1093 831 l 642 831 l 642 708 l 1093 708 l 1093 831 m 543 307 l 543 1110 l 1194 1110 l 1194 307 l 1322 307 l 1322 214 l 406 214 l 406 307 l 543 307 m 469 1131 q 328 833 411 979 l 328 -104 l 229 -104 l 229 678 q 89 507 171 593 q 31 607 61 569 q 372 1160 247 822 l 469 1131 m 779 139 q 463 -108 669 1 q 397 -37 433 -69 q 697 194 589 60 l 779 139 m 1026 193 q 1324 -36 1231 58 l 1254 -108 q 961 131 1157 -4 l 1026 193 z "},"俺":{"ha":1389,"x_min":32,"x_max":1350,"o":"m 464 1126 q 321 819 399 957 l 321 -104 l 221 -104 l 221 663 q 92 503 157 571 q 32 606 65 561 q 367 1157 244 819 l 464 1126 m 792 244 l 792 372 l 603 372 l 603 244 l 792 244 m 760 900 q 604 654 694 761 l 792 654 l 792 765 l 890 765 l 890 654 l 1101 654 q 946 900 1007 764 l 760 900 m 890 451 l 1092 451 l 1092 571 l 890 571 l 890 451 m 603 451 l 792 451 l 792 571 l 603 571 l 603 451 m 1092 244 l 1092 372 l 890 372 l 890 244 l 1092 244 m 890 160 l 890 50 q 903 -1 890 11 q 960 -12 915 -12 l 1167 -12 q 1217 19 1204 -12 q 1233 151 1229 49 q 1322 114 1265 128 q 1283 -56 1313 -11 q 1175 -101 1253 -101 l 950 -101 q 825 -71 857 -101 q 792 50 792 -39 l 792 160 l 603 160 l 603 99 l 508 99 l 508 558 q 414 485 454 511 q 343 565 390 525 q 650 900 538 682 l 419 900 l 419 993 l 693 993 q 746 1163 721 1065 l 844 1143 q 799 993 824 1060 l 1321 993 l 1321 900 l 1046 900 q 1350 579 1161 674 q 1281 500 1310 544 q 1188 568 1226 533 l 1188 160 l 890 160 z "},"倍":{"ha":1389,"x_min":46,"x_max":1328,"o":"m 1286 915 l 486 915 l 486 1007 l 840 1007 q 801 1157 832 1054 l 894 1174 q 943 1007 933 1076 l 1286 1007 l 1286 915 m 669 631 q 586 872 651 739 l 671 897 q 760 660 733 785 l 669 631 m 465 1129 q 325 822 410 974 l 325 -107 l 226 -107 l 226 664 q 104 508 168 579 q 46 608 79 561 q 371 1160 253 825 l 465 1129 m 647 310 l 647 47 l 1106 47 l 1106 310 l 647 310 m 550 403 l 1207 403 l 1207 -101 l 1106 -101 l 1106 -46 l 647 -46 l 647 -106 l 550 -106 l 550 403 m 1328 618 l 1328 524 l 432 524 l 432 618 l 963 618 q 1075 903 1032 760 l 1174 878 q 1061 618 1110 715 l 1328 618 z "},"倒":{"ha":1389,"x_min":32,"x_max":1274,"o":"m 1072 235 l 982 235 l 982 1047 l 1072 1047 l 1072 235 m 406 1129 q 300 849 369 1007 l 300 -107 l 204 -107 l 204 664 q 83 485 149 568 q 32 592 69 528 q 314 1156 211 810 l 406 1129 m 685 156 l 924 203 l 931 118 l 369 1 l 351 96 q 589 138 421 106 l 589 351 l 388 351 l 388 439 l 589 439 l 589 594 l 685 594 l 685 439 l 901 439 l 901 351 l 685 351 l 685 156 m 786 903 q 946 626 901 743 l 869 589 q 826 681 856 626 q 421 608 456 625 q 388 699 407 658 q 446 757 413 704 q 550 974 499 838 l 410 974 l 410 1063 l 918 1063 l 918 974 l 651 974 q 521 721 597 839 l 786 756 q 713 872 736 836 l 786 903 m 1274 1122 l 1274 46 q 1215 -60 1274 -36 q 997 -78 1168 -78 q 958 15 989 -37 q 1149 14 1099 11 q 1179 46 1179 15 l 1179 1122 l 1274 1122 z "},"倔":{"ha":1389,"x_min":56,"x_max":1285,"o":"m 456 1131 q 336 840 404 978 l 336 -104 l 238 -104 l 238 664 q 115 497 178 571 q 56 599 97 544 q 358 1157 243 808 l 456 1131 m 592 1014 l 592 843 l 1176 843 l 1176 1014 l 592 1014 m 592 756 l 592 679 q 476 -107 592 154 q 396 -53 443 -74 q 496 679 496 183 l 496 1103 l 1274 1103 l 1274 756 l 592 756 m 1285 274 l 1285 -100 l 1197 -100 l 1197 -50 l 653 -50 l 653 275 l 739 275 l 739 35 l 921 35 l 921 353 l 678 353 l 678 660 l 761 660 l 761 438 l 921 438 l 921 713 l 1008 713 l 1008 438 l 1175 438 l 1175 660 l 1263 660 l 1263 353 l 1008 353 l 1008 35 l 1197 35 l 1197 274 l 1285 274 z "},"倘":{"ha":1389,"x_min":51,"x_max":1264,"o":"m 1264 1085 q 1061 804 1153 907 l 985 836 q 1167 1117 1093 967 l 1264 1085 m 422 1128 q 317 843 378 985 l 317 -107 l 218 -107 l 218 651 q 107 485 175 575 q 51 590 85 542 q 328 1154 228 808 l 422 1128 m 644 801 q 457 1076 581 936 l 532 1117 q 724 849 661 978 l 644 801 m 761 440 l 761 229 l 953 229 l 953 440 l 761 440 m 761 147 l 761 75 l 676 75 l 676 522 l 1038 522 l 1038 147 l 761 147 m 1256 17 q 1203 -86 1256 -65 q 985 -103 1160 -103 q 951 -10 976 -54 q 1126 -10 1090 -12 q 1156 17 1156 -10 l 1156 640 l 560 640 l 560 -107 l 463 -107 l 463 733 l 806 733 l 806 1163 l 907 1163 l 907 733 l 1256 733 l 1256 17 z "},"候":{"ha":1389,"x_min":50,"x_max":1340,"o":"m 1315 753 l 561 753 l 561 842 l 1061 842 l 1089 1007 l 639 1007 l 639 1094 l 1108 1094 l 1125 1100 l 1196 1092 q 1160 842 1185 994 l 1315 842 l 1315 753 m 418 1128 q 304 822 374 976 l 304 -108 l 206 -108 l 206 632 q 106 485 154 546 q 50 589 83 549 q 324 1154 224 801 l 418 1128 m 415 864 l 506 864 l 506 163 l 415 163 l 415 864 m 1006 254 q 1340 -14 1079 51 q 1279 -99 1300 -51 q 946 167 1044 -32 q 586 -110 863 -6 q 521 -33 560 -65 q 875 254 821 64 l 564 254 l 564 344 l 889 344 l 889 525 l 736 525 q 633 374 693 442 q 553 428 596 403 q 725 744 664 542 l 818 722 q 778 613 801 667 l 1272 613 l 1272 525 l 990 525 l 990 344 l 1318 344 l 1318 254 l 1006 254 z "},"倚":{"ha":1389,"x_min":29,"x_max":1329,"o":"m 825 1018 q 842 1151 838 1075 l 947 1151 q 931 1018 940 1076 l 1290 1018 l 1290 929 l 910 929 l 893 885 q 1286 694 1133 788 l 1222 615 q 850 810 1075 710 q 472 614 750 671 q 418 696 454 657 q 801 929 729 753 l 463 929 l 463 1018 l 825 1018 m 469 1126 q 325 828 404 963 l 325 -104 l 226 -104 l 226 675 q 88 504 158 579 q 29 606 61 564 q 371 1157 246 818 l 469 1126 m 604 329 l 604 163 l 842 163 l 842 329 l 604 329 m 604 85 l 604 4 l 513 4 l 513 406 l 936 406 l 936 85 l 604 85 m 1329 511 l 1204 511 l 1204 8 q 1144 -93 1204 -72 q 906 -108 1100 -108 q 874 -17 899 -68 q 1074 -18 1018 -21 q 1103 8 1103 -17 l 1103 511 l 403 511 l 403 603 l 1329 603 l 1329 511 z "},"借":{"ha":1389,"x_min":51,"x_max":1319,"o":"m 490 1128 q 346 826 428 967 l 346 -104 l 247 -104 l 247 674 q 110 506 185 582 q 51 606 82 568 q 393 1157 268 818 l 490 1128 m 703 414 l 703 272 l 1115 272 l 1115 414 l 703 414 m 1115 42 l 1115 188 l 703 188 l 703 42 l 1115 42 m 601 503 l 1219 503 l 1219 -103 l 1115 -103 l 1115 -44 l 703 -44 l 703 -106 l 601 -106 l 601 503 m 792 707 l 1014 707 l 1014 889 l 792 889 l 792 707 m 1319 707 l 1319 613 l 485 613 l 485 707 l 693 707 l 693 889 l 524 889 l 524 981 l 693 981 l 693 1161 l 792 1161 l 792 981 l 1014 981 l 1014 1161 l 1114 1161 l 1114 981 l 1292 981 l 1292 889 l 1114 889 l 1114 707 l 1319 707 z "},"倡":{"ha":1389,"x_min":38,"x_max":1265,"o":"m 1097 1022 l 619 1022 l 619 893 l 1097 893 l 1097 1022 m 1097 814 l 619 814 l 619 682 l 1097 682 l 1097 814 m 1201 599 l 518 599 l 518 1106 l 1201 1106 l 1201 599 m 463 1128 q 322 818 410 981 l 322 -104 l 221 -104 l 221 654 q 99 499 169 579 q 38 606 72 561 q 364 1157 246 821 l 463 1128 m 1160 39 l 1160 186 l 560 186 l 560 39 l 1160 39 m 560 413 l 560 274 l 1160 274 l 1160 413 l 560 413 m 1265 501 l 1265 -99 l 1160 -99 l 1160 -51 l 560 -51 l 560 -106 l 458 -106 l 458 501 l 1265 501 z "},"倦":{"ha":1389,"x_min":50,"x_max":1317,"o":"m 1183 1094 q 1057 897 1124 979 q 979 939 1038 914 q 1097 1119 1043 1013 l 1183 1094 m 639 907 q 518 1088 606 968 l 589 1129 q 714 956 686 1008 l 639 907 m 458 1128 q 325 824 404 971 l 325 -101 l 226 -101 l 226 658 q 110 504 165 565 q 50 606 85 560 q 361 1157 250 821 l 458 1128 m 1074 440 q 992 569 1029 499 l 736 569 q 647 440 692 492 l 1074 440 m 1089 569 q 1317 351 1182 419 q 1251 278 1275 319 q 1090 419 1169 325 l 1090 219 q 1049 138 1090 156 q 889 124 1019 124 q 860 203 883 158 q 979 203 956 200 q 999 219 999 203 l 999 356 l 679 356 l 679 47 q 696 6 679 15 q 774 -4 714 -4 l 1046 -4 q 1108 22 1093 -4 q 1128 149 1122 50 q 1217 113 1165 122 q 1175 -51 1207 -11 q 1053 -93 1142 -93 l 768 -93 q 624 -65 661 -93 q 585 47 585 -36 l 585 371 q 446 256 513 299 q 374 335 413 306 q 619 569 525 428 l 407 569 l 407 654 l 669 654 q 733 797 696 701 l 494 797 l 494 882 l 761 882 q 821 1163 797 1007 l 921 1150 q 864 882 896 997 l 1231 882 l 1231 797 l 838 797 q 779 654 811 718 l 1313 654 l 1313 569 l 1089 569 z "},"债":{"ha":1389,"x_min":56,"x_max":1315,"o":"m 814 960 l 465 960 l 465 1042 l 814 1042 l 814 1161 l 910 1161 l 910 1042 l 1239 1042 l 1239 960 l 910 960 l 910 872 l 1203 872 l 1203 797 l 910 797 l 910 697 l 1299 697 l 1299 619 l 429 619 l 429 697 l 814 697 l 814 797 l 507 797 l 507 872 l 814 872 l 814 960 m 1124 146 l 1124 463 l 599 463 l 599 146 l 504 146 l 504 536 l 1221 536 l 1221 146 l 1124 146 m 436 1131 q 325 846 393 996 l 325 -104 l 226 -104 l 226 663 q 118 504 182 588 q 56 606 90 564 q 339 1157 233 813 l 436 1131 m 900 258 q 826 69 900 147 q 458 -108 722 -42 q 397 -33 439 -69 q 742 110 647 18 q 803 261 803 169 l 803 379 l 900 379 l 900 258 m 949 136 q 1315 -24 1179 57 l 1261 -97 q 897 71 1122 -12 l 949 136 z "},"值":{"ha":1389,"x_min":50,"x_max":1326,"o":"m 463 1131 q 321 814 406 967 l 321 -106 l 225 -106 l 225 660 q 107 508 175 586 q 50 610 90 550 q 369 1160 254 825 l 463 1131 m 625 24 l 1107 24 l 1107 138 l 625 138 l 625 24 m 625 719 l 625 603 l 1107 603 l 1107 719 l 625 719 m 1107 526 l 625 526 l 625 408 l 1107 408 l 1107 526 m 625 214 l 1107 214 l 1107 333 l 625 333 l 625 214 m 1326 24 l 1326 -65 l 400 -65 l 400 24 l 532 24 l 532 800 l 771 800 l 797 929 l 458 929 l 458 1019 l 813 1019 q 831 1161 826 1119 l 940 1154 l 914 1019 l 1285 1019 l 1285 929 l 896 929 q 864 800 868 811 l 1203 800 l 1203 24 l 1326 24 z "},"倾":{"ha":1389,"x_min":29,"x_max":1329,"o":"m 922 843 q 965 986 950 922 l 696 986 l 696 1075 l 1324 1075 l 1324 986 l 1074 986 q 1015 843 1049 917 l 1260 843 l 1260 204 l 1167 204 l 1167 753 l 844 753 l 844 201 l 754 201 l 754 843 l 922 843 m 399 1132 q 301 872 360 1008 l 301 -106 l 207 -106 l 207 683 q 81 493 147 574 q 29 597 61 547 q 306 1158 207 814 l 399 1132 m 689 363 q 692 276 686 314 q 435 118 463 149 q 394 210 426 156 q 435 297 435 232 l 435 1010 l 525 1010 l 525 749 l 701 749 l 701 660 l 525 660 l 525 283 l 689 363 m 1043 393 q 989 124 1043 228 q 701 -110 910 -26 q 646 -46 679 -69 q 958 394 958 74 l 958 681 l 1043 681 l 1043 393 m 1069 168 q 1329 -33 1246 53 l 1269 -107 q 1011 106 1176 -7 l 1069 168 z "},"假":{"ha":1389,"x_min":54,"x_max":1339,"o":"m 1261 672 l 872 672 l 872 761 l 1165 761 l 1165 1011 l 872 1011 l 872 1100 l 1261 1100 l 1261 672 m 392 1133 q 300 846 357 996 l 300 -106 l 201 -106 l 201 633 q 108 488 151 544 q 54 592 83 551 q 296 1154 210 793 l 392 1133 m 533 1013 l 533 758 l 725 758 l 725 1013 l 533 1013 m 533 174 l 533 -103 l 438 -103 l 438 1100 l 817 1100 l 817 669 l 533 669 l 533 521 l 786 521 l 786 433 l 533 433 l 533 261 l 801 261 l 801 174 l 533 174 m 940 478 q 1054 222 982 329 q 1169 478 1131 331 l 940 478 m 1281 549 q 1110 144 1232 303 q 1339 -26 1208 26 q 1276 -104 1304 -54 q 1050 75 1147 -46 q 769 -108 933 -43 q 717 -32 746 -61 q 996 150 881 25 q 860 463 911 279 l 924 478 l 833 478 l 833 565 l 1204 565 l 1221 568 l 1281 549 z "},"偎":{"ha":1389,"x_min":53,"x_max":1338,"o":"m 1131 1025 l 919 1025 l 919 889 l 1131 889 l 1131 1025 m 1131 813 l 919 813 l 919 674 l 1131 674 l 1131 813 m 618 674 l 829 674 l 829 813 l 618 813 l 618 674 m 618 889 l 829 889 l 829 1025 l 618 1025 l 618 889 m 1226 593 l 526 593 l 526 1107 l 1226 1107 l 1226 593 m 471 1128 q 332 821 414 968 l 332 -108 l 232 -108 l 232 658 q 111 506 172 571 q 53 606 86 558 q 375 1157 260 821 l 471 1128 m 1265 276 q 1060 144 1190 215 q 1338 -33 1174 19 q 1274 -117 1303 -61 q 822 392 946 7 l 668 392 l 668 24 l 900 76 q 900 -14 897 13 q 558 -114 593 -92 q 519 -15 547 -58 q 571 78 571 13 l 571 392 l 426 392 l 426 483 l 1326 483 l 1326 392 l 915 392 q 1008 208 953 286 q 1200 343 1128 279 l 1265 276 z "},"偏":{"ha":1389,"x_min":47,"x_max":1286,"o":"m 488 1126 q 343 828 422 963 l 343 -103 l 244 -103 l 244 675 q 104 506 178 582 q 47 606 82 561 q 392 1157 265 818 l 488 1126 m 594 925 l 594 765 l 1164 765 l 1164 925 l 594 925 m 594 678 q 475 -92 589 174 q 396 -32 443 -54 q 499 728 499 218 l 499 1011 l 847 1011 q 788 1142 825 1072 l 879 1165 q 953 1011 922 1096 l 1265 1011 l 1265 678 l 594 678 m 1203 293 l 1203 501 l 1075 501 l 1075 293 l 1203 293 m 1004 293 l 1004 501 l 882 501 l 882 293 l 1004 293 m 811 293 l 811 501 l 694 501 l 694 293 l 811 293 m 1286 0 q 1251 -81 1286 -61 q 1125 -97 1219 -97 q 1097 -17 1119 -68 q 1186 -17 1165 -19 q 1203 0 1203 -17 l 1203 211 l 1075 211 l 1075 -58 l 1004 -58 l 1004 211 l 882 211 l 882 -64 l 811 -64 l 811 211 l 694 211 l 694 -99 l 611 -99 l 611 583 l 1286 583 l 1286 0 z "},"做":{"ha":1389,"x_min":31,"x_max":1344,"o":"m 422 1128 q 311 850 381 1000 l 311 -107 l 215 -107 l 215 674 q 85 490 158 578 q 31 594 56 557 q 328 1154 221 814 l 422 1128 m 982 804 l 974 778 q 1069 339 1006 506 q 1174 804 1143 515 l 982 804 m 732 446 l 510 446 l 510 136 l 732 136 l 732 446 m 1265 804 q 1118 231 1222 439 q 1344 -25 1208 61 q 1281 -107 1297 -72 q 1067 140 1153 -18 q 814 -108 968 -11 q 749 -37 789 -72 q 1019 235 921 60 q 915 624 949 401 q 849 499 885 556 l 838 514 q 824 533 828 526 l 824 46 l 510 46 l 510 -44 l 418 -44 l 418 536 l 574 536 l 574 799 l 382 799 l 382 893 l 574 893 l 574 1146 l 672 1146 l 672 893 l 851 893 l 851 799 l 672 799 l 672 536 l 821 536 q 783 578 801 563 q 965 1161 910 771 l 1058 1146 q 1006 894 1035 1003 l 1329 894 l 1329 804 l 1265 804 z "},"停":{"ha":1389,"x_min":51,"x_max":1317,"o":"m 463 1131 q 319 814 400 963 l 319 -106 l 224 -106 l 224 658 q 107 507 178 590 q 51 608 88 557 q 368 1160 256 825 l 463 1131 m 553 335 l 1189 335 l 1189 250 l 926 250 l 926 7 q 871 -87 926 -69 q 650 -101 828 -101 q 615 -11 642 -58 q 797 -12 749 -15 q 825 10 825 -11 l 825 250 l 553 250 l 553 335 m 432 524 l 1315 524 l 1315 297 l 1222 297 l 1222 438 l 522 438 l 522 299 l 432 299 l 432 524 m 1101 800 l 649 800 l 649 685 l 1101 685 l 1101 800 m 1201 875 l 1201 610 l 554 610 l 554 875 l 1201 875 m 1317 1038 l 1317 950 l 453 950 l 453 1038 l 836 1038 q 783 1142 808 1100 l 875 1169 q 947 1038 921 1106 l 1317 1038 z "},"健":{"ha":1389,"x_min":53,"x_max":1331,"o":"m 1015 861 l 1144 861 l 1144 967 l 1015 967 l 1015 861 m 1144 781 l 1015 781 l 1015 672 l 1144 672 l 1144 781 m 926 781 l 682 781 l 682 861 l 926 861 l 926 967 l 746 967 l 746 1046 l 926 1046 l 926 1161 l 1015 1161 l 1015 1046 l 1226 1046 l 1226 861 l 1324 861 l 1324 781 l 1226 781 l 1226 593 l 1015 593 l 1015 492 l 1254 492 l 1254 407 l 1015 407 l 1015 299 l 1299 299 l 1299 214 l 1015 214 l 1015 47 l 926 47 l 926 214 l 688 214 l 688 299 l 926 299 l 926 407 l 722 407 l 722 492 l 926 492 l 926 593 l 746 593 l 746 672 l 926 672 l 926 781 m 396 1133 q 297 856 360 1003 l 297 -104 l 206 -104 l 206 674 q 104 522 157 590 q 53 628 90 568 q 304 1158 215 824 l 396 1133 m 692 646 q 588 168 664 346 q 1094 -1 749 -1 q 1331 0 1279 -1 q 1299 -87 1304 -43 l 1089 -87 q 550 86 724 -87 q 385 -107 482 -37 q 318 -42 361 -71 q 489 158 422 28 q 367 415 413 263 l 442 446 q 526 247 474 333 q 597 574 574 372 l 388 574 q 550 971 465 738 l 397 971 l 397 1061 l 678 1061 q 515 657 590 825 l 628 657 l 638 658 l 692 646 z "},"偶":{"ha":1389,"x_min":46,"x_max":1299,"o":"m 467 1128 q 325 818 407 964 l 325 -108 l 226 -108 l 226 660 q 104 504 168 575 q 46 606 82 554 q 371 1157 250 818 l 467 1128 m 826 665 l 826 801 l 613 801 l 613 665 l 826 665 m 613 879 l 826 879 l 826 1014 l 613 1014 l 613 879 m 1142 1014 l 918 1014 l 918 879 l 1142 879 l 1142 1014 m 1142 801 l 918 801 l 918 665 l 1142 665 l 1142 801 m 1299 1 q 1247 -93 1299 -74 q 1032 -108 1200 -111 q 1003 -21 1025 -65 q 1175 -22 1114 -26 q 1203 3 1203 -21 l 1203 386 l 918 386 l 918 211 l 1049 222 q 999 318 1032 257 l 1061 342 q 1185 76 1156 189 l 1118 50 q 1083 147 1110 81 l 613 93 l 593 183 l 826 203 l 826 386 l 549 386 l 549 -107 l 450 -107 l 450 475 l 826 475 l 826 583 l 515 583 l 515 1096 l 1242 1096 l 1242 583 l 918 583 l 918 475 l 1299 475 l 1299 1 z "},"偷":{"ha":1389,"x_min":51,"x_max":1324,"o":"m 422 1128 q 317 844 378 983 l 317 -107 l 218 -107 l 218 651 q 107 485 175 575 q 51 590 85 542 q 328 1154 228 808 l 422 1128 m 746 265 l 746 378 l 546 378 l 546 265 l 746 265 m 546 563 l 546 456 l 746 456 l 746 563 l 546 563 m 833 10 q 797 -78 833 -60 q 665 -96 767 -96 q 639 -6 658 -51 q 729 -7 681 -7 q 746 10 746 -6 l 746 186 l 546 186 l 546 -101 l 456 -101 l 456 646 l 833 646 l 833 10 m 1096 735 l 579 735 l 579 819 l 1096 819 l 1096 735 m 1029 122 l 946 122 l 946 619 l 1029 619 l 1029 122 m 1147 671 l 1235 671 l 1235 11 q 1190 -82 1235 -62 q 1019 -99 1153 -99 q 989 -10 1013 -54 q 1125 -10 1097 -12 q 1147 11 1147 -10 l 1147 671 m 921 1129 l 899 1099 q 1324 838 1046 946 q 1263 758 1279 799 q 847 1039 1007 874 q 429 746 674 854 q 363 822 396 793 q 838 1168 682 949 l 921 1129 z "},"偿":{"ha":1389,"x_min":44,"x_max":1325,"o":"m 1247 1099 q 1099 918 1169 992 l 1017 950 q 1144 1136 1086 1033 l 1247 1099 m 539 647 l 439 647 l 439 914 l 631 914 q 503 1092 586 999 l 589 1133 q 724 956 683 1036 l 646 914 l 813 914 l 813 1165 l 915 1165 l 915 914 l 1297 914 l 1297 647 l 1194 647 l 1194 824 l 539 824 l 539 647 m 557 575 l 557 671 l 1188 671 l 1188 575 l 557 575 m 419 1126 q 315 851 382 1001 l 315 -107 l 215 -107 l 215 660 q 100 490 168 578 q 44 597 81 540 q 325 1153 224 813 l 419 1126 m 831 346 q 614 54 728 181 l 1101 99 q 985 253 1060 161 l 1071 297 q 1315 -47 1246 90 l 1222 -99 q 1160 13 1204 -60 q 482 -68 531 -49 q 444 39 461 -3 q 531 107 475 42 q 700 346 610 194 l 401 346 l 401 444 l 1325 444 l 1325 346 l 831 346 z "},"傅":{"ha":1389,"x_min":28,"x_max":1336,"o":"m 924 782 l 924 697 l 1157 697 l 1157 782 l 924 782 m 1157 542 l 1157 629 l 924 629 l 924 542 l 1157 542 m 825 542 l 825 629 l 597 629 l 597 542 l 825 542 m 597 782 l 597 697 l 825 697 l 825 782 l 597 782 m 825 1024 l 825 1157 l 924 1157 l 924 1024 l 1135 1024 q 1000 1106 1060 1074 l 1057 1156 q 1229 1058 1157 1106 l 1196 1024 l 1317 1024 l 1317 940 l 924 940 l 924 856 l 1256 856 l 1256 394 l 1157 394 l 1157 474 l 924 474 l 924 407 l 825 407 l 825 474 l 597 474 l 597 393 l 500 393 l 500 856 l 825 856 l 825 940 l 446 940 l 446 1024 l 825 1024 m 468 1126 q 325 829 407 971 l 325 -104 l 226 -104 l 226 676 q 86 506 168 592 q 28 606 53 578 q 371 1157 247 819 l 468 1126 m 628 219 q 811 33 756 100 l 733 -22 q 551 174 657 72 l 628 219 m 1336 243 l 1135 243 l 1135 4 q 1082 -92 1135 -72 q 864 -106 1039 -106 q 832 -17 858 -67 q 1008 -18 964 -21 q 1036 7 1036 -17 l 1036 243 l 408 243 l 408 328 l 1036 328 l 1036 429 l 1135 429 l 1135 328 l 1336 328 l 1336 243 z "},"傍":{"ha":1389,"x_min":49,"x_max":1301,"o":"m 1264 947 l 475 947 l 475 1032 l 836 1032 q 803 1163 825 1101 l 903 1176 q 944 1032 931 1101 l 1264 1032 l 1264 947 m 469 1128 q 325 813 407 961 l 325 -104 l 226 -104 l 226 656 q 107 506 178 585 q 49 606 86 560 q 374 1157 256 822 l 469 1128 m 897 640 q 940 500 932 547 l 1275 500 l 1275 413 l 789 413 q 772 285 782 340 l 1208 285 l 1206 243 q 1138 -71 1183 -25 q 1051 -104 1108 -100 q 888 -103 1010 -108 q 860 -15 885 -54 q 1006 -21 922 -21 q 1053 -10 1039 -21 q 1097 197 1081 19 l 753 197 q 467 -111 688 -19 q 404 -36 449 -72 q 619 138 556 21 q 686 413 672 232 l 461 413 l 461 500 l 832 500 q 797 625 821 560 l 897 640 m 1301 768 l 1301 549 l 1199 549 l 1199 685 l 543 685 l 543 549 l 442 549 l 442 768 l 665 768 q 619 921 650 850 l 714 939 q 768 778 757 843 l 728 768 l 976 768 q 1043 946 1021 865 l 1151 926 q 1079 768 1119 849 l 1301 768 z "},"储":{"ha":1389,"x_min":39,"x_max":1326,"o":"m 560 838 q 404 1038 511 928 l 475 1085 q 635 892 592 974 l 560 838 m 390 1140 q 288 851 349 993 l 288 -103 l 197 -103 l 197 668 q 92 504 144 575 q 39 600 68 560 q 304 1164 201 808 l 390 1140 m 706 194 q 731 111 711 164 q 482 -57 510 -25 q 432 28 464 -7 q 482 135 482 64 l 482 622 l 346 622 l 346 721 l 572 721 l 572 117 l 706 194 m 1174 417 l 874 417 l 874 278 l 1174 278 l 1174 417 m 1174 56 l 1174 199 l 874 199 l 874 56 l 1174 56 m 971 743 l 1001 743 q 1122 917 1064 822 l 971 917 l 971 743 m 1043 649 q 904 503 982 575 l 1267 503 l 1267 -96 l 1174 -96 l 1174 -31 l 874 -31 l 874 -101 l 785 -101 l 785 403 q 682 332 711 350 q 615 411 660 367 q 918 649 776 503 l 656 649 l 656 743 l 876 743 l 876 917 l 696 917 l 696 1006 l 876 1006 l 876 1163 l 971 1163 l 971 1006 l 1132 1006 l 1132 933 q 1224 1115 1186 1024 l 1315 1090 q 1118 743 1235 901 l 1326 743 l 1326 649 l 1043 649 z "},"催":{"ha":1389,"x_min":49,"x_max":1326,"o":"m 1264 793 l 507 793 l 507 1097 l 601 1097 l 601 885 l 842 885 l 842 1160 l 940 1160 l 940 885 l 1165 885 l 1165 1097 l 1264 1097 l 1264 793 m 417 1126 q 321 865 379 1006 l 321 -107 l 222 -107 l 222 667 q 104 486 167 568 q 49 590 74 550 q 322 1154 221 804 l 417 1126 m 610 46 l 890 46 l 890 158 l 610 158 l 610 46 m 890 536 l 610 536 l 610 429 l 890 429 l 890 536 m 890 350 l 610 350 l 610 238 l 890 238 l 890 350 m 1326 -43 l 610 -43 l 610 -108 l 515 -108 l 515 415 q 413 283 463 336 q 356 376 397 322 q 583 778 507 525 l 675 753 q 626 622 651 681 l 904 622 q 842 754 883 678 l 932 781 q 1010 622 989 692 l 1303 622 l 1303 536 l 989 536 l 989 429 l 1271 429 l 1271 350 l 989 350 l 989 238 l 1271 238 l 1271 158 l 989 158 l 989 46 l 1326 46 l 1326 -43 z "},"傲":{"ha":1389,"x_min":51,"x_max":1346,"o":"m 422 1135 q 311 839 381 993 l 311 -106 l 215 -106 l 215 656 q 108 497 160 563 q 51 600 68 579 q 328 1161 224 811 l 422 1135 m 1017 821 l 1001 776 q 1093 335 1029 517 q 1164 821 1149 513 l 1017 821 m 1254 821 q 1144 217 1235 428 q 1346 -22 1225 61 q 1279 -106 1306 -60 q 1094 115 1169 -21 q 881 -111 1017 -18 q 826 -28 857 -61 q 1047 218 968 63 q 943 626 979 376 q 890 529 910 560 l 883 538 l 883 474 l 604 474 q 593 347 599 388 l 847 347 l 844 307 q 792 -53 829 -10 q 721 -86 768 -82 q 594 -86 678 -90 q 571 0 592 -40 q 676 -6 619 -6 q 715 7 704 -6 q 750 264 738 35 l 582 264 q 400 -107 542 21 q 333 -36 379 -75 q 508 474 493 96 l 367 474 l 367 560 l 593 560 l 593 704 l 414 704 l 414 790 l 593 790 l 593 919 l 394 919 l 394 1006 l 593 1006 l 593 1146 l 688 1146 l 688 1006 l 871 1006 l 871 919 l 688 919 l 688 790 l 847 790 l 847 704 l 688 704 l 688 560 l 863 560 q 819 601 832 590 q 999 1163 940 786 l 1093 1146 q 1042 910 1074 1033 l 1326 910 l 1326 821 l 1254 821 z "},"傻":{"ha":1389,"x_min":42,"x_max":1319,"o":"m 1046 676 q 868 779 967 731 q 651 675 757 717 q 593 738 617 718 q 788 819 693 772 q 619 890 722 850 l 667 944 q 869 861 750 918 q 1001 951 951 908 l 1076 921 q 944 825 1026 876 q 1096 738 1046 772 l 1046 676 m 1149 967 l 557 967 l 557 667 l 1149 667 l 1149 967 m 1243 590 l 467 590 l 467 1042 l 749 1042 q 814 1157 785 1096 l 921 1135 q 853 1042 908 1114 l 1243 1042 l 1243 590 m 982 583 q 1303 443 1181 515 l 1251 374 q 931 521 1119 454 l 982 583 m 403 436 q 728 586 575 496 l 781 528 q 451 374 653 446 l 403 436 m 433 1128 q 325 854 385 981 l 325 -101 l 226 -101 l 226 671 q 96 486 172 579 q 42 590 74 539 q 339 1154 232 811 l 433 1128 m 665 275 q 858 119 735 190 q 1043 281 975 189 l 672 281 l 665 275 m 1175 331 q 946 78 1100 179 q 1319 -22 1114 6 q 1265 -99 1296 -44 q 861 29 1040 -62 q 425 -107 682 -64 q 383 -28 413 -65 q 776 78 606 1 q 603 231 672 146 q 476 156 547 192 q 414 217 450 194 q 736 457 619 311 l 832 439 q 756 354 790 386 l 1099 354 l 1115 358 l 1175 331 z "},"像":{"ha":1389,"x_min":47,"x_max":1343,"o":"m 465 1126 q 324 817 406 963 l 324 -103 l 225 -103 l 225 657 q 106 504 169 575 q 47 606 83 554 q 368 1157 250 818 l 465 1126 m 592 651 l 782 651 q 836 790 822 711 l 592 790 l 592 651 m 675 982 q 583 869 619 907 l 842 869 q 925 982 875 904 l 675 982 m 1147 790 l 921 790 q 882 651 915 719 l 1147 651 l 1147 790 m 1258 449 q 1104 361 1196 408 q 1343 50 1179 135 q 1276 -28 1303 19 q 1029 324 1110 75 l 961 292 q 985 83 996 185 q 929 -58 975 -14 q 808 -106 886 -106 q 724 -103 754 -106 q 699 -14 721 -50 q 790 -19 747 -19 q 858 7 835 -19 q 890 199 910 58 q 449 -57 707 32 q 389 15 418 -8 q 871 283 696 108 q 838 361 858 325 q 460 144 676 224 q 403 211 435 182 q 801 419 649 285 q 743 485 775 457 q 460 346 629 401 q 401 410 433 385 q 713 572 604 475 l 499 572 l 499 786 q 425 725 465 754 q 358 790 401 764 q 678 1161 564 935 l 775 1143 q 753 1103 768 1129 l 729 1063 l 981 1063 l 999 1068 l 1060 1024 q 949 869 1013 944 l 1243 869 l 1243 572 l 832 572 q 800 538 822 560 q 936 361 886 467 q 1189 513 1076 433 l 1258 449 z "},"僚":{"ha":1389,"x_min":42,"x_max":1360,"o":"m 450 1128 q 314 819 390 963 l 314 -104 l 217 -104 l 217 658 q 99 504 158 572 q 42 606 74 560 q 356 1157 243 822 l 450 1128 m 665 199 q 454 -57 588 54 q 376 3 417 -22 q 575 225 503 93 l 665 199 m 1115 225 q 1317 -11 1260 85 l 1231 -60 q 1033 181 1169 50 l 1115 225 m 1079 638 l 631 638 l 631 528 l 1079 528 l 1079 638 m 1079 457 l 631 457 l 631 344 l 1079 344 l 1079 457 m 800 925 q 663 711 744 808 l 1053 711 q 929 925 976 813 l 800 925 m 1313 843 q 1167 722 1217 758 q 1360 571 1253 628 q 1290 493 1325 544 q 1176 578 1232 528 l 1176 271 l 911 271 l 911 1 q 860 -93 911 -74 q 660 -108 818 -108 q 626 -17 651 -68 q 783 -18 744 -21 q 810 3 810 -17 l 810 271 l 538 271 l 538 586 q 418 500 479 539 q 350 578 389 544 q 551 729 463 639 q 426 835 476 801 l 492 893 q 611 799 556 850 q 694 925 650 846 l 413 925 l 413 1014 l 736 1014 q 788 1163 769 1086 l 883 1143 q 840 1014 861 1065 l 1317 1014 l 1317 925 l 1025 925 q 1117 781 1072 835 q 1233 900 1185 842 l 1313 843 z "},"僧":{"ha":1389,"x_min":46,"x_max":1260,"o":"m 458 1129 q 325 828 404 976 l 325 -104 l 226 -104 l 226 665 q 104 507 167 576 q 46 606 82 556 q 364 1157 247 818 l 458 1129 m 628 336 l 628 232 l 1081 232 l 1081 336 l 628 336 m 1081 49 l 1081 157 l 628 157 l 628 49 l 1081 49 m 528 419 l 1182 419 l 1182 -100 l 1081 -100 l 1081 -33 l 628 -33 l 628 -103 l 528 -103 l 528 419 m 663 850 q 765 657 735 747 l 697 628 q 596 825 664 725 l 663 850 m 933 642 q 1043 853 1007 758 l 1117 829 q 996 619 1044 686 l 933 642 m 1163 885 l 899 885 l 899 581 l 1163 581 l 1163 885 m 551 581 l 817 581 l 817 885 l 551 885 l 551 581 m 1260 961 l 1260 504 l 460 504 l 460 961 l 668 961 q 568 1126 647 1014 l 656 1158 q 763 997 722 1081 l 676 961 l 950 961 q 1072 1165 1024 1054 l 1179 1128 q 1058 961 1100 1011 l 1260 961 z "},"僵":{"ha":1389,"x_min":51,"x_max":1321,"o":"m 1313 1021 l 436 1021 l 436 1099 l 1313 1099 l 1313 1021 m 601 685 l 824 685 l 824 765 l 601 765 l 601 685 m 601 824 l 824 824 l 824 901 l 601 901 l 601 824 m 1132 901 l 919 901 l 919 824 l 1132 824 l 1132 901 m 1132 765 l 919 765 l 919 685 l 1132 685 l 1132 765 m 506 622 l 506 964 l 1231 964 l 1231 622 l 506 622 m 1317 489 l 425 489 l 425 564 l 1317 564 l 1317 489 m 593 136 l 824 136 l 824 221 l 593 221 l 593 136 m 593 279 l 824 279 l 824 361 l 593 361 l 593 279 m 1136 361 l 919 361 l 919 279 l 1136 279 l 1136 361 m 1136 221 l 919 221 l 919 136 l 1136 136 l 1136 221 m 497 74 l 497 424 l 1235 424 l 1235 74 l 497 74 m 417 1129 q 315 857 375 989 l 315 -107 l 218 -107 l 218 664 q 104 494 167 575 q 51 592 86 542 q 328 1153 229 808 l 417 1129 m 1321 6 l 1321 -76 l 383 -76 l 383 6 l 1321 6 z "},"僻":{"ha":1389,"x_min":47,"x_max":1328,"o":"m 1310 899 l 846 899 l 846 989 l 1044 989 q 999 1143 1031 1058 l 1089 1160 q 1144 989 1126 1071 l 1310 989 l 1310 899 m 947 635 q 896 854 938 728 l 971 872 q 1026 660 1015 740 l 947 635 m 403 1133 q 299 843 363 992 l 299 -107 l 208 -107 l 208 660 q 100 490 154 564 q 47 597 82 543 q 315 1160 218 810 l 403 1133 m 575 401 l 575 100 l 729 100 l 729 401 l 575 401 m 521 997 l 521 744 l 710 744 l 710 997 l 521 997 m 818 11 l 575 11 l 575 -94 l 490 -94 l 490 350 q 388 -22 457 125 q 318 40 363 15 q 433 797 433 294 l 433 1085 l 799 1085 l 799 657 l 518 657 q 507 489 517 586 l 818 489 l 818 11 m 1125 525 l 1125 335 l 1307 335 l 1307 243 l 1125 243 l 1125 -106 l 1029 -106 l 1029 243 l 854 243 l 854 335 l 1029 335 l 1029 525 l 824 525 l 824 617 l 1097 617 q 1185 879 1147 729 l 1275 856 q 1181 617 1185 625 l 1328 617 l 1328 525 l 1125 525 z "},"儒":{"ha":1389,"x_min":42,"x_max":1322,"o":"m 800 1031 l 461 1031 l 461 1114 l 1250 1114 l 1250 1031 l 894 1031 l 894 944 l 1297 944 l 1297 757 l 1215 757 l 1215 867 l 894 867 l 894 551 l 800 551 l 800 867 l 490 867 l 490 757 l 410 757 l 410 944 l 800 944 l 800 1031 m 942 657 l 1213 657 l 1213 594 l 942 594 l 942 657 m 1190 790 l 1190 728 l 942 728 l 942 790 l 1190 790 m 486 657 l 753 657 l 753 596 l 486 596 l 486 657 m 751 790 l 751 728 l 513 728 l 513 790 l 751 790 m 438 1131 q 306 819 386 974 l 306 -106 l 211 -106 l 211 656 q 100 503 167 583 q 42 599 81 549 q 346 1157 235 811 l 438 1131 m 894 432 q 857 343 869 371 l 1265 343 l 1265 -7 q 1228 -90 1265 -71 q 1092 -106 1197 -106 q 1063 -22 1086 -68 q 1154 -22 1135 -25 q 1171 -6 1171 -22 l 1171 261 l 1017 261 l 1017 -89 l 931 -89 l 931 261 l 782 261 l 782 -89 l 696 -89 l 696 261 l 551 261 l 551 -106 l 458 -106 l 458 343 l 760 343 q 785 432 756 331 l 392 432 l 392 517 l 1322 517 l 1322 432 l 894 432 z "},"儿":{"ha":1389,"x_min":50,"x_max":1335,"o":"m 978 1106 l 978 83 q 988 21 978 35 q 1031 7 997 7 l 1175 7 q 1224 65 1211 7 q 1238 296 1233 117 q 1335 249 1285 261 q 1299 -17 1326 50 q 1182 -92 1268 -92 l 1018 -92 q 904 -56 933 -92 q 874 85 874 -19 l 874 1106 l 978 1106 m 465 1104 l 465 657 q 408 243 465 400 q 122 -108 331 26 q 50 -28 92 -60 q 311 289 240 93 q 363 657 363 428 l 363 1104 l 465 1104 z "},"允":{"ha":1389,"x_min":51,"x_max":1336,"o":"m 1161 19 q 1221 65 1207 19 q 1239 276 1233 111 q 1336 232 1272 250 q 1294 -17 1326 44 q 1168 -81 1261 -81 l 956 -81 q 826 -47 860 -81 q 793 79 793 -15 l 793 597 l 582 579 q 482 140 564 281 q 114 -112 379 -32 q 51 -25 89 -58 q 388 190 296 42 q 475 571 460 308 q 208 533 250 550 q 172 638 199 574 q 283 731 208 643 q 590 1171 446 897 l 703 1133 q 349 663 533 860 l 1006 707 q 825 940 964 764 l 908 992 q 1243 561 1163 679 l 1151 499 q 1069 618 1114 560 l 897 604 l 897 78 q 910 31 897 40 q 967 19 922 19 l 1161 19 z "},"元":{"ha":1389,"x_min":72,"x_max":1325,"o":"m 1188 954 l 210 954 l 210 1053 l 1188 1053 l 1188 954 m 1158 17 q 1213 61 1200 17 q 1229 265 1224 104 q 1325 219 1261 239 q 1286 -19 1317 39 q 1165 -82 1254 -82 l 967 -82 q 842 -49 875 -82 q 810 72 810 -17 l 810 567 l 550 567 q 454 169 528 308 q 138 -103 358 -14 q 72 -22 113 -53 q 360 217 275 56 q 440 567 422 338 l 89 567 l 89 667 l 1304 667 l 1304 567 l 914 567 l 914 74 q 926 28 914 38 q 979 17 939 17 l 1158 17 z "},"兄":{"ha":1389,"x_min":56,"x_max":1329,"o":"m 328 613 l 1067 613 l 1067 985 l 328 985 l 328 613 m 1158 4 q 1215 49 1203 4 q 1233 253 1228 92 q 1329 208 1271 222 q 1290 -33 1321 26 q 1167 -94 1257 -94 l 958 -94 q 832 -62 865 -94 q 800 58 800 -31 l 800 511 l 553 511 q 456 129 532 256 q 121 -107 358 -29 q 56 -17 99 -57 q 358 183 274 47 q 442 511 425 290 l 226 511 l 226 1086 l 1175 1086 l 1175 511 l 903 511 l 903 58 q 915 14 903 24 q 971 4 928 4 l 1158 4 z "},"充":{"ha":1389,"x_min":82,"x_max":1325,"o":"m 703 942 q 592 1136 668 1025 l 693 1167 q 810 978 771 1061 l 703 942 m 1157 25 q 1210 64 1197 25 q 1228 244 1222 103 q 1325 197 1260 215 q 1285 -18 1317 36 q 1165 -74 1253 -74 l 957 -74 q 828 -42 861 -74 q 794 76 794 -11 l 794 472 l 589 461 q 485 107 567 226 q 147 -108 383 -39 q 82 -18 125 -57 q 385 160 296 39 q 478 454 457 257 q 214 426 258 440 q 178 532 189 506 q 274 599 210 536 q 481 840 368 685 l 97 840 l 97 940 l 1294 940 l 1294 840 l 619 840 q 361 549 497 679 l 1013 578 q 831 740 933 658 l 914 790 q 1269 451 1151 610 l 1179 392 q 1099 489 1157 424 l 904 478 l 904 78 q 917 35 904 44 q 969 25 928 25 l 1157 25 z "},"兆":{"ha":1389,"x_min":69,"x_max":1332,"o":"m 1265 997 q 1022 658 1115 764 l 943 704 q 1164 1049 1069 856 l 1265 997 m 326 656 q 119 990 269 801 l 206 1035 q 419 708 357 850 l 326 656 m 481 1144 l 582 1144 l 582 615 q 508 201 582 351 q 143 -115 408 -1 q 81 -29 117 -62 q 469 436 424 115 l 117 264 l 69 365 q 479 539 203 415 q 481 615 481 564 l 481 1144 m 1172 10 q 1219 44 1207 10 q 1238 178 1231 74 q 1332 133 1279 146 q 1292 -40 1321 6 q 1178 -89 1260 -89 l 947 -89 q 821 -53 853 -89 q 788 90 788 -15 l 788 1144 l 889 1144 l 889 560 l 919 593 q 1322 331 1190 453 l 1257 247 q 889 504 1133 364 l 889 90 q 901 25 889 40 q 960 10 915 10 l 1172 10 z "},"先":{"ha":1389,"x_min":71,"x_max":1321,"o":"m 1161 14 q 1210 51 1199 14 q 1225 222 1221 88 q 1321 179 1264 193 q 1282 -32 1313 22 q 1169 -85 1251 -85 l 972 -85 q 850 -53 882 -85 q 819 63 819 -24 l 819 469 l 557 469 q 454 118 533 243 q 136 -114 357 -37 q 71 -26 114 -62 q 361 169 274 36 q 450 469 429 274 l 90 469 l 90 569 l 643 569 l 643 847 l 357 847 q 236 636 306 724 q 146 685 199 663 q 344 1129 279 847 l 449 1108 q 397 946 432 1046 l 643 946 l 643 1161 l 746 1161 l 746 946 l 1201 946 l 1201 847 l 746 847 l 746 569 l 1301 569 l 1301 469 l 922 469 l 922 63 q 933 22 922 32 q 985 14 944 14 l 1161 14 z "},"光":{"ha":1389,"x_min":76,"x_max":1310,"o":"m 1211 1025 q 994 732 1096 846 l 907 769 q 1106 1067 1024 906 l 1211 1025 m 396 731 q 196 1025 338 853 l 278 1071 q 485 785 417 908 l 396 731 m 1160 19 q 1200 42 1190 19 q 1214 138 1210 63 q 1310 99 1247 113 q 1271 -42 1300 -6 q 1168 -79 1242 -79 l 954 -79 q 828 -49 860 -79 q 797 68 797 -19 l 797 551 l 581 551 q 482 147 560 282 q 142 -111 383 -28 q 76 -22 118 -60 q 389 200 300 49 q 474 551 457 315 l 94 551 l 94 651 l 639 651 l 639 1163 l 746 1163 l 746 651 l 1288 651 l 1288 551 l 900 551 l 900 69 q 913 28 900 38 q 965 19 924 19 l 1160 19 z "},"克":{"ha":1389,"x_min":65,"x_max":1328,"o":"m 353 460 l 1038 460 l 1038 682 l 353 682 l 353 460 m 1160 6 q 1214 42 1203 6 q 1231 210 1226 76 q 1328 167 1264 182 q 1288 -42 1318 10 q 1168 -93 1256 -93 l 950 -93 q 821 -62 854 -93 q 788 53 788 -32 l 788 365 l 581 365 q 465 68 553 169 q 125 -110 361 -53 q 65 -15 110 -62 q 371 125 279 29 q 469 365 447 206 l 254 365 l 254 775 l 639 775 l 639 928 l 100 928 l 100 1024 l 639 1024 l 639 1163 l 742 1163 l 742 1024 l 1293 1024 l 1293 928 l 742 928 l 742 775 l 1142 775 l 1142 365 l 890 365 l 890 53 q 903 14 890 22 q 960 6 915 6 l 1160 6 z "},"免":{"ha":1389,"x_min":63,"x_max":1324,"o":"m 756 721 q 724 479 744 582 l 1107 479 l 1107 721 l 756 721 m 615 479 q 649 721 636 568 l 319 721 l 319 479 l 615 479 m 457 968 q 321 814 399 892 l 689 814 q 804 968 751 881 l 457 968 m 1153 15 q 1211 50 1197 15 q 1228 208 1224 83 q 1324 168 1267 178 q 1282 -29 1313 19 q 1161 -78 1250 -78 l 929 -78 q 796 -49 829 -78 q 761 63 761 -19 l 761 386 l 699 386 q 135 -93 586 29 q 76 -6 117 -43 q 588 386 482 94 l 217 386 l 217 718 q 135 656 186 692 q 63 731 108 697 q 463 1164 324 904 l 576 1143 q 519 1056 563 1118 l 863 1056 l 881 1061 l 950 1014 q 808 814 899 922 l 1214 814 l 1214 386 l 867 386 l 867 64 q 881 24 867 33 q 940 15 893 15 l 1153 15 z "},"兑":{"ha":1389,"x_min":86,"x_max":1325,"o":"m 331 507 l 1053 507 l 1053 790 l 331 790 l 331 507 m 1163 13 q 1213 43 1201 13 q 1229 185 1225 75 q 1325 144 1264 160 q 1285 -36 1315 8 q 1172 -82 1254 -82 l 956 -82 q 826 -53 860 -82 q 793 60 793 -24 l 793 414 l 593 414 q 483 88 569 199 q 146 -110 382 -46 q 86 -21 121 -51 q 392 140 301 31 q 485 414 464 231 l 226 414 l 226 885 l 465 885 q 318 1124 417 1000 l 407 1163 q 563 924 515 1029 l 482 885 l 796 885 q 969 1163 901 1021 l 1076 1126 q 911 885 983 979 l 1161 885 l 1161 414 l 897 414 l 897 60 q 910 21 897 29 q 967 13 922 13 l 1163 13 z "},"兔":{"ha":1389,"x_min":50,"x_max":1331,"o":"m 757 713 q 721 450 746 565 l 1111 450 l 1111 713 l 757 713 m 613 450 q 650 713 638 550 l 307 713 l 307 450 l 613 450 m 454 967 q 315 804 389 881 l 676 804 q 794 967 740 872 l 454 967 m 1157 -6 q 1218 26 1203 -6 q 1236 171 1232 58 q 1331 132 1267 147 q 1288 -53 1319 -7 q 1164 -100 1254 -100 l 908 -100 q 767 -71 803 -100 q 731 43 731 -42 l 731 358 l 694 358 q 125 -110 574 10 q 68 -22 108 -65 q 582 358 468 76 l 206 358 l 206 701 q 122 638 171 672 q 50 711 97 678 q 456 1164 319 890 l 565 1144 q 514 1057 553 1118 l 857 1057 l 874 1061 l 944 1014 q 797 804 897 924 l 1217 804 l 1217 358 l 832 358 l 832 44 q 847 4 832 13 q 915 -6 863 -6 l 1157 -6 m 974 332 q 1181 140 1110 233 l 1108 79 q 904 278 1046 168 l 974 332 z "},"党":{"ha":1389,"x_min":69,"x_max":1322,"o":"m 207 603 l 107 603 l 107 903 l 375 903 q 242 1097 325 1000 l 328 1142 q 468 950 426 1039 l 388 903 l 640 903 l 640 1163 l 744 1163 l 744 903 l 924 903 q 1058 1143 1011 1035 l 1165 1108 q 1032 903 1093 990 l 1285 903 l 1285 603 l 1182 603 l 1182 810 l 207 810 l 207 603 m 424 401 l 961 401 l 961 606 l 424 606 l 424 401 m 1158 1 q 1211 32 1199 1 q 1228 174 1224 63 q 1322 133 1257 153 q 1282 -50 1313 -4 q 1168 -96 1251 -96 l 940 -96 q 808 -65 842 -96 q 775 47 775 -36 l 775 308 l 607 308 q 478 47 575 138 q 126 -106 367 -56 q 69 -12 110 -58 q 383 104 285 25 q 499 308 469 174 l 322 308 l 322 699 l 1068 699 l 1068 308 l 876 308 l 876 47 q 890 10 876 19 q 949 1 904 1 l 1158 1 z "},"兜":{"ha":1389,"x_min":69,"x_max":1326,"o":"m 1239 415 l 953 415 l 953 513 l 1138 513 l 1138 956 l 953 956 l 953 1053 l 1239 1053 l 1239 415 m 814 932 l 567 932 l 567 763 l 814 763 l 814 932 m 814 686 l 567 686 l 567 514 l 814 514 l 814 686 m 907 432 l 476 432 l 476 1014 l 600 1014 q 646 1165 635 1108 l 751 1147 q 700 1014 715 1049 l 907 1014 l 907 432 m 446 603 q 460 511 449 547 q 150 358 175 381 q 106 449 135 411 q 163 543 163 481 l 163 996 q 396 1119 315 1060 l 475 1046 q 263 947 383 993 l 263 528 l 446 603 m 578 381 q 469 69 554 174 q 128 -111 368 -54 q 69 -21 113 -64 q 378 125 289 24 q 469 381 450 207 l 578 381 m 1161 4 q 1215 38 1203 4 q 1231 201 1226 71 q 1326 161 1264 176 q 1286 -44 1318 7 q 1171 -94 1256 -94 l 961 -94 q 833 -64 867 -94 q 801 49 801 -35 l 801 381 l 904 381 l 904 49 q 917 13 904 21 q 972 4 929 4 l 1161 4 z "},"兢":{"ha":1389,"x_min":44,"x_max":1342,"o":"m 215 503 l 519 503 l 519 692 l 215 692 l 215 503 m 682 222 q 706 142 690 183 q 429 -26 458 6 q 386 51 414 21 q 433 157 433 85 l 433 417 l 313 417 q 267 97 304 208 q 110 -111 221 -39 q 44 -33 83 -58 q 181 142 142 26 q 217 417 211 233 l 119 417 l 119 778 l 319 778 l 319 928 l 78 928 l 78 1019 l 319 1019 l 319 1161 l 424 1161 l 424 1019 l 647 1019 l 647 928 l 424 928 l 424 778 l 619 778 l 619 417 l 525 417 l 525 140 l 682 222 m 831 500 l 1165 500 l 1165 693 l 831 693 l 831 500 m 1207 7 q 1240 14 1229 7 q 1258 49 1253 26 q 1261 211 1263 131 q 1342 168 1290 185 q 1328 -14 1339 33 q 1288 -74 1315 -56 q 1215 -90 1261 -90 l 1142 -90 q 1061 -65 1086 -90 q 1033 40 1033 -43 l 1033 413 l 924 413 q 872 82 917 189 q 678 -111 818 -46 q 619 -32 661 -65 q 788 129 742 22 q 829 413 824 217 l 735 413 l 735 779 l 942 779 l 942 928 l 706 928 l 706 1019 l 942 1019 l 942 1161 l 1047 1161 l 1047 1019 l 1306 1019 l 1306 928 l 1047 928 l 1047 779 l 1267 779 l 1267 413 l 1128 413 l 1128 38 q 1136 15 1128 21 q 1164 7 1147 7 l 1207 7 z "},"入":{"ha":1389,"x_min":63,"x_max":1333,"o":"m 475 1132 q 897 563 688 979 q 1333 22 1096 164 q 1282 -92 1296 -28 q 938 257 1081 21 q 825 468 892 333 q 717 682 746 629 q 156 -97 558 139 q 63 -14 121 -56 q 633 818 496 210 q 413 1043 535 958 l 475 1132 z "},"全":{"ha":1389,"x_min":42,"x_max":1351,"o":"m 1117 653 q 694 1022 874 817 q 281 653 526 814 l 1117 653 m 747 560 l 747 344 l 1121 344 l 1121 253 l 747 253 l 747 26 l 1285 26 l 1285 -68 l 111 -68 l 111 26 l 642 26 l 642 253 l 285 253 l 285 344 l 642 344 l 642 560 l 276 560 l 276 650 q 114 556 211 606 q 42 640 92 594 q 685 1176 468 836 l 776 1135 l 751 1097 q 1351 638 979 833 q 1279 550 1303 596 q 1121 650 1164 621 l 1121 560 l 747 560 z "},"八":{"ha":1389,"x_min":51,"x_max":1347,"o":"m 538 1018 q 431 401 503 635 q 124 -100 328 71 q 51 -22 104 -71 q 426 1026 369 240 l 538 1018 m 915 1058 q 1347 -28 947 276 q 1258 -99 1290 -58 q 814 1051 876 204 l 915 1058 z "},"公":{"ha":1389,"x_min":76,"x_max":1333,"o":"m 563 1090 q 172 519 419 743 q 76 593 129 560 q 453 1121 319 783 l 563 1090 m 944 425 q 1275 -42 1172 149 l 1175 -97 q 1083 58 1149 -46 q 228 -15 276 3 q 188 93 213 44 q 314 208 228 103 q 647 742 486 407 l 758 692 q 372 115 576 357 l 1018 154 q 849 381 924 286 l 944 425 m 922 1131 q 1333 607 1075 815 q 1247 519 1283 567 q 821 1092 996 751 l 922 1131 z "},"六":{"ha":1389,"x_min":65,"x_max":1315,"o":"m 1308 796 l 1308 690 l 85 690 l 85 796 l 1308 796 m 543 494 q 168 -97 379 147 q 65 -25 126 -62 q 431 531 278 193 l 543 494 m 935 542 q 1315 -29 1208 158 l 1211 -89 q 839 496 1108 108 l 935 542 m 671 1156 q 806 871 760 989 l 694 828 q 567 1119 649 953 l 671 1156 z "},"兰":{"ha":1389,"x_min":82,"x_max":1303,"o":"m 457 868 q 297 1114 413 974 l 383 1156 q 549 917 501 1022 l 457 868 m 1254 749 l 136 749 l 136 850 l 808 850 q 993 1161 913 992 l 1097 1128 q 919 850 1011 971 l 1254 850 l 1254 749 m 211 369 l 211 471 l 1158 471 l 1158 369 l 211 369 m 1303 65 l 1303 -36 l 82 -36 l 82 65 l 1303 65 z "},"共":{"ha":1389,"x_min":74,"x_max":1322,"o":"m 567 219 q 172 -108 410 29 q 90 -35 139 -72 q 460 261 333 92 l 567 219 m 904 263 q 1292 -43 1154 86 l 1194 -107 q 815 210 1060 28 l 904 263 m 497 442 l 892 442 l 892 769 l 497 769 l 497 442 m 1322 442 l 1322 342 l 74 342 l 74 442 l 393 442 l 393 769 l 129 769 l 129 869 l 393 869 l 393 1150 l 497 1150 l 497 869 l 892 869 l 892 1150 l 997 1150 l 997 869 l 1272 869 l 1272 769 l 997 769 l 997 442 l 1322 442 z "},"关":{"ha":1389,"x_min":72,"x_max":1329,"o":"m 401 1149 q 544 917 501 1028 l 453 867 q 315 1106 411 981 l 401 1149 m 783 417 q 1329 1 949 96 q 1257 -96 1281 -44 q 715 339 892 10 q 146 -104 604 56 q 72 -15 110 -44 q 618 417 536 143 l 100 417 l 100 518 l 639 518 q 642 597 642 574 l 642 765 l 183 765 l 183 867 l 833 867 q 986 1157 924 1006 l 1096 1118 q 944 867 1011 967 l 1219 867 l 1219 765 l 757 765 l 757 596 q 754 518 757 571 l 1294 518 l 1294 417 l 783 417 z "},"兴":{"ha":1389,"x_min":67,"x_max":1311,"o":"m 1311 499 l 1311 400 l 79 400 l 79 499 l 1311 499 m 938 321 q 1311 -40 1196 97 l 1213 -99 q 847 272 1088 58 l 938 321 m 535 286 q 153 -97 382 61 q 67 -24 100 -44 q 424 326 307 133 l 535 286 m 179 1038 q 393 642 332 825 l 294 596 q 86 999 232 790 l 179 1038 m 592 1140 q 754 725 711 922 l 651 689 q 497 1108 613 888 l 592 1140 m 1293 1069 q 982 540 1136 753 l 882 575 q 1176 1104 1057 819 l 1293 1069 z "},"兵":{"ha":1389,"x_min":75,"x_max":1317,"o":"m 576 168 q 154 -106 390 8 q 82 -31 128 -68 q 479 231 332 83 l 576 168 m 890 229 q 1293 -22 1153 88 l 1213 -100 q 815 163 1067 19 l 890 229 m 418 369 l 889 369 l 889 692 l 418 692 l 418 369 m 1317 369 l 1317 271 l 75 271 l 75 369 l 314 369 l 314 1074 q 1114 1157 850 1101 l 1168 1063 q 418 985 872 1007 l 418 789 l 1239 789 l 1239 692 l 992 692 l 992 369 l 1317 369 z "},"其":{"ha":1389,"x_min":67,"x_max":1311,"o":"m 436 286 l 950 286 l 950 438 l 436 438 l 436 286 m 436 903 l 436 765 l 950 765 l 950 903 l 436 903 m 436 526 l 950 526 l 950 676 l 436 676 l 436 526 m 1307 190 l 81 190 l 81 286 l 335 286 l 335 903 l 119 903 l 119 1000 l 335 1000 l 335 1160 l 436 1160 l 436 1000 l 950 1000 l 950 1160 l 1053 1160 l 1053 1000 l 1275 1000 l 1275 903 l 1053 903 l 1053 286 l 1307 286 l 1307 190 m 594 101 q 135 -104 414 -10 q 67 -25 110 -68 q 503 165 346 58 l 594 101 m 865 158 q 1311 -33 1129 65 l 1219 -101 q 796 93 1050 -1 l 865 158 z "},"具":{"ha":1389,"x_min":61,"x_max":1324,"o":"m 388 293 l 1013 293 l 1013 418 l 388 418 l 388 293 m 388 1010 l 388 892 l 1013 892 l 1013 1010 l 388 1010 m 388 617 l 388 496 l 1013 496 l 1013 617 l 388 617 m 1013 813 l 388 813 l 388 696 l 1013 696 l 1013 813 m 1317 199 l 78 199 l 78 293 l 286 293 l 286 1096 l 1119 1096 l 1119 293 l 1317 293 l 1317 199 m 553 126 q 135 -106 386 -6 q 61 -29 104 -64 q 457 188 325 67 l 553 126 m 904 190 q 1324 -25 1144 85 l 1243 -101 q 840 121 1082 10 l 904 190 z "},"典":{"ha":1389,"x_min":60,"x_max":1328,"o":"m 571 133 q 151 -108 406 -6 q 74 -33 117 -71 q 472 192 335 63 l 571 133 m 896 194 q 1300 -32 1144 75 l 1208 -101 q 824 128 1061 7 l 896 194 m 299 315 l 494 315 l 494 571 l 299 571 l 299 315 m 299 899 l 299 667 l 494 667 l 494 899 l 299 899 m 592 899 l 592 667 l 794 667 l 794 899 l 592 899 m 893 899 l 893 667 l 1099 667 l 1099 899 l 893 899 m 794 571 l 592 571 l 592 315 l 794 315 l 794 571 m 893 315 l 1099 315 l 1099 571 l 893 571 l 893 315 m 1328 315 l 1328 217 l 60 217 l 60 315 l 199 315 l 199 994 l 494 994 l 494 1164 l 592 1164 l 592 994 l 794 994 l 794 1165 l 893 1165 l 893 994 l 1201 994 l 1201 315 l 1328 315 z "},"兹":{"ha":1389,"x_min":75,"x_max":1315,"o":"m 1225 -89 q 1185 29 1213 -37 q 685 -47 728 -25 q 653 49 676 -14 q 775 154 689 57 q 971 396 851 231 q 692 358 726 372 q 661 451 682 406 q 740 524 689 458 q 936 844 849 657 l 383 844 l 454 813 q 228 471 351 622 l 460 489 q 558 649 511 567 l 650 601 q 243 75 454 293 l 532 106 q 460 250 503 178 l 543 278 q 681 -50 647 107 l 592 -81 q 564 22 588 -47 q 110 -47 144 -29 q 75 49 97 -1 q 199 153 114 57 q 393 394 269 221 q 113 357 149 371 q 83 450 107 397 q 163 522 108 456 q 358 844 285 679 l 88 844 l 88 939 l 415 939 q 303 1117 371 1029 l 393 1156 q 521 958 485 1046 l 479 939 l 846 939 q 983 1163 924 1044 l 1088 1124 q 956 939 1014 1011 l 1313 939 l 1313 844 l 965 844 l 1033 814 q 806 472 926 621 l 1035 489 q 1135 650 1086 565 l 1225 603 q 819 76 1033 297 l 1147 111 q 1067 253 1114 182 l 1149 286 q 1315 -51 1272 108 l 1225 -89 z "},"养":{"ha":1389,"x_min":54,"x_max":1329,"o":"m 944 536 q 1329 331 1099 388 q 1261 243 1283 288 q 956 407 1093 299 l 956 -107 l 850 -107 l 850 408 l 954 408 q 825 536 883 465 l 574 536 q 450 407 519 461 l 526 407 l 526 319 q 478 94 526 185 q 224 -115 407 -36 q 154 -35 197 -68 q 424 322 424 76 l 424 385 q 124 243 301 296 q 54 335 99 290 q 436 536 292 392 l 85 536 l 85 622 l 508 622 q 576 733 542 665 l 214 733 l 214 817 l 613 817 q 647 921 632 863 l 147 921 l 147 1007 l 444 1007 q 360 1140 413 1076 l 449 1171 q 543 1031 515 1096 l 482 1007 l 844 1007 q 943 1172 911 1097 l 1050 1142 q 960 1007 1004 1063 l 1251 1007 l 1251 921 l 749 921 q 718 817 731 856 l 1179 817 l 1179 733 l 686 733 q 632 622 660 672 l 1296 622 l 1296 536 l 944 536 z "},"兼":{"ha":1389,"x_min":58,"x_max":1333,"o":"m 782 339 l 782 471 l 592 471 l 592 339 l 782 339 m 592 560 l 782 560 l 782 678 l 592 678 l 592 560 m 592 761 l 782 761 l 782 883 l 592 883 l 592 761 m 882 678 l 882 560 l 1071 560 l 1071 678 l 882 678 m 1071 471 l 882 471 l 882 339 l 1071 339 l 1071 471 m 940 256 q 1333 7 1107 89 q 1265 -76 1289 -32 q 882 199 1050 18 l 882 -107 l 782 -107 l 782 256 l 592 256 l 592 -107 l 492 -107 l 492 183 q 126 -82 331 7 q 58 -3 103 -39 q 436 256 279 79 l 188 256 l 188 339 l 492 339 l 492 471 l 83 471 l 83 560 l 492 560 l 492 678 l 200 678 l 200 761 l 492 761 l 492 883 l 106 883 l 106 972 l 425 972 q 290 1124 379 1039 l 382 1165 q 536 999 483 1079 l 482 972 l 863 972 q 1001 1164 949 1068 l 1111 1129 q 986 972 1044 1036 l 1286 972 l 1286 883 l 882 883 l 882 761 l 1171 761 l 1171 560 l 1310 560 l 1310 471 l 1171 471 l 1171 256 l 940 256 z "},"兽":{"ha":1389,"x_min":76,"x_max":1315,"o":"m 1094 907 l 743 907 l 743 792 l 1094 792 l 1094 907 m 1094 722 l 743 722 l 743 606 l 1094 606 l 1094 722 m 282 606 l 644 606 l 644 722 l 282 722 l 282 606 m 282 792 l 644 792 l 644 907 l 282 907 l 282 792 m 1194 532 l 186 532 l 186 981 l 463 981 q 371 1128 431 1051 l 454 1165 q 557 1008 531 1072 l 503 981 l 826 981 q 942 1161 899 1075 l 1038 1126 q 929 981 993 1060 l 1194 981 l 1194 532 m 335 188 l 335 43 l 1056 43 l 1056 188 l 335 188 m 236 274 l 1157 274 l 1157 -103 l 1056 -103 l 1056 -36 l 335 -36 l 335 -107 l 236 -107 l 236 274 m 1315 444 l 1315 361 l 76 361 l 76 444 l 1315 444 z "},"冀":{"ha":1389,"x_min":72,"x_max":1322,"o":"m 929 819 q 796 843 829 819 q 761 936 761 867 l 761 1163 l 863 1163 l 863 1040 q 1201 1133 1097 1086 l 1271 1074 q 863 971 1119 1011 l 863 936 q 876 904 863 911 q 939 897 890 897 l 1164 897 q 1213 917 1201 897 q 1228 1003 1224 935 q 1315 972 1258 983 q 1278 850 1307 882 q 1175 819 1249 819 l 929 819 m 329 488 l 643 488 l 643 563 l 329 563 l 329 488 m 329 629 l 643 629 l 643 704 l 329 704 l 329 629 m 1067 704 l 744 704 l 744 629 l 1067 629 l 1067 704 m 1067 563 l 744 563 l 744 488 l 1067 488 l 1067 563 m 229 774 l 1169 774 l 1169 418 l 229 418 l 229 774 m 90 894 q 479 935 176 900 l 479 1001 l 114 1001 l 114 1078 l 479 1078 l 479 1163 l 581 1163 l 581 804 l 479 804 l 479 863 q 278 838 407 853 q 101 815 150 822 l 90 894 m 856 89 q 1310 -36 1135 36 l 1276 -111 q 826 22 1113 -40 l 856 89 m 507 168 l 881 168 l 881 257 l 507 257 l 507 168 m 1322 168 l 1322 92 l 521 92 l 592 26 q 121 -111 393 -46 q 88 -36 107 -67 q 517 92 367 25 l 72 92 l 72 168 l 404 168 l 404 257 l 132 257 l 132 331 l 404 331 l 404 397 l 507 397 l 507 331 l 881 331 l 881 399 l 985 399 l 985 331 l 1260 331 l 1260 257 l 985 257 l 985 168 l 1322 168 z "},"内":{"ha":1389,"x_min":142,"x_max":1250,"o":"m 1250 31 q 1188 -86 1250 -64 q 929 -104 1139 -104 q 894 0 921 -47 q 1115 -3 1042 -7 q 1149 32 1149 -1 l 1149 824 l 746 824 q 721 643 742 726 q 1113 257 988 410 l 1028 190 q 690 544 926 325 q 353 172 604 321 q 279 250 322 218 q 643 824 625 435 l 243 824 l 243 -108 l 142 -108 l 142 925 l 644 925 l 644 1163 l 747 1163 l 747 925 l 1250 925 l 1250 31 z "},"冈":{"ha":1389,"x_min":138,"x_max":1254,"o":"m 961 115 q 726 403 883 229 q 397 65 571 204 q 307 129 357 100 q 657 475 499 268 q 340 772 500 636 l 413 831 q 717 556 561 708 q 919 910 835 721 l 1019 879 q 788 485 917 665 q 1039 190 960 303 l 961 115 m 1254 35 q 1188 -82 1254 -57 q 931 -100 1136 -100 q 889 3 921 -51 q 1108 1 1024 -3 q 1147 36 1147 1 l 1147 988 l 242 988 l 242 -107 l 138 -107 l 138 1089 l 1254 1089 l 1254 35 z "},"冉":{"ha":1389,"x_min":65,"x_max":1326,"o":"m 1075 393 l 1075 599 l 743 599 l 743 393 l 1075 393 m 322 393 l 640 393 l 640 599 l 322 599 l 322 393 m 322 888 l 322 692 l 640 692 l 640 888 l 322 888 m 743 888 l 743 692 l 1075 692 l 1075 888 l 743 888 m 1326 296 l 1176 296 l 1176 26 q 1115 -85 1176 -64 q 875 -104 1068 -104 q 838 -3 863 -43 q 1042 -4 986 -7 q 1075 28 1075 -3 l 1075 296 l 322 296 l 322 -106 l 221 -106 l 221 296 l 65 296 l 65 393 l 221 393 l 221 985 l 640 985 l 640 1160 l 743 1160 l 743 985 l 1176 985 l 1176 393 l 1326 393 l 1326 296 z "},"册":{"ha":1389,"x_min":61,"x_max":1326,"o":"m 1076 615 l 1076 975 l 856 975 l 856 615 l 1076 615 m 511 615 l 511 975 l 317 975 l 317 615 l 511 615 m 1326 515 l 1178 515 l 1178 19 q 1126 -87 1178 -62 q 925 -107 1083 -107 q 892 -8 915 -58 q 1049 -10 1008 -12 q 1076 19 1076 -8 l 1076 515 l 853 515 q 693 -110 836 106 q 615 -39 661 -67 q 753 515 739 151 l 611 515 l 611 25 q 561 -78 611 -54 q 367 -96 519 -96 q 333 -3 361 -57 q 485 -3 451 -6 q 511 25 511 -3 l 511 515 l 314 515 q 136 -115 294 101 q 61 -43 101 -64 q 215 515 199 150 l 63 515 l 63 615 l 218 615 l 218 1071 l 611 1071 l 611 615 l 756 615 l 756 1071 l 1178 1071 l 1178 615 l 1326 615 l 1326 515 z "},"再":{"ha":1389,"x_min":60,"x_max":1332,"o":"m 1063 324 l 1063 494 l 740 494 l 740 324 l 1063 324 m 325 324 l 638 324 l 638 494 l 325 494 l 325 324 m 325 753 l 325 585 l 638 585 l 638 753 l 325 753 m 740 753 l 740 585 l 1063 585 l 1063 753 l 740 753 m 1332 228 l 1164 228 l 1164 19 q 1104 -90 1164 -68 q 863 -108 1054 -108 q 825 -10 853 -57 q 1029 -10 960 -14 q 1063 19 1063 -10 l 1063 228 l 325 228 l 325 -110 l 224 -110 l 224 228 l 60 228 l 60 324 l 224 324 l 224 847 l 638 847 l 638 981 l 111 981 l 111 1078 l 1281 1078 l 1281 981 l 740 981 l 740 847 l 1164 847 l 1164 324 l 1332 324 l 1332 228 z "},"冒":{"ha":1389,"x_min":168,"x_max":1214,"o":"m 368 490 l 368 390 l 1019 390 l 1019 490 l 368 490 m 1019 215 l 1019 315 l 368 315 l 368 215 l 1019 215 m 1019 36 l 1019 140 l 368 140 l 368 36 l 1019 36 m 268 568 l 1122 568 l 1122 -97 l 1019 -97 l 1019 -43 l 368 -43 l 368 -103 l 268 -103 l 268 568 m 1031 850 l 357 850 l 357 925 l 1031 925 l 1031 850 m 358 676 l 358 750 l 1031 750 l 1031 676 l 358 676 m 1214 1097 l 1214 633 l 1111 633 l 1111 1018 l 268 1018 l 268 631 l 168 631 l 168 1097 l 1214 1097 z "},"冗":{"ha":1389,"x_min":58,"x_max":1332,"o":"m 224 717 l 119 717 l 119 1067 l 1278 1067 l 1278 717 l 1169 717 l 1169 965 l 224 965 l 224 717 m 1176 11 q 1219 56 1208 11 q 1232 253 1229 100 q 1332 207 1274 219 q 1296 -28 1325 32 q 1185 -90 1265 -90 l 1025 -90 q 913 -58 942 -90 q 882 68 882 -25 l 882 633 l 500 633 l 500 444 q 122 -108 500 51 q 58 -18 100 -53 q 338 199 258 65 q 394 447 394 297 l 394 731 l 989 731 l 989 68 q 999 21 989 32 q 1039 11 1007 11 l 1176 11 z "},"写":{"ha":1389,"x_min":114,"x_max":1275,"o":"m 1143 536 q 1139 489 1142 503 q 1022 -44 1096 29 q 906 -87 983 -86 q 682 -83 844 -93 q 649 14 676 -29 q 872 3 757 3 q 936 19 919 3 q 1033 444 996 71 l 301 444 q 418 963 358 644 l 522 953 l 490 803 l 1106 803 l 1106 713 l 471 713 q 431 536 439 568 l 1143 536 m 913 200 l 132 200 l 132 296 l 913 296 l 913 200 m 1275 1086 l 1275 818 l 1171 818 l 1171 990 l 215 990 l 215 818 l 114 818 l 114 1086 l 1275 1086 z "},"军":{"ha":1389,"x_min":110,"x_max":1289,"o":"m 210 815 l 110 815 l 110 1104 l 1279 1104 l 1279 815 l 1176 815 l 1176 1013 l 210 1013 l 210 815 m 1289 122 l 792 122 l 792 -106 l 690 -106 l 690 122 l 111 122 l 111 218 l 690 218 l 690 390 l 435 390 q 294 371 317 390 q 260 469 281 425 q 338 560 290 476 q 417 710 365 599 l 253 710 l 253 801 l 457 801 q 521 972 501 901 l 626 940 q 568 801 596 861 l 1132 801 l 1132 710 l 525 710 q 397 483 464 583 l 690 483 l 690 644 l 792 644 l 792 483 l 1174 483 l 1172 390 l 792 390 l 792 218 l 1289 218 l 1289 122 z "},"农":{"ha":1389,"x_min":49,"x_max":1332,"o":"m 1211 582 q 921 358 1092 471 q 1332 7 1086 113 q 1257 -81 1292 -24 q 649 729 826 128 q 458 492 568 592 l 458 44 l 782 139 q 792 44 785 82 q 339 -108 379 -82 q 293 -15 324 -53 q 357 76 357 13 l 357 410 q 125 283 246 332 q 49 368 92 333 q 615 889 453 515 l 238 889 l 238 703 l 136 703 l 136 986 l 653 986 q 701 1163 682 1078 l 804 1143 q 761 986 788 1068 l 1258 986 l 1258 703 l 1154 703 l 1154 889 l 726 889 l 714 858 q 874 438 772 619 q 1129 649 1028 546 l 1211 582 z "},"冠":{"ha":1389,"x_min":53,"x_max":1335,"o":"m 1158 199 q 1110 103 1158 125 q 924 88 1061 85 q 892 178 917 129 q 1036 176 958 176 q 1060 200 1060 178 l 1060 619 l 708 619 l 708 713 l 1060 713 l 1060 886 l 1158 886 l 1158 713 l 1313 713 l 1313 619 l 1158 619 l 1158 199 m 836 544 q 961 313 924 431 l 874 274 q 756 513 842 389 l 836 544 m 215 857 l 114 857 l 114 1094 l 1276 1094 l 1276 857 l 1174 857 l 1174 999 l 215 999 l 215 857 m 174 833 l 658 833 l 658 738 l 174 738 l 174 833 m 1117 4 q 1213 38 1190 4 q 1240 192 1233 69 q 1335 154 1282 164 q 1282 -40 1321 7 q 1119 -89 1240 -89 l 715 -89 q 531 -57 578 -89 q 482 68 482 -25 l 482 465 l 333 465 l 333 371 q 124 -107 333 57 q 53 -35 90 -57 q 238 372 238 107 l 238 465 l 78 465 l 78 561 l 711 561 l 711 465 l 579 465 l 579 68 q 604 17 579 29 q 715 4 631 4 l 1117 4 z "},"冤":{"ha":1389,"x_min":69,"x_max":1324,"o":"m 217 818 l 117 818 l 117 1099 l 1264 1099 l 1264 818 l 1161 818 l 1161 1007 l 217 1007 l 217 818 m 749 582 q 717 394 738 474 l 1058 394 l 1058 582 l 749 582 m 611 394 q 643 582 631 463 l 357 582 l 357 394 l 611 394 m 488 792 q 364 668 422 719 l 683 668 q 782 792 736 724 l 488 792 m 1151 6 q 1213 38 1199 6 q 1231 185 1226 68 q 1324 146 1261 161 q 1281 -42 1313 4 q 1158 -89 1249 -89 l 900 -89 q 758 -60 794 -89 q 722 51 722 -31 l 722 308 l 692 308 q 125 -108 575 -6 q 71 -19 110 -68 q 579 308 468 63 l 256 308 l 256 582 q 139 507 210 549 q 69 582 110 551 q 504 982 363 738 l 613 961 q 554 875 592 928 l 843 875 l 860 879 l 926 833 q 800 668 871 743 l 1163 668 l 1163 308 l 822 308 l 822 53 q 838 15 822 24 q 907 6 854 6 l 1151 6 m 967 281 q 1136 122 1078 201 l 1061 69 q 896 232 1006 151 l 967 281 z "},"冥":{"ha":1389,"x_min":86,"x_max":1306,"o":"m 217 840 l 117 840 l 117 1097 l 1282 1097 l 1282 840 l 1181 840 l 1181 1006 l 217 1006 l 217 840 m 368 507 l 1019 507 l 1019 625 l 368 625 l 368 507 m 368 699 l 1019 699 l 1019 813 l 368 813 l 368 699 m 269 431 l 269 889 l 1121 889 l 1121 431 l 269 431 m 1304 210 l 86 210 l 86 301 l 675 301 q 621 399 657 344 l 715 429 q 790 301 760 368 l 1304 301 l 1304 210 m 565 131 q 169 -103 426 -4 q 88 -25 113 -42 q 465 169 349 57 l 565 131 m 911 174 q 1306 -32 1126 76 l 1218 -99 q 825 114 1053 14 l 911 174 z "},"冬":{"ha":1389,"x_min":69,"x_max":1328,"o":"m 357 181 q 1038 -22 772 85 l 989 -118 q 310 97 700 3 l 357 181 m 528 419 q 992 269 835 332 l 946 176 q 482 340 778 247 l 528 419 m 504 932 q 472 894 485 907 q 690 694 556 783 q 954 932 860 803 l 504 932 m 1110 988 q 783 636 1000 789 q 1328 457 1021 506 q 1261 358 1293 422 q 693 576 936 421 q 119 351 438 425 q 69 447 103 407 q 603 640 361 506 q 413 829 496 722 q 186 639 300 714 q 117 715 154 689 q 536 1165 397 893 l 647 1143 q 572 1024 622 1096 l 1025 1024 l 1042 1029 l 1110 988 z "},"冯":{"ha":1389,"x_min":54,"x_max":1276,"o":"m 54 10 q 264 494 171 233 l 356 446 q 157 -39 261 183 l 54 10 m 165 1103 q 371 768 314 900 l 271 719 q 72 1063 215 863 l 165 1103 m 1065 199 l 406 199 l 406 294 l 1065 294 l 1065 199 m 1276 560 q 1272 513 1275 526 q 1153 -54 1229 21 q 1040 -97 1115 -93 q 811 -93 963 -104 q 778 1 806 -36 q 1006 -8 892 -8 q 1071 8 1053 -8 q 1169 463 1129 61 l 536 463 l 536 464 l 503 464 q 547 885 533 667 l 649 876 q 618 560 632 688 l 1003 560 q 1049 978 1032 796 l 442 978 l 442 1079 l 1067 1079 l 1083 1083 l 1157 1075 q 1103 560 1138 819 l 1276 560 z "},"冰":{"ha":1389,"x_min":61,"x_max":1350,"o":"m 307 800 q 63 988 222 890 l 122 1061 q 371 885 283 971 l 307 800 m 379 483 q 151 61 274 263 l 61 125 q 301 546 174 290 l 379 483 m 751 790 q 392 49 674 271 q 325 133 364 100 q 639 703 553 290 l 392 703 l 392 804 l 672 804 l 690 807 l 751 790 m 1301 833 q 1017 540 1168 671 q 1350 143 1143 258 q 1276 56 1299 96 q 900 633 1028 215 l 900 33 q 844 -81 900 -57 q 636 -104 797 -104 q 594 3 621 -39 q 767 3 729 0 q 797 33 797 3 l 797 1160 l 900 1160 l 900 915 q 981 629 932 760 q 1214 888 1126 768 l 1301 833 z "},"冲":{"ha":1389,"x_min":76,"x_max":1296,"o":"m 308 778 q 90 1057 242 901 l 168 1110 q 392 840 325 953 l 308 778 m 76 21 q 328 475 204 218 l 403 410 q 163 -46 282 151 l 76 21 m 1194 436 l 1194 783 l 922 783 l 922 436 l 1194 436 m 821 436 l 821 783 l 557 783 l 557 436 l 821 436 m 1296 881 l 1296 264 l 1194 264 l 1194 340 l 922 340 l 922 -104 l 821 -104 l 821 340 l 557 340 l 557 254 l 460 254 l 460 881 l 821 881 l 821 1147 l 922 1147 l 922 881 l 1296 881 z "},"决":{"ha":1389,"x_min":58,"x_max":1339,"o":"m 288 775 q 75 1057 226 894 l 157 1107 q 376 833 311 947 l 288 775 m 374 411 q 146 -44 276 186 l 58 18 q 297 475 181 217 l 374 411 m 882 700 q 874 526 882 599 l 1093 526 l 1093 844 l 882 844 l 882 700 m 938 426 q 1339 -15 1044 86 q 1271 -104 1306 -46 q 850 388 965 19 q 422 -110 767 63 q 349 -28 386 -57 q 753 426 683 124 l 428 426 l 428 526 l 769 526 q 776 700 776 601 l 776 844 l 499 844 l 499 943 l 776 943 l 776 1160 l 882 1160 l 882 943 l 1193 943 l 1193 526 l 1331 526 l 1331 426 l 938 426 z "},"况":{"ha":1389,"x_min":58,"x_max":1336,"o":"m 293 781 q 78 1057 232 892 l 154 1113 q 379 843 315 949 l 293 781 m 386 410 q 147 -47 275 169 l 58 19 q 310 475 183 213 l 386 410 m 624 632 l 1138 632 l 1138 1003 l 624 1003 l 624 632 m 1200 3 q 1233 40 1226 3 q 1244 211 1242 76 q 1336 169 1281 183 q 1303 -37 1329 17 q 1210 -90 1278 -90 l 1074 -90 q 971 -60 997 -90 q 944 51 944 -31 l 944 535 l 776 535 q 700 139 761 269 q 426 -104 622 -24 q 363 -21 407 -60 q 610 189 542 47 q 675 535 664 299 l 522 535 l 522 1099 l 1243 1099 l 1243 535 l 1047 535 l 1047 51 q 1054 11 1047 19 q 1089 3 1063 3 l 1200 3 z "},"冶":{"ha":1389,"x_min":57,"x_max":1315,"o":"m 299 783 q 75 1057 232 897 l 153 1111 q 382 847 315 954 l 299 783 m 57 18 q 317 472 181 203 l 393 404 q 144 -49 261 142 l 57 18 m 610 351 l 610 49 l 1097 49 l 1097 351 l 610 351 m 510 447 l 1200 447 l 1200 -104 l 1097 -104 l 1097 -47 l 610 -47 l 610 -108 l 510 -108 l 510 447 m 1015 982 q 1315 582 1215 769 l 1224 529 q 1171 621 1200 575 q 460 560 503 576 q 425 658 446 613 q 521 749 457 664 q 769 1163 657 914 l 875 1132 q 589 683 735 864 l 1110 713 q 928 938 1018 843 l 1015 982 z "},"冷":{"ha":1389,"x_min":57,"x_max":1321,"o":"m 254 756 q 74 1063 208 875 l 163 1101 q 351 806 299 929 l 254 756 m 57 8 q 265 482 172 228 l 354 435 q 158 -37 263 181 l 57 8 m 1213 476 q 893 82 1104 288 q 1043 -37 988 14 l 969 -108 q 593 182 844 13 l 663 242 l 813 140 q 1057 421 956 274 l 497 421 l 497 518 l 1121 518 l 1139 524 l 1213 476 m 813 774 q 956 614 906 686 l 872 560 q 732 731 815 644 l 813 774 m 922 1129 q 896 1081 906 1096 q 1321 672 1067 814 q 1243 586 1274 632 q 844 996 1019 736 q 422 579 679 743 q 347 657 393 625 q 822 1164 671 854 l 922 1129 z "},"冻":{"ha":1389,"x_min":60,"x_max":1322,"o":"m 265 732 q 72 1054 214 858 l 156 1100 q 356 788 296 921 l 265 732 m 60 17 q 276 469 171 204 l 360 417 q 154 -37 271 193 l 60 17 m 676 317 q 458 -35 588 108 q 378 29 431 -7 q 574 346 499 153 l 676 317 m 940 461 l 940 22 q 888 -83 940 -61 q 679 -101 843 -101 q 647 -3 672 -53 q 811 -4 722 -4 q 839 22 839 -3 l 839 461 l 619 461 q 489 440 513 461 q 454 542 475 494 q 533 656 485 551 q 625 882 569 724 l 400 882 l 400 978 l 657 978 q 711 1171 692 1089 l 819 1144 q 769 978 799 1061 l 1310 978 l 1310 882 l 738 882 q 597 556 671 706 l 839 556 l 839 764 l 940 764 l 940 556 l 1254 556 l 1254 461 l 940 461 m 1125 347 q 1322 24 1268 140 l 1229 -22 q 1038 310 1164 121 l 1125 347 z "},"净":{"ha":1389,"x_min":71,"x_max":1326,"o":"m 267 746 q 71 1060 215 860 l 161 1101 q 364 796 304 913 l 267 746 m 72 8 q 282 471 188 218 l 375 421 q 176 -42 281 171 l 72 8 m 1117 474 l 876 474 l 876 325 l 1117 325 l 1117 474 m 876 568 l 1117 568 l 1117 708 l 876 708 l 876 568 m 660 953 q 550 801 594 854 l 842 801 q 940 953 893 863 l 660 953 m 1326 474 l 1214 474 l 1214 176 l 1117 176 l 1117 232 l 876 232 l 876 18 q 819 -87 876 -65 q 600 -104 772 -107 q 567 -7 593 -61 q 746 -8 608 -8 q 776 18 776 -7 l 776 232 l 465 232 l 465 325 l 776 325 l 776 474 l 386 474 l 386 568 l 776 568 l 776 708 l 507 708 l 507 751 l 443 685 q 363 754 403 728 q 658 1164 553 915 l 756 1135 q 711 1043 742 1099 l 996 1043 l 1013 1049 l 1079 1003 q 954 801 1031 903 l 1214 801 l 1214 568 l 1326 568 l 1326 474 z "},"凄":{"ha":1389,"x_min":56,"x_max":1325,"o":"m 56 10 q 225 469 142 201 l 304 422 q 146 -35 229 178 l 56 10 m 143 1104 q 311 804 269 921 l 229 754 q 65 1063 182 886 l 143 1104 m 849 525 l 1097 525 l 1097 629 l 849 629 l 849 525 m 849 704 l 1097 704 l 1097 804 l 849 804 l 849 704 m 693 267 l 626 182 q 843 128 740 157 q 963 267 926 185 l 693 267 m 813 446 q 753 350 788 400 l 1319 350 l 1319 267 l 1074 267 q 947 96 1031 167 q 1274 -29 1156 32 l 1193 -96 q 861 36 1069 -29 q 363 -100 692 -57 q 315 -15 350 -60 q 743 74 585 8 q 471 142 594 115 q 579 267 517 188 l 344 267 l 344 350 l 642 350 q 706 446 676 399 l 418 446 l 418 525 l 749 525 l 749 629 l 324 629 l 324 704 l 749 704 l 749 804 l 425 804 l 425 882 l 749 882 l 749 969 l 343 969 l 343 1053 l 749 1053 l 749 1161 l 849 1161 l 849 1053 l 1300 1053 l 1300 969 l 849 969 l 849 882 l 1197 882 l 1197 707 l 1325 707 l 1325 622 l 1197 622 l 1197 446 l 813 446 z "},"准":{"ha":1389,"x_min":71,"x_max":1319,"o":"m 258 746 q 71 1058 201 874 l 163 1100 q 354 797 299 915 l 258 746 m 72 8 q 282 471 181 200 l 375 421 q 176 -42 285 182 l 72 8 m 606 86 l 896 86 l 896 274 l 606 274 l 606 86 m 896 824 l 606 824 l 606 640 l 896 640 l 896 824 m 896 549 l 606 549 l 606 365 l 896 365 l 896 549 m 1319 -8 l 606 -8 l 606 -107 l 508 -107 l 508 701 q 372 528 450 610 q 296 601 338 572 q 621 1150 504 799 l 715 1125 q 629 914 686 1033 l 946 914 q 842 1113 918 992 l 929 1153 q 1038 958 1008 1039 l 951 914 l 1292 914 l 1292 824 l 997 824 l 997 640 l 1264 640 l 1264 549 l 997 549 l 997 365 l 1263 365 l 1263 274 l 997 274 l 997 86 l 1319 86 l 1319 -8 z "},"凉":{"ha":1389,"x_min":57,"x_max":1293,"o":"m 1278 904 l 415 904 l 415 1001 l 811 1001 q 753 1136 783 1071 l 851 1164 q 926 1001 901 1065 l 1278 1001 l 1278 904 m 257 710 q 72 1063 206 861 l 160 1108 q 350 765 303 900 l 257 710 m 363 438 q 157 -37 268 185 l 57 10 q 272 483 167 204 l 363 438 m 646 306 q 438 -35 554 107 q 356 26 403 3 q 550 335 468 151 l 646 306 m 600 497 l 1085 497 l 1085 701 l 600 701 l 600 497 m 901 410 l 901 10 q 847 -86 901 -68 q 642 -103 806 -103 q 606 -10 633 -57 q 768 -10 735 -12 q 794 13 794 -10 l 794 410 l 501 410 l 501 790 l 1188 790 l 1188 410 l 901 410 m 1115 333 q 1293 32 1243 146 l 1204 -11 q 1029 297 1143 119 l 1115 333 z "},"凌":{"ha":1389,"x_min":56,"x_max":1338,"o":"m 1303 731 l 406 731 l 406 821 l 803 821 l 803 953 l 492 953 l 492 1040 l 803 1040 l 803 1163 l 904 1163 l 904 1040 l 1210 1040 l 1210 953 l 904 953 l 904 821 l 1303 821 l 1303 731 m 1236 463 q 939 642 1126 547 l 997 701 q 1297 529 1192 607 l 1236 463 m 760 665 q 464 453 614 539 q 396 525 419 506 q 674 703 558 603 l 760 665 m 258 746 q 72 1064 206 878 l 160 1101 q 353 793 299 921 l 258 746 m 349 438 q 153 -36 256 178 l 56 8 q 264 482 168 224 l 349 438 m 693 336 q 861 160 751 238 q 1049 351 986 242 l 706 351 l 693 336 m 1183 404 q 949 107 1117 226 q 1338 -15 1110 19 q 1276 -104 1303 -47 q 857 47 1042 -64 q 397 -106 675 -56 q 342 -22 376 -60 q 772 110 600 19 q 624 274 682 182 q 454 153 539 203 q 382 225 418 199 q 757 565 638 358 l 851 535 q 778 432 825 488 l 1096 432 l 1115 436 l 1183 404 z "},"减":{"ha":1389,"x_min":56,"x_max":1343,"o":"m 1229 950 q 1057 1107 1174 1022 l 1118 1157 q 1293 1004 1242 1068 l 1229 950 m 243 743 q 72 1061 193 886 l 153 1097 q 329 785 276 921 l 243 743 m 331 435 q 144 -36 240 171 l 56 6 q 250 479 165 229 l 331 435 m 654 461 l 654 244 l 821 244 l 821 461 l 654 461 m 654 160 l 654 81 l 574 81 l 574 544 l 896 544 l 896 160 l 654 160 m 903 654 l 558 654 l 558 735 l 903 735 l 903 654 m 1292 713 q 1101 233 1221 431 q 1217 7 1150 11 q 1271 224 1254 7 q 1343 174 1296 192 q 1217 -108 1308 -111 q 1032 133 1100 -104 q 788 -99 931 0 q 718 -33 763 -65 q 1004 244 888 74 q 938 843 957 483 l 504 843 l 504 567 q 353 -112 504 111 q 275 -58 317 -76 q 413 567 413 144 l 413 936 l 932 936 l 924 1154 l 1015 1154 q 1022 936 1017 1075 l 1317 936 l 1317 843 l 1028 843 q 1075 365 1042 578 q 1206 731 1157 525 l 1292 713 z "},"凑":{"ha":1389,"x_min":64,"x_max":1342,"o":"m 65 8 q 258 471 172 218 l 353 425 q 169 -37 267 181 l 65 8 m 153 1101 q 354 796 297 910 l 258 744 q 64 1060 203 867 l 153 1101 m 885 163 q 1278 -18 1093 93 l 1222 -99 q 831 92 1056 15 l 885 163 m 1058 575 q 1342 403 1176 453 q 1276 325 1299 365 q 1044 468 1146 376 l 1044 392 l 888 392 q 858 274 876 328 l 1218 274 l 1218 189 l 825 189 q 438 -99 721 -18 q 383 -22 413 -50 q 715 189 621 39 l 490 189 l 490 274 l 757 274 q 789 392 774 315 l 624 392 l 624 476 l 1035 476 q 946 575 990 515 l 699 575 q 426 317 592 414 q 358 399 407 353 q 575 575 486 464 l 375 575 l 375 663 l 636 663 q 688 764 661 703 l 465 764 l 465 847 l 718 847 q 746 946 738 911 l 424 946 l 424 1032 l 763 1032 q 783 1164 775 1093 l 886 1154 q 867 1032 879 1101 l 1265 1032 l 1265 946 l 847 946 q 822 847 838 897 l 1225 847 l 1225 764 l 793 764 q 749 663 765 694 l 1303 663 l 1303 575 l 1058 575 z "},"凛":{"ha":1389,"x_min":64,"x_max":1321,"o":"m 1301 965 l 396 965 l 396 1046 l 788 1046 q 743 1149 760 1115 l 846 1174 q 906 1046 890 1082 l 1301 1046 l 1301 965 m 960 725 l 736 725 l 736 658 l 960 658 l 960 725 m 1036 610 l 658 610 l 658 774 l 1036 774 l 1036 610 m 1136 833 l 563 833 l 563 549 l 1136 549 l 1136 833 m 1231 488 l 472 488 l 472 894 l 1231 894 l 1231 488 m 501 344 l 501 419 l 1199 419 l 1199 344 l 501 344 m 311 744 q 90 996 249 851 l 157 1054 q 382 811 321 913 l 311 744 m 397 494 q 146 71 258 239 l 64 136 q 325 558 185 297 l 397 494 m 676 139 q 418 -79 571 11 q 340 -14 371 -35 q 583 168 496 64 l 676 139 m 900 190 l 900 0 q 851 -89 900 -69 q 657 -103 813 -103 q 625 -18 651 -78 q 778 -18 746 -22 q 801 1 801 -17 l 801 190 l 389 190 l 389 269 l 1314 269 l 1314 190 l 900 190 m 1088 165 q 1321 -28 1235 65 l 1238 -79 q 1008 122 1160 11 l 1088 165 z "},"凝":{"ha":1389,"x_min":57,"x_max":1338,"o":"m 501 729 q 394 754 421 729 q 368 850 368 778 l 368 1160 l 464 1160 l 464 1006 q 703 1103 624 1056 l 758 1032 q 464 931 642 979 l 464 850 q 472 819 464 826 q 511 813 481 813 l 661 813 q 696 831 688 813 q 707 911 704 847 q 790 878 735 889 q 758 760 785 790 q 672 729 735 729 l 501 729 m 226 743 q 72 1063 188 869 l 160 1093 q 318 782 276 908 l 226 743 m 297 440 q 153 -25 239 219 l 57 10 q 208 478 146 232 l 297 440 m 590 235 q 760 61 708 140 l 690 -3 q 560 144 643 65 q 344 -110 497 -11 q 281 -46 319 -74 q 501 260 461 63 l 322 260 l 322 351 l 513 351 q 514 403 514 369 l 514 521 l 443 521 q 376 375 415 442 q 301 424 332 408 q 407 729 372 532 l 494 711 q 469 607 488 671 l 761 607 l 761 521 l 604 521 l 604 401 q 603 351 604 369 l 778 351 l 778 260 l 593 260 q 590 246 593 256 l 588 232 l 590 235 m 1338 -1 q 1308 -90 1317 -37 l 1199 -90 q 1014 -46 1083 -90 q 878 139 928 7 q 758 -106 843 -19 q 699 -44 736 -67 q 838 496 825 82 l 917 496 q 903 288 913 375 q 1013 61 938 126 l 1013 608 l 796 608 l 796 699 l 1140 699 q 868 893 1043 796 l 925 953 q 1039 889 974 928 q 1164 1033 1114 961 l 818 1033 l 818 1121 l 1229 1121 l 1249 1126 l 1310 1082 q 1111 839 1231 954 q 1204 765 1175 796 l 1146 699 l 1257 699 l 1271 701 l 1329 688 q 1272 465 1303 554 l 1203 485 q 1231 608 1221 551 l 1100 608 l 1100 374 l 1308 374 l 1308 288 l 1100 288 l 1100 13 q 1203 -1 1142 -1 l 1338 -1 z "},"几":{"ha":1389,"x_min":65,"x_max":1336,"o":"m 1185 25 q 1224 78 1214 25 q 1238 288 1233 126 q 1336 240 1276 257 q 1301 -6 1328 57 q 1192 -75 1271 -75 l 1038 -75 q 929 -40 958 -75 q 900 97 900 -4 l 900 981 l 461 981 l 461 658 q 144 -110 461 124 q 65 -32 111 -62 q 356 660 356 181 l 356 1082 l 1006 1082 l 1006 96 q 1015 38 1006 51 q 1053 25 1024 25 l 1185 25 z "},"凡":{"ha":1389,"x_min":56,"x_max":1338,"o":"m 554 744 q 844 432 760 539 l 763 361 q 476 686 669 490 l 554 744 m 1188 29 q 1228 82 1218 29 q 1242 292 1238 129 q 1338 244 1281 257 q 1304 -1 1331 61 q 1196 -71 1275 -71 l 1046 -71 q 939 -36 967 -71 q 911 100 911 0 l 911 982 l 438 982 l 438 692 q 136 -110 438 139 q 56 -35 92 -58 q 332 693 332 192 l 332 1083 l 1014 1083 l 1014 99 q 1022 42 1014 54 q 1060 29 1031 29 l 1188 29 z "},"凤":{"ha":1389,"x_min":54,"x_max":1338,"o":"m 968 801 q 785 349 915 550 q 988 119 928 207 l 913 46 q 725 268 851 139 q 386 -7 579 88 q 326 74 361 44 q 656 338 508 154 q 417 546 542 446 l 485 610 q 713 418 615 506 q 851 726 806 561 l 414 726 l 414 821 l 889 821 l 906 825 l 968 801 m 1167 1093 q 1247 19 1161 19 q 1275 231 1269 19 q 1338 156 1307 182 q 1310 -35 1329 18 q 1236 -92 1288 -92 q 1089 233 1122 -92 q 1065 997 1068 422 l 314 997 l 314 740 q 143 -111 314 169 q 54 -53 103 -71 q 213 740 213 204 l 213 1093 l 1167 1093 z "},"凭":{"ha":1389,"x_min":39,"x_max":1342,"o":"m 811 1003 q 501 976 675 989 q 476 1053 497 1011 q 1169 1147 965 1092 l 1243 1074 q 913 1015 1111 1040 l 913 851 l 1310 851 l 1310 761 l 913 761 l 913 594 l 1286 594 l 1286 507 l 469 507 l 469 594 l 811 594 l 811 761 l 421 761 l 421 851 l 811 851 l 811 1003 m 244 813 q 113 696 182 750 q 39 768 81 738 q 383 1163 265 921 l 476 1135 q 344 928 429 1035 l 344 465 l 244 465 l 244 813 m 1200 10 q 1238 39 1229 10 q 1250 179 1247 69 q 1342 140 1278 156 q 1307 -39 1335 7 q 1210 -85 1279 -85 l 1046 -85 q 936 -57 965 -85 q 907 50 907 -28 l 907 307 l 472 307 l 472 269 q 122 -107 472 4 q 64 -19 104 -62 q 369 272 369 71 l 369 399 l 1008 399 l 1008 51 q 1018 17 1008 25 q 1058 10 1026 10 l 1200 10 z "},"凯":{"ha":1389,"x_min":111,"x_max":1336,"o":"m 676 758 l 119 758 l 119 1075 l 206 1075 l 206 843 l 353 843 l 353 1157 l 443 1157 l 443 843 l 588 843 l 588 1075 l 676 1075 l 676 758 m 606 147 q 617 61 608 92 q 149 -67 179 -47 q 111 21 138 -18 q 142 94 142 33 l 142 389 l 554 389 l 554 551 l 115 551 l 115 643 l 649 643 l 649 297 l 615 297 l 615 296 l 231 296 l 231 61 l 606 147 m 1229 -1 q 1256 179 1253 -1 q 1336 142 1294 151 q 1310 -31 1331 15 q 1236 -79 1289 -79 l 1158 -79 q 1079 -50 1099 -79 q 1060 57 1060 -24 l 1060 996 l 878 996 l 878 674 q 699 -108 878 144 q 622 -44 667 -68 q 782 674 782 182 l 782 1085 l 1153 1085 l 1153 56 q 1157 8 1153 18 q 1176 -1 1161 -1 l 1229 -1 z "},"凰":{"ha":1389,"x_min":51,"x_max":1339,"o":"m 740 39 l 1097 39 l 1097 -47 l 281 -47 l 281 39 l 642 39 l 642 150 l 389 150 l 389 228 l 642 228 l 642 329 l 349 329 l 349 410 l 1033 410 l 1033 329 l 740 329 l 740 228 l 1000 228 l 1000 150 l 740 150 l 740 39 m 896 811 l 489 811 l 489 719 l 896 719 l 896 811 m 896 651 l 489 651 l 489 560 l 896 560 l 896 651 m 758 975 l 714 882 l 992 882 l 992 489 l 397 489 l 397 882 l 613 882 q 650 993 643 960 l 758 975 m 1176 1089 q 1185 364 1175 581 q 1253 11 1201 11 q 1278 224 1275 11 q 1339 150 1306 181 q 1311 -39 1331 13 q 1240 -96 1290 -96 q 1099 231 1131 -96 q 1078 999 1082 406 l 307 999 l 307 739 q 136 -107 307 171 q 51 -50 97 -68 q 208 739 208 206 l 208 1089 l 1176 1089 z "},"凳":{"ha":1389,"x_min":57,"x_max":1331,"o":"m 485 886 q 114 672 322 749 q 57 744 88 715 q 304 863 185 786 q 171 964 246 915 l 225 1008 q 369 906 307 960 q 515 1038 457 969 l 151 1038 l 151 1115 l 575 1115 l 592 1119 l 656 1083 q 504 903 600 988 l 897 903 q 718 1133 783 1010 l 799 1161 q 886 1035 829 1103 q 1057 1160 983 1096 l 1128 1110 q 936 985 1038 1036 q 1028 910 985 938 q 1201 1029 1129 969 l 1272 979 q 1093 867 1196 921 q 1331 763 1201 799 q 1268 682 1288 719 q 914 888 1072 749 l 914 833 l 485 833 l 485 886 m 486 529 q 561 410 535 469 l 831 410 q 901 529 864 458 l 486 529 m 418 597 l 979 597 l 979 690 l 418 690 l 418 597 m 99 410 l 456 410 q 393 510 429 463 l 453 529 l 322 529 l 322 758 l 1079 758 l 1079 529 l 907 529 l 999 504 q 936 410 947 425 l 1290 410 l 1290 331 l 99 331 l 99 410 m 1193 6 q 1229 29 1221 6 q 1242 143 1239 54 q 1328 106 1274 119 q 1296 -42 1322 -4 q 1206 -79 1271 -79 l 1040 -79 q 933 -54 961 -79 q 904 40 904 -31 l 904 182 l 475 182 l 475 175 q 122 -104 475 -29 q 68 -17 103 -57 q 317 69 246 17 q 375 179 375 111 l 375 263 l 1004 263 l 1004 42 q 1013 13 1004 18 q 1053 6 1022 6 l 1193 6 z "},"凶":{"ha":1389,"x_min":128,"x_max":1263,"o":"m 999 172 q 731 506 903 321 q 342 142 550 286 q 253 214 331 154 q 663 581 468 349 q 281 951 460 792 l 349 1017 q 726 663 508 881 q 967 1075 871 858 l 1067 1044 q 796 589 956 800 q 1078 253 981 397 l 999 172 m 1263 890 l 1263 -83 l 1160 -83 l 1160 -36 l 128 -36 l 128 890 l 231 890 l 231 63 l 1160 63 l 1160 890 l 1263 890 z "},"凸":{"ha":1389,"x_min":147,"x_max":1240,"o":"m 1139 108 l 1139 547 l 843 547 l 843 978 l 539 978 l 539 544 l 249 544 l 249 108 l 1139 108 m 1240 644 l 1240 -83 l 1139 -83 l 1139 11 l 249 11 l 249 -92 l 147 -92 l 147 642 l 440 642 l 440 1074 l 944 1074 l 944 644 l 1240 644 z "},"凹":{"ha":1389,"x_min":146,"x_max":1231,"o":"m 1128 125 l 1128 938 l 910 938 l 910 443 l 474 443 l 474 939 l 244 939 l 244 125 l 1128 125 m 1231 1036 l 1231 -92 l 1128 -92 l 1128 28 l 244 28 l 244 -79 l 146 -79 l 146 1038 l 575 1038 l 575 540 l 810 540 l 810 1036 l 1231 1036 z "},"出":{"ha":1389,"x_min":150,"x_max":1239,"o":"m 1239 472 l 1239 -104 l 1128 -104 l 1128 -25 l 150 -25 l 150 472 l 261 472 l 261 76 l 636 76 l 636 560 l 211 560 l 211 1035 l 318 1035 l 318 661 l 636 661 l 636 1161 l 747 1161 l 747 661 l 1074 661 l 1074 1036 l 1185 1036 l 1185 560 l 747 560 l 747 76 l 1128 76 l 1128 472 l 1239 472 z "},"击":{"ha":1389,"x_min":96,"x_max":1297,"o":"m 751 72 l 1075 72 l 1075 419 l 1179 419 l 1179 -107 l 1075 -107 l 1075 -28 l 210 -28 l 210 419 l 317 419 l 317 72 l 646 72 l 646 525 l 96 525 l 96 628 l 646 628 l 646 846 l 197 846 l 197 947 l 646 947 l 646 1161 l 751 1161 l 751 947 l 1201 947 l 1201 846 l 751 846 l 751 628 l 1297 628 l 1297 525 l 751 525 l 751 72 z "},"函":{"ha":1389,"x_min":128,"x_max":1265,"o":"m 644 840 q 915 1007 778 900 l 257 1007 l 257 1103 l 1024 1103 l 1047 1108 l 1117 1056 q 746 800 954 904 l 746 610 l 779 583 q 814 556 801 567 q 1014 808 929 678 l 1100 764 q 874 507 986 617 q 1110 282 1033 371 l 1044 211 q 746 501 935 342 l 746 238 q 696 140 746 160 q 504 125 658 125 q 474 217 497 169 q 619 215 582 213 q 644 239 644 217 l 644 458 q 314 228 390 279 l 263 313 q 644 551 385 383 l 644 840 m 481 533 q 293 742 400 649 l 360 796 q 550 597 475 699 l 481 533 m 1265 856 l 1265 -107 l 1164 -107 l 1164 -31 l 128 -31 l 128 851 l 229 851 l 229 64 l 1164 64 l 1164 856 l 1265 856 z "},"凿":{"ha":1389,"x_min":63,"x_max":1325,"o":"m 1189 1072 q 1050 875 1132 975 l 976 919 q 1107 1118 1058 1024 l 1189 1072 m 331 882 q 214 1081 300 947 l 290 1117 q 413 925 379 993 l 331 882 m 1115 683 l 1215 683 l 1215 -107 l 1115 -107 l 1115 -11 l 176 -11 l 176 682 l 278 682 l 278 83 l 1115 83 l 1115 683 m 335 540 l 533 540 q 422 700 493 619 l 490 740 q 607 585 572 661 l 536 540 l 728 540 q 878 729 817 632 l 956 690 q 835 540 906 618 l 1049 540 l 1049 464 l 742 464 l 742 353 l 1031 353 l 1031 276 l 742 276 l 742 122 l 644 122 l 644 276 l 350 276 l 350 353 l 644 353 l 644 464 l 335 464 l 335 540 m 1325 847 l 1325 747 l 63 747 l 63 847 l 506 847 l 506 1153 l 601 1153 l 601 847 l 794 847 l 794 1156 l 892 1156 l 892 847 l 1325 847 z "},"刀":{"ha":1389,"x_min":64,"x_max":1256,"o":"m 1256 1013 q 1254 954 1256 971 q 1153 -29 1225 60 q 1029 -92 1108 -83 q 794 -89 958 -99 q 758 21 789 -24 q 990 13 860 13 q 1053 35 1032 11 q 1146 910 1121 101 l 657 910 q 558 343 639 551 q 142 -112 438 32 q 64 -25 111 -61 q 457 392 346 104 q 543 910 528 575 l 124 910 l 124 1013 l 1256 1013 z "},"刁":{"ha":1389,"x_min":140,"x_max":1229,"o":"m 892 625 q 197 146 479 332 l 140 247 q 856 724 421 419 l 892 625 m 1229 1031 q 1228 972 1229 988 q 1117 -25 1194 64 q 988 -89 1071 -81 q 738 -86 911 -96 q 699 25 735 -28 q 949 15 828 15 q 1017 39 996 15 q 1118 925 1088 106 l 167 925 l 167 1031 l 1229 1031 z "},"刃":{"ha":1389,"x_min":81,"x_max":1214,"o":"m 1214 1014 q 1213 957 1214 971 q 1113 -43 1183 44 q 994 -104 1069 -96 q 776 -103 936 -111 q 742 7 771 -39 q 956 -1 836 -1 q 1017 22 999 -1 q 1107 913 1082 88 l 722 913 q 611 364 697 568 q 157 -107 476 42 q 81 -24 129 -62 q 514 411 389 110 q 610 913 592 597 l 128 913 l 128 1014 l 1214 1014 m 357 726 q 176 328 272 447 l 88 376 q 268 757 204 514 l 357 726 z "},"分":{"ha":1389,"x_min":65,"x_max":1329,"o":"m 1124 640 q 1121 590 1122 604 q 1036 -42 1094 24 q 928 -90 997 -86 q 710 -87 856 -97 q 676 15 707 -31 q 883 6 782 6 q 943 24 924 6 q 1014 539 992 72 l 638 539 q 515 160 604 300 q 160 -111 400 -24 q 94 -24 131 -54 q 422 211 318 51 q 529 539 501 332 l 263 539 l 263 635 q 154 533 221 590 q 65 613 114 578 q 451 1135 324 799 l 561 1104 q 268 640 456 842 l 1124 640 m 932 1138 q 1329 633 1076 822 q 1246 546 1283 599 q 839 1099 1000 761 l 932 1138 z "},"切":{"ha":1389,"x_min":43,"x_max":1300,"o":"m 596 385 q 614 296 601 333 q 213 99 253 133 q 164 189 192 157 q 225 290 225 222 l 225 668 l 61 633 l 43 726 l 225 765 l 225 1107 l 325 1107 l 325 786 l 586 842 l 604 749 l 325 689 l 325 271 l 596 385 m 1300 1040 q 1299 983 1300 997 q 1208 -28 1274 57 q 1101 -87 1169 -79 q 906 -87 1044 -93 q 874 18 903 -29 q 1058 11 954 11 q 1114 36 1096 11 q 1196 942 1172 101 l 910 942 q 842 338 900 538 q 510 -104 753 39 q 433 -24 479 -51 q 747 381 665 104 q 808 942 800 561 l 585 942 l 585 1040 l 1300 1040 z "},"刊":{"ha":1389,"x_min":61,"x_max":1263,"o":"m 461 618 l 761 618 l 761 517 l 461 517 l 461 -103 l 357 -103 l 357 517 l 61 517 l 61 618 l 357 618 l 357 975 l 99 975 l 99 1076 l 721 1076 l 721 975 l 461 975 l 461 618 m 958 232 l 856 232 l 856 999 l 958 999 l 958 232 m 1263 1136 l 1263 35 q 1197 -86 1263 -62 q 940 -106 1140 -108 q 901 1 928 -46 q 1121 -1 968 -1 q 1158 35 1158 0 l 1158 1136 l 1263 1136 z "},"刑":{"ha":1389,"x_min":51,"x_max":1267,"o":"m 549 617 l 549 988 l 333 988 l 333 617 l 549 617 m 649 617 l 813 617 l 813 517 l 649 517 l 649 -89 l 549 -89 l 549 517 l 333 517 q 126 -107 324 107 q 51 -40 101 -76 q 235 517 228 150 l 65 517 l 65 617 l 235 617 l 235 988 l 97 988 l 97 1085 l 775 1085 l 775 988 l 649 988 l 649 617 m 986 246 l 889 246 l 889 1007 l 986 1007 l 986 246 m 1267 1136 l 1267 29 q 1207 -85 1267 -61 q 969 -106 1157 -106 q 935 -3 958 -50 q 1131 -3 1061 -7 q 1165 29 1165 -3 l 1165 1136 l 1267 1136 z "},"划":{"ha":1389,"x_min":56,"x_max":1264,"o":"m 629 879 q 431 1075 564 969 l 500 1131 q 701 942 638 1028 l 629 879 m 389 692 q 461 344 414 511 q 642 660 574 489 l 740 631 q 499 233 651 417 q 672 0 583 0 q 731 224 719 0 q 818 169 774 182 q 771 -44 804 14 q 667 -101 738 -101 q 422 150 526 -101 q 132 -78 289 17 q 58 4 101 -33 q 383 253 239 100 q 289 682 322 436 l 67 656 l 56 753 l 278 778 q 254 1160 256 969 l 358 1160 q 378 789 358 972 l 815 839 l 825 742 l 389 692 m 996 251 l 897 251 l 897 1008 l 996 1008 l 996 251 m 1264 1147 l 1264 29 q 1206 -85 1264 -61 q 974 -106 1156 -106 q 939 -4 964 -57 q 1129 -4 1063 -8 q 1163 28 1163 -4 l 1163 1146 l 1264 1147 z "},"列":{"ha":1389,"x_min":78,"x_max":1278,"o":"m 90 1088 l 790 1088 l 790 988 l 417 988 q 360 779 393 888 l 669 779 l 688 783 l 750 764 q 176 -115 656 104 q 114 -28 154 -65 q 464 254 328 57 q 254 419 371 340 l 313 496 q 518 342 435 418 q 639 683 600 490 l 324 683 q 158 385 250 497 q 78 453 122 424 q 314 988 232 632 l 90 988 l 90 1088 m 992 229 l 890 229 l 890 1000 l 992 1000 l 992 229 m 1278 1156 l 1278 28 q 1221 -82 1278 -57 q 1010 -101 1178 -101 q 975 -1 1003 -58 q 1144 -3 1051 -3 q 1175 28 1175 -1 l 1175 1156 l 1278 1156 z "},"刘":{"ha":1389,"x_min":63,"x_max":1265,"o":"m 429 933 l 782 933 l 782 838 l 661 838 q 528 379 614 579 q 731 110 665 219 l 650 36 q 479 281 597 129 q 135 -107 349 39 q 63 -28 110 -68 q 411 361 285 110 q 136 657 267 531 l 206 717 q 454 461 315 614 q 558 838 521 631 l 69 838 l 69 933 l 426 933 q 331 1124 392 1022 l 422 1163 q 521 976 496 1039 l 429 933 m 972 246 l 872 246 l 872 1001 l 972 1001 l 972 246 m 1265 1136 l 1265 26 q 1207 -87 1265 -62 q 979 -107 1157 -107 q 943 -4 969 -54 q 1132 -6 1028 -6 q 1164 26 1164 -4 l 1164 1136 l 1265 1136 z "}}}
